M48
METRIC,LZ,000.000
;FILE_FORMAT=3:3
;TYPE=PLATED
;Layer: PTH_Through
;EasyEDA v6.5.51, 2026-01-08 00:26:36
;20534f1d5e454c7f8422adcd5164db7c,ce41bef9852f4de9b562203a7e9bab9e,10
;Gerber Generator version 0.2
;Holesize 1 = 0.800 mm
T01C0.800
;Holesize 2 = 0.915 mm
T02C0.915
;Holesize 3 = 1.000 mm
T03C1.000
;Holesize 4 = 1.021 mm
T04C1.021
;Holesize 5 = 1.101 mm
T05C1.101
;Holesize 6 = 1.400 mm
T06C1.400
;Holesize 7 = 1.524 mm
T07C1.524
%
G05
G90
T01
X006838Y-049530
X017038Y-049530
T02
X024130Y-003937
X024130Y-006477
X024130Y-009017
X024130Y-011557
X024130Y-014097
X024130Y-016637
X024130Y-019177
X024130Y-021717
X024130Y-024257
X024130Y-026797
X024130Y-029337
X024130Y-031877
X024130Y-034417
X024130Y-036957
X024130Y-039497
X024130Y-042037
X024130Y-044577
X024130Y-047117
X024130Y-049657
X024130Y-052197
X049530Y-052197
X049530Y-049657
X049530Y-047117
X049530Y-044577
X049530Y-042037
X049530Y-039497
X049530Y-036957
X049530Y-034417
X049530Y-031877
X049530Y-029337
X049530Y-026797
X049530Y-024257
X049530Y-021717
X049530Y-019177
X049530Y-016637
X049530Y-014097
X049530Y-011557
X049530Y-009017
X049530Y-006477
X049530Y-003937
T03
X014351Y-068358
X014351Y-059658
X049435Y-060198
X040735Y-060198
X009271Y-068453
X006731Y-068453
X004191Y-068453
X014475Y-078359G85X014481Y-078359
X014475Y-096139G85X014481Y-096139
X055115Y-096139G85X055121Y-096139
X055115Y-078359G85X055121Y-078359
T04
X059817Y-047117
X059817Y-044577
X059817Y-042037
T05
X059817Y-024130
X059817Y-026670
T06
X048300Y-105791
X053300Y-105791
X033187Y-105664
X038187Y-105664
T07
X034913Y-072293
X020713Y-066294
X022713Y-060294
X022713Y-072294
X034913Y-060295
M30
