G04 Layer: TopSilkscreenLayer*
G04 EasyEDA v6.5.51, 2026-01-08 00:26:36*
G04 20534f1d5e454c7f8422adcd5164db7c,ce41bef9852f4de9b562203a7e9bab9e,10*
G04 Gerber Generator version 0.2*
G04 Scale: 100 percent, Rotated: No, Reflected: No *
G04 Dimensions in millimeters *
G04 leading zeros omitted , absolute positions ,4 integer and 5 decimal *
%FSLAX45Y45*%
%MOMM*%

%ADD10C,0.1524*%
%ADD11C,0.1500*%
%ADD12C,0.2032*%
%ADD13C,0.2540*%
%ADD14C,0.3000*%
%ADD15C,0.1200*%
%ADD16C,0.0150*%

%LPD*%
D10*
X1728215Y-6391300D02*
G01*
X1619250Y-6391300D01*
X1728215Y-6391300D02*
G01*
X1728215Y-6427622D01*
X1723136Y-6443370D01*
X1712721Y-6453530D01*
X1702307Y-6458864D01*
X1686560Y-6463944D01*
X1660652Y-6463944D01*
X1645157Y-6458864D01*
X1634744Y-6453530D01*
X1624329Y-6443370D01*
X1619250Y-6427622D01*
X1619250Y-6391300D01*
X1707387Y-6498234D02*
G01*
X1712721Y-6508648D01*
X1728215Y-6524396D01*
X1619250Y-6524396D01*
X4419600Y-5637784D02*
G01*
X4419600Y-5746750D01*
X4419600Y-5637784D02*
G01*
X4455922Y-5637784D01*
X4471670Y-5642863D01*
X4481829Y-5653278D01*
X4487163Y-5663692D01*
X4492243Y-5679439D01*
X4492243Y-5705347D01*
X4487163Y-5720842D01*
X4481829Y-5731255D01*
X4471670Y-5741670D01*
X4455922Y-5746750D01*
X4419600Y-5746750D01*
X4531868Y-5663692D02*
G01*
X4531868Y-5658612D01*
X4536947Y-5648197D01*
X4542281Y-5642863D01*
X4552695Y-5637784D01*
X4573270Y-5637784D01*
X4583684Y-5642863D01*
X4589018Y-5648197D01*
X4594097Y-5658612D01*
X4594097Y-5669026D01*
X4589018Y-5679439D01*
X4578604Y-5694934D01*
X4526534Y-5746750D01*
X4599431Y-5746750D01*
X5929884Y-2108200D02*
G01*
X6038850Y-2108200D01*
X5929884Y-2035555D02*
G01*
X6038850Y-2035555D01*
X5981700Y-2108200D02*
G01*
X5981700Y-2035555D01*
X5950711Y-2001265D02*
G01*
X5945377Y-1990852D01*
X5929884Y-1975104D01*
X6038850Y-1975104D01*
X4814570Y-9943084D02*
G01*
X4814570Y-10026142D01*
X4809236Y-10041889D01*
X4804156Y-10046970D01*
X4793741Y-10052050D01*
X4783327Y-10052050D01*
X4772913Y-10046970D01*
X4767579Y-10041889D01*
X4762500Y-10026142D01*
X4762500Y-10015728D01*
X4848859Y-10088626D02*
G01*
X4942331Y-10088626D01*
X4976622Y-9943084D02*
G01*
X4976622Y-10052050D01*
X5049265Y-9943084D02*
G01*
X4976622Y-10015728D01*
X5002529Y-9989820D02*
G01*
X5049265Y-10052050D01*
X5083556Y-9943084D02*
G01*
X5083556Y-10052050D01*
X5156200Y-9943084D02*
G01*
X5156200Y-10052050D01*
X5083556Y-9994900D02*
G01*
X5156200Y-9994900D01*
X5221731Y-9943084D02*
G01*
X5211318Y-9948163D01*
X5200904Y-9958578D01*
X5195824Y-9968992D01*
X5190490Y-9984739D01*
X5190490Y-10010647D01*
X5195824Y-10026142D01*
X5200904Y-10036555D01*
X5211318Y-10046970D01*
X5221731Y-10052050D01*
X5242559Y-10052050D01*
X5252974Y-10046970D01*
X5263388Y-10036555D01*
X5268468Y-10026142D01*
X5273802Y-10010647D01*
X5273802Y-9984739D01*
X5268468Y-9968992D01*
X5263388Y-9958578D01*
X5252974Y-9948163D01*
X5242559Y-9943084D01*
X5221731Y-9943084D01*
X5349493Y-9943084D02*
G01*
X5308091Y-10052050D01*
X5349493Y-9943084D02*
G01*
X5391150Y-10052050D01*
X5323586Y-10015728D02*
G01*
X5375656Y-10015728D01*
X2299970Y-10501884D02*
G01*
X2299970Y-10584942D01*
X2294636Y-10600689D01*
X2289556Y-10605770D01*
X2279141Y-10610850D01*
X2268727Y-10610850D01*
X2258313Y-10605770D01*
X2252979Y-10600689D01*
X2247900Y-10584942D01*
X2247900Y-10574528D01*
X2334259Y-10647426D02*
G01*
X2427731Y-10647426D01*
X2462022Y-10501884D02*
G01*
X2462022Y-10610850D01*
X2462022Y-10501884D02*
G01*
X2534665Y-10610850D01*
X2534665Y-10501884D02*
G01*
X2534665Y-10610850D01*
X2646934Y-10527792D02*
G01*
X2641600Y-10517378D01*
X2631440Y-10506963D01*
X2621025Y-10501884D01*
X2600197Y-10501884D01*
X2589784Y-10506963D01*
X2579370Y-10517378D01*
X2574290Y-10527792D01*
X2568956Y-10543539D01*
X2568956Y-10569447D01*
X2574290Y-10584942D01*
X2579370Y-10595355D01*
X2589784Y-10605770D01*
X2600197Y-10610850D01*
X2621025Y-10610850D01*
X2631440Y-10605770D01*
X2641600Y-10595355D01*
X2646934Y-10584942D01*
X2646934Y-10569447D01*
X2621025Y-10569447D02*
G01*
X2646934Y-10569447D01*
X2681224Y-10501884D02*
G01*
X2681224Y-10579862D01*
X2686304Y-10595355D01*
X2696718Y-10605770D01*
X2712465Y-10610850D01*
X2722879Y-10610850D01*
X2738374Y-10605770D01*
X2748788Y-10595355D01*
X2753868Y-10579862D01*
X2753868Y-10501884D01*
X2819400Y-10501884D02*
G01*
X2808986Y-10506963D01*
X2798572Y-10517378D01*
X2793491Y-10527792D01*
X2788158Y-10543539D01*
X2788158Y-10569447D01*
X2793491Y-10584942D01*
X2798572Y-10595355D01*
X2808986Y-10605770D01*
X2819400Y-10610850D01*
X2840227Y-10610850D01*
X2850641Y-10605770D01*
X2861056Y-10595355D01*
X2866136Y-10584942D01*
X2871470Y-10569447D01*
X2871470Y-10543539D01*
X2866136Y-10527792D01*
X2861056Y-10517378D01*
X2850641Y-10506963D01*
X2840227Y-10501884D01*
X2819400Y-10501884D01*
X2905759Y-10501884D02*
G01*
X2905759Y-10610850D01*
X2905759Y-10501884D02*
G01*
X2978404Y-10610850D01*
X2978404Y-10501884D02*
G01*
X2978404Y-10610850D01*
X5995415Y-5130800D02*
G01*
X5886450Y-5130800D01*
X5995415Y-5130800D02*
G01*
X5995415Y-5177536D01*
X5990336Y-5193029D01*
X5985002Y-5198363D01*
X5974588Y-5203444D01*
X5959093Y-5203444D01*
X5948679Y-5198363D01*
X5943600Y-5193029D01*
X5938265Y-5177536D01*
X5938265Y-5130800D01*
X5974588Y-5237734D02*
G01*
X5979922Y-5248147D01*
X5995415Y-5263895D01*
X5886450Y-5263895D01*
X628142Y-6348984D02*
G01*
X617728Y-6354063D01*
X607313Y-6364478D01*
X601979Y-6374892D01*
X596900Y-6390639D01*
X596900Y-6416547D01*
X601979Y-6432042D01*
X607313Y-6442455D01*
X617728Y-6452870D01*
X628142Y-6457950D01*
X648970Y-6457950D01*
X659129Y-6452870D01*
X669544Y-6442455D01*
X674878Y-6432042D01*
X679957Y-6416547D01*
X679957Y-6390639D01*
X674878Y-6374892D01*
X669544Y-6364478D01*
X659129Y-6354063D01*
X648970Y-6348984D01*
X628142Y-6348984D01*
X643636Y-6437376D02*
G01*
X674878Y-6468363D01*
X714247Y-6369812D02*
G01*
X724662Y-6364478D01*
X740410Y-6348984D01*
X740410Y-6457950D01*
X1193800Y-4545584D02*
G01*
X1193800Y-4654550D01*
X1193800Y-4545584D02*
G01*
X1240536Y-4545584D01*
X1256029Y-4550663D01*
X1261363Y-4555997D01*
X1266444Y-4566412D01*
X1266444Y-4576826D01*
X1261363Y-4587239D01*
X1256029Y-4592320D01*
X1240536Y-4597400D01*
X1193800Y-4597400D01*
X1230121Y-4597400D02*
G01*
X1266444Y-4654550D01*
X1300734Y-4566412D02*
G01*
X1311147Y-4561078D01*
X1326895Y-4545584D01*
X1326895Y-4654550D01*
X2641600Y-5663184D02*
G01*
X2641600Y-5772150D01*
X2641600Y-5663184D02*
G01*
X2688336Y-5663184D01*
X2703829Y-5668263D01*
X2709163Y-5673597D01*
X2714243Y-5684012D01*
X2714243Y-5694426D01*
X2709163Y-5704839D01*
X2703829Y-5709920D01*
X2688336Y-5715000D01*
X2641600Y-5715000D01*
X2677922Y-5715000D02*
G01*
X2714243Y-5772150D01*
X2748534Y-5663184D02*
G01*
X2748534Y-5772150D01*
X2748534Y-5772150D02*
G01*
X2811018Y-5772150D01*
X2845308Y-5663184D02*
G01*
X2886709Y-5715000D01*
X2886709Y-5772150D01*
X2928365Y-5663184D02*
G01*
X2886709Y-5715000D01*
X2962656Y-5684012D02*
G01*
X2973070Y-5678678D01*
X2988563Y-5663184D01*
X2988563Y-5772150D01*
X5791200Y-8711184D02*
G01*
X5791200Y-8789162D01*
X5796279Y-8804655D01*
X5806693Y-8815070D01*
X5822441Y-8820150D01*
X5832856Y-8820150D01*
X5848350Y-8815070D01*
X5858763Y-8804655D01*
X5863843Y-8789162D01*
X5863843Y-8711184D01*
X5898134Y-8732012D02*
G01*
X5908547Y-8726678D01*
X5924295Y-8711184D01*
X5924295Y-8820150D01*
X2438400Y-75184D02*
G01*
X2438400Y-153162D01*
X2443479Y-168655D01*
X2453893Y-179070D01*
X2469641Y-184150D01*
X2480056Y-184150D01*
X2495550Y-179070D01*
X2505963Y-168655D01*
X2511043Y-153162D01*
X2511043Y-75184D01*
X2550668Y-101092D02*
G01*
X2550668Y-96012D01*
X2555747Y-85597D01*
X2561081Y-80263D01*
X2571495Y-75184D01*
X2592070Y-75184D01*
X2602484Y-80263D01*
X2607818Y-85597D01*
X2612897Y-96012D01*
X2612897Y-106426D01*
X2607818Y-116839D01*
X2597404Y-132334D01*
X2545334Y-184150D01*
X2618231Y-184150D01*
D11*
X2844802Y-3061721D02*
G01*
X2844802Y-3204977D01*
X2844802Y-3061721D02*
G01*
X2933448Y-3061721D01*
X2844802Y-3129793D02*
G01*
X2899412Y-3129793D01*
X2844802Y-3204977D02*
G01*
X2933448Y-3204977D01*
X3073910Y-3082295D02*
G01*
X3060194Y-3068579D01*
X3039874Y-3061721D01*
X3012442Y-3061721D01*
X2992122Y-3068579D01*
X2978406Y-3082295D01*
X2978406Y-3095757D01*
X2985264Y-3109473D01*
X2992122Y-3116331D01*
X3005584Y-3123189D01*
X3046732Y-3136651D01*
X3060194Y-3143509D01*
X3067052Y-3150367D01*
X3073910Y-3164083D01*
X3073910Y-3184403D01*
X3060194Y-3198119D01*
X3039874Y-3204977D01*
X3012442Y-3204977D01*
X2992122Y-3198119D01*
X2978406Y-3184403D01*
X3118868Y-3061721D02*
G01*
X3118868Y-3204977D01*
X3118868Y-3061721D02*
G01*
X3180336Y-3061721D01*
X3200656Y-3068579D01*
X3207514Y-3075437D01*
X3214372Y-3088899D01*
X3214372Y-3109473D01*
X3207514Y-3123189D01*
X3200656Y-3129793D01*
X3180336Y-3136651D01*
X3118868Y-3136651D01*
X3273046Y-3061721D02*
G01*
X3347976Y-3061721D01*
X3307082Y-3116331D01*
X3327402Y-3116331D01*
X3341118Y-3123189D01*
X3347976Y-3129793D01*
X3354834Y-3150367D01*
X3354834Y-3164083D01*
X3347976Y-3184403D01*
X3334260Y-3198119D01*
X3313940Y-3204977D01*
X3293366Y-3204977D01*
X3273046Y-3198119D01*
X3266188Y-3191261D01*
X3259330Y-3177545D01*
X3406650Y-3095757D02*
G01*
X3406650Y-3088899D01*
X3413508Y-3075437D01*
X3420366Y-3068579D01*
X3433828Y-3061721D01*
X3461260Y-3061721D01*
X3474722Y-3068579D01*
X3481580Y-3075437D01*
X3488438Y-3088899D01*
X3488438Y-3102615D01*
X3481580Y-3116331D01*
X3467864Y-3136651D01*
X3399792Y-3204977D01*
X3495296Y-3204977D01*
X3540254Y-3143509D02*
G01*
X3662936Y-3143509D01*
X3803398Y-3082295D02*
G01*
X3789682Y-3068579D01*
X3769362Y-3061721D01*
X3742184Y-3061721D01*
X3721610Y-3068579D01*
X3707894Y-3082295D01*
X3707894Y-3095757D01*
X3714752Y-3109473D01*
X3721610Y-3116331D01*
X3735326Y-3123189D01*
X3776220Y-3136651D01*
X3789682Y-3143509D01*
X3796540Y-3150367D01*
X3803398Y-3164083D01*
X3803398Y-3184403D01*
X3789682Y-3198119D01*
X3769362Y-3204977D01*
X3742184Y-3204977D01*
X3721610Y-3198119D01*
X3707894Y-3184403D01*
X3862072Y-3061721D02*
G01*
X3937002Y-3061721D01*
X3896108Y-3116331D01*
X3916682Y-3116331D01*
X3930144Y-3123189D01*
X3937002Y-3129793D01*
X3943860Y-3150367D01*
X3943860Y-3164083D01*
X3937002Y-3184403D01*
X3923540Y-3198119D01*
X3902966Y-3204977D01*
X3882646Y-3204977D01*
X3862072Y-3198119D01*
X3855214Y-3191261D01*
X3848356Y-3177545D01*
X3988818Y-3143509D02*
G01*
X4111500Y-3143509D01*
X4258820Y-3095757D02*
G01*
X4251962Y-3082295D01*
X4238500Y-3068579D01*
X4224784Y-3061721D01*
X4197606Y-3061721D01*
X4183890Y-3068579D01*
X4170174Y-3082295D01*
X4163316Y-3095757D01*
X4156712Y-3116331D01*
X4156712Y-3150367D01*
X4163316Y-3170941D01*
X4170174Y-3184403D01*
X4183890Y-3198119D01*
X4197606Y-3204977D01*
X4224784Y-3204977D01*
X4238500Y-3198119D01*
X4251962Y-3184403D01*
X4258820Y-3170941D01*
X4385820Y-3109473D02*
G01*
X4385820Y-3204977D01*
X4385820Y-3129793D02*
G01*
X4372104Y-3116331D01*
X4358388Y-3109473D01*
X4338068Y-3109473D01*
X4324352Y-3116331D01*
X4310636Y-3129793D01*
X4303778Y-3150367D01*
X4303778Y-3164083D01*
X4310636Y-3184403D01*
X4324352Y-3198119D01*
X4338068Y-3204977D01*
X4358388Y-3204977D01*
X4372104Y-3198119D01*
X4385820Y-3184403D01*
X4430778Y-3109473D02*
G01*
X4430778Y-3204977D01*
X4430778Y-3136651D02*
G01*
X4451098Y-3116331D01*
X4464814Y-3109473D01*
X4485134Y-3109473D01*
X4498850Y-3116331D01*
X4505708Y-3136651D01*
X4505708Y-3204977D01*
X4505708Y-3136651D02*
G01*
X4526282Y-3116331D01*
X4539744Y-3109473D01*
X4560318Y-3109473D01*
X4573780Y-3116331D01*
X4580638Y-3136651D01*
X4580638Y-3204977D01*
X3328161Y-2702057D02*
G01*
X3321304Y-2688595D01*
X3307588Y-2674879D01*
X3293872Y-2668021D01*
X3266693Y-2668021D01*
X3252977Y-2674879D01*
X3239515Y-2688595D01*
X3232658Y-2702057D01*
X3225800Y-2722631D01*
X3225800Y-2756667D01*
X3232658Y-2777241D01*
X3239515Y-2790703D01*
X3252977Y-2804419D01*
X3266693Y-2811277D01*
X3293872Y-2811277D01*
X3307588Y-2804419D01*
X3321304Y-2790703D01*
X3328161Y-2777241D01*
X3328161Y-2756667D01*
X3293872Y-2756667D02*
G01*
X3328161Y-2756667D01*
X3407156Y-2715773D02*
G01*
X3393440Y-2722631D01*
X3379977Y-2736093D01*
X3373120Y-2756667D01*
X3373120Y-2770383D01*
X3379977Y-2790703D01*
X3393440Y-2804419D01*
X3407156Y-2811277D01*
X3427729Y-2811277D01*
X3441191Y-2804419D01*
X3454908Y-2790703D01*
X3461765Y-2770383D01*
X3461765Y-2756667D01*
X3454908Y-2736093D01*
X3441191Y-2722631D01*
X3427729Y-2715773D01*
X3407156Y-2715773D01*
X3540759Y-2715773D02*
G01*
X3527043Y-2722631D01*
X3513581Y-2736093D01*
X3506724Y-2756667D01*
X3506724Y-2770383D01*
X3513581Y-2790703D01*
X3527043Y-2804419D01*
X3540759Y-2811277D01*
X3561334Y-2811277D01*
X3574795Y-2804419D01*
X3588511Y-2790703D01*
X3595370Y-2770383D01*
X3595370Y-2756667D01*
X3588511Y-2736093D01*
X3574795Y-2722631D01*
X3561334Y-2715773D01*
X3540759Y-2715773D01*
X3640327Y-2715773D02*
G01*
X3640327Y-2783845D01*
X3647186Y-2804419D01*
X3660902Y-2811277D01*
X3681222Y-2811277D01*
X3694938Y-2804419D01*
X3715258Y-2783845D01*
X3715258Y-2715773D02*
G01*
X3715258Y-2811277D01*
X3760470Y-2715773D02*
G01*
X3760470Y-2783845D01*
X3767074Y-2804419D01*
X3780790Y-2811277D01*
X3801363Y-2811277D01*
X3814825Y-2804419D01*
X3835400Y-2783845D01*
X3835400Y-2715773D02*
G01*
X3835400Y-2811277D01*
X3880358Y-2715773D02*
G01*
X3880358Y-2783845D01*
X3887215Y-2804419D01*
X3900677Y-2811277D01*
X3921252Y-2811277D01*
X3934968Y-2804419D01*
X3955288Y-2783845D01*
X3955288Y-2715773D02*
G01*
X3955288Y-2811277D01*
X2857502Y-1507238D02*
G01*
X2857502Y-1631190D01*
X2857502Y-1507238D02*
G01*
X2934210Y-1507238D01*
X2857502Y-1566166D02*
G01*
X2904746Y-1566166D01*
X2857502Y-1631190D02*
G01*
X2934210Y-1631190D01*
X3056130Y-1524764D02*
G01*
X3044192Y-1513080D01*
X3026412Y-1507238D01*
X3002790Y-1507238D01*
X2985264Y-1513080D01*
X2973326Y-1524764D01*
X2973326Y-1536702D01*
X2979168Y-1548386D01*
X2985264Y-1554482D01*
X2996948Y-1560324D01*
X3032508Y-1572008D01*
X3044192Y-1578104D01*
X3050034Y-1583946D01*
X3056130Y-1595630D01*
X3056130Y-1613410D01*
X3044192Y-1625348D01*
X3026412Y-1631190D01*
X3002790Y-1631190D01*
X2985264Y-1625348D01*
X2973326Y-1613410D01*
X3094992Y-1507238D02*
G01*
X3094992Y-1631190D01*
X3094992Y-1507238D02*
G01*
X3148332Y-1507238D01*
X3165858Y-1513080D01*
X3171954Y-1518922D01*
X3177796Y-1530860D01*
X3177796Y-1548386D01*
X3171954Y-1560324D01*
X3165858Y-1566166D01*
X3148332Y-1572008D01*
X3094992Y-1572008D01*
X3228596Y-1507238D02*
G01*
X3293620Y-1507238D01*
X3258060Y-1554482D01*
X3275840Y-1554482D01*
X3287778Y-1560324D01*
X3293620Y-1566166D01*
X3299462Y-1583946D01*
X3299462Y-1595630D01*
X3293620Y-1613410D01*
X3281682Y-1625348D01*
X3264156Y-1631190D01*
X3246376Y-1631190D01*
X3228596Y-1625348D01*
X3222754Y-1619506D01*
X3216658Y-1607568D01*
X3344420Y-1536702D02*
G01*
X3344420Y-1530860D01*
X3350262Y-1518922D01*
X3356104Y-1513080D01*
X3368042Y-1507238D01*
X3391664Y-1507238D01*
X3403602Y-1513080D01*
X3409444Y-1518922D01*
X3415286Y-1530860D01*
X3415286Y-1542544D01*
X3409444Y-1554482D01*
X3397506Y-1572008D01*
X3338578Y-1631190D01*
X3421128Y-1631190D01*
X3460244Y-1578104D02*
G01*
X3566670Y-1578104D01*
X3688336Y-1524764D02*
G01*
X3676398Y-1513080D01*
X3658872Y-1507238D01*
X3635250Y-1507238D01*
X3617470Y-1513080D01*
X3605532Y-1524764D01*
X3605532Y-1536702D01*
X3611374Y-1548386D01*
X3617470Y-1554482D01*
X3629154Y-1560324D01*
X3664714Y-1572008D01*
X3676398Y-1578104D01*
X3682494Y-1583946D01*
X3688336Y-1595630D01*
X3688336Y-1613410D01*
X3676398Y-1625348D01*
X3658872Y-1631190D01*
X3635250Y-1631190D01*
X3617470Y-1625348D01*
X3605532Y-1613410D01*
X3739136Y-1507238D02*
G01*
X3804160Y-1507238D01*
X3768600Y-1554482D01*
X3786380Y-1554482D01*
X3798318Y-1560324D01*
X3804160Y-1566166D01*
X3810002Y-1583946D01*
X3810002Y-1595630D01*
X3804160Y-1613410D01*
X3792222Y-1625348D01*
X3774696Y-1631190D01*
X3756916Y-1631190D01*
X3739136Y-1625348D01*
X3733294Y-1619506D01*
X3727198Y-1607568D01*
X3849118Y-1578104D02*
G01*
X3955290Y-1578104D01*
X3994406Y-1507238D02*
G01*
X3994406Y-1631190D01*
X3994406Y-1507238D02*
G01*
X4077210Y-1631190D01*
X4077210Y-1507238D02*
G01*
X4077210Y-1631190D01*
X4116072Y-1530860D02*
G01*
X4128010Y-1524764D01*
X4145790Y-1507238D01*
X4145790Y-1631190D01*
X4255518Y-1524764D02*
G01*
X4249676Y-1513080D01*
X4231896Y-1507238D01*
X4220212Y-1507238D01*
X4202432Y-1513080D01*
X4190494Y-1530860D01*
X4184652Y-1560324D01*
X4184652Y-1589788D01*
X4190494Y-1613410D01*
X4202432Y-1625348D01*
X4220212Y-1631190D01*
X4226054Y-1631190D01*
X4243834Y-1625348D01*
X4255518Y-1613410D01*
X4261614Y-1595630D01*
X4261614Y-1589788D01*
X4255518Y-1572008D01*
X4243834Y-1560324D01*
X4226054Y-1554482D01*
X4220212Y-1554482D01*
X4202432Y-1560324D01*
X4190494Y-1572008D01*
X4184652Y-1589788D01*
X4300476Y-1507238D02*
G01*
X4300476Y-1631190D01*
X4300476Y-1507238D02*
G01*
X4353562Y-1507238D01*
X4371342Y-1513080D01*
X4377438Y-1518922D01*
X4383280Y-1530860D01*
X4383280Y-1542544D01*
X4377438Y-1554482D01*
X4371342Y-1560324D01*
X4353562Y-1566166D01*
X4300476Y-1566166D01*
X4341878Y-1566166D02*
G01*
X4383280Y-1631190D01*
X4451860Y-1507238D02*
G01*
X4434080Y-1513080D01*
X4428238Y-1524764D01*
X4428238Y-1536702D01*
X4434080Y-1548386D01*
X4445764Y-1554482D01*
X4469386Y-1560324D01*
X4487166Y-1566166D01*
X4499104Y-1578104D01*
X4504946Y-1589788D01*
X4504946Y-1607568D01*
X4499104Y-1619506D01*
X4493262Y-1625348D01*
X4475482Y-1631190D01*
X4451860Y-1631190D01*
X4434080Y-1625348D01*
X4428238Y-1619506D01*
X4422142Y-1607568D01*
X4422142Y-1589788D01*
X4428238Y-1578104D01*
X4439922Y-1566166D01*
X4457702Y-1560324D01*
X4481324Y-1554482D01*
X4493262Y-1548386D01*
X4499104Y-1536702D01*
X4499104Y-1524764D01*
X4493262Y-1513080D01*
X4475482Y-1507238D01*
X4451860Y-1507238D01*
D12*
X1952500Y-340367D02*
G01*
X2004062Y-340367D01*
X1975868Y-377959D01*
X1990092Y-377959D01*
X1999490Y-382531D01*
X2004062Y-387357D01*
X2008888Y-401327D01*
X2008888Y-410725D01*
X2004062Y-424693D01*
X1994664Y-434093D01*
X1980694Y-438919D01*
X1966470Y-438919D01*
X1952500Y-434093D01*
X1947674Y-429519D01*
X1943102Y-420123D01*
X2039622Y-340367D02*
G01*
X2077214Y-438919D01*
X2114806Y-340367D02*
G01*
X2077214Y-438919D01*
X2155192Y-340367D02*
G01*
X2206754Y-340367D01*
X2178560Y-377959D01*
X2192784Y-377959D01*
X2201928Y-382531D01*
X2206754Y-387357D01*
X2211326Y-401327D01*
X2211326Y-410725D01*
X2206754Y-424693D01*
X2197356Y-434093D01*
X2183386Y-438919D01*
X2169162Y-438919D01*
X2155192Y-434093D01*
X2150366Y-429519D01*
X2145794Y-420123D01*
X1714505Y-619765D02*
G01*
X1714505Y-718317D01*
X1714505Y-619765D02*
G01*
X1775465Y-619765D01*
X1714505Y-666755D02*
G01*
X1752097Y-666755D01*
X1714505Y-718317D02*
G01*
X1775465Y-718317D01*
X1806453Y-619765D02*
G01*
X1806453Y-718317D01*
X1806453Y-619765D02*
G01*
X1872239Y-718317D01*
X1872239Y-619765D02*
G01*
X1872239Y-718317D01*
X1987555Y-600969D02*
G01*
X1902973Y-751083D01*
X2018543Y-619765D02*
G01*
X2018543Y-718317D01*
X2018543Y-619765D02*
G01*
X2060707Y-619765D01*
X2074677Y-624337D01*
X2079503Y-629163D01*
X2084075Y-638561D01*
X2084075Y-647959D01*
X2079503Y-657357D01*
X2074677Y-661929D01*
X2060707Y-666755D01*
X2018543Y-666755D01*
X2051309Y-666755D02*
G01*
X2084075Y-718317D01*
X2180849Y-633735D02*
G01*
X2171451Y-624337D01*
X2157227Y-619765D01*
X2138685Y-619765D01*
X2124461Y-624337D01*
X2115063Y-633735D01*
X2115063Y-643133D01*
X2119889Y-652531D01*
X2124461Y-657357D01*
X2133859Y-661929D01*
X2162053Y-671327D01*
X2171451Y-676153D01*
X2176023Y-680725D01*
X2180849Y-690123D01*
X2180849Y-704093D01*
X2171451Y-713491D01*
X2157227Y-718317D01*
X2138685Y-718317D01*
X2124461Y-713491D01*
X2115063Y-704093D01*
X2244603Y-619765D02*
G01*
X2244603Y-718317D01*
X2211837Y-619765D02*
G01*
X2277369Y-619765D01*
X2013460Y-884433D02*
G01*
X2008888Y-875035D01*
X1999490Y-865637D01*
X1990092Y-861065D01*
X1971296Y-861065D01*
X1961898Y-865637D01*
X1952500Y-875035D01*
X1947674Y-884433D01*
X1943102Y-898657D01*
X1943102Y-922025D01*
X1947674Y-935995D01*
X1952500Y-945393D01*
X1961898Y-954791D01*
X1971296Y-959617D01*
X1990092Y-959617D01*
X1999490Y-954791D01*
X2008888Y-945393D01*
X2013460Y-935995D01*
X2013460Y-922025D01*
X1990092Y-922025D02*
G01*
X2013460Y-922025D01*
X2091438Y-861065D02*
G01*
X2044448Y-926851D01*
X2114806Y-926851D01*
X2091438Y-861065D02*
G01*
X2091438Y-959617D01*
X2000760Y-1125733D02*
G01*
X1996188Y-1116335D01*
X1986790Y-1106937D01*
X1977392Y-1102365D01*
X1958596Y-1102365D01*
X1949198Y-1106937D01*
X1939800Y-1116335D01*
X1934974Y-1125733D01*
X1930402Y-1139957D01*
X1930402Y-1163325D01*
X1934974Y-1177295D01*
X1939800Y-1186693D01*
X1949198Y-1196091D01*
X1958596Y-1200917D01*
X1977392Y-1200917D01*
X1986790Y-1196091D01*
X1996188Y-1186693D01*
X2000760Y-1177295D01*
X2000760Y-1163325D01*
X1977392Y-1163325D02*
G01*
X2000760Y-1163325D01*
X2088136Y-1102365D02*
G01*
X2041146Y-1102365D01*
X2036320Y-1144529D01*
X2041146Y-1139957D01*
X2055116Y-1135131D01*
X2069340Y-1135131D01*
X2083310Y-1139957D01*
X2092708Y-1149355D01*
X2097280Y-1163325D01*
X2097280Y-1172723D01*
X2092708Y-1186693D01*
X2083310Y-1196091D01*
X2069340Y-1200917D01*
X2055116Y-1200917D01*
X2041146Y-1196091D01*
X2036320Y-1191519D01*
X2031748Y-1182121D01*
X2013460Y-1417833D02*
G01*
X2008888Y-1408435D01*
X1999490Y-1399037D01*
X1990092Y-1394465D01*
X1971296Y-1394465D01*
X1961898Y-1399037D01*
X1952500Y-1408435D01*
X1947674Y-1417833D01*
X1943102Y-1432057D01*
X1943102Y-1455425D01*
X1947674Y-1469395D01*
X1952500Y-1478793D01*
X1961898Y-1488191D01*
X1971296Y-1493017D01*
X1990092Y-1493017D01*
X1999490Y-1488191D01*
X2008888Y-1478793D01*
X2013460Y-1469395D01*
X2013460Y-1455425D01*
X1990092Y-1455425D02*
G01*
X2013460Y-1455425D01*
X2100836Y-1408435D02*
G01*
X2096010Y-1399037D01*
X2082040Y-1394465D01*
X2072642Y-1394465D01*
X2058418Y-1399037D01*
X2049020Y-1413261D01*
X2044448Y-1436629D01*
X2044448Y-1460251D01*
X2049020Y-1478793D01*
X2058418Y-1488191D01*
X2072642Y-1493017D01*
X2077214Y-1493017D01*
X2091438Y-1488191D01*
X2100836Y-1478793D01*
X2105408Y-1464823D01*
X2105408Y-1460251D01*
X2100836Y-1446027D01*
X2091438Y-1436629D01*
X2077214Y-1432057D01*
X2072642Y-1432057D01*
X2058418Y-1436629D01*
X2049020Y-1446027D01*
X2044448Y-1460251D01*
X2013460Y-1646433D02*
G01*
X2008888Y-1637035D01*
X1999490Y-1627637D01*
X1990092Y-1623065D01*
X1971296Y-1623065D01*
X1961898Y-1627637D01*
X1952500Y-1637035D01*
X1947674Y-1646433D01*
X1943102Y-1660657D01*
X1943102Y-1684025D01*
X1947674Y-1697995D01*
X1952500Y-1707393D01*
X1961898Y-1716791D01*
X1971296Y-1721617D01*
X1990092Y-1721617D01*
X1999490Y-1716791D01*
X2008888Y-1707393D01*
X2013460Y-1697995D01*
X2013460Y-1684025D01*
X1990092Y-1684025D02*
G01*
X2013460Y-1684025D01*
X2109980Y-1623065D02*
G01*
X2063244Y-1721617D01*
X2044448Y-1623065D02*
G01*
X2109980Y-1623065D01*
X2013460Y-1900433D02*
G01*
X2008888Y-1891035D01*
X1999490Y-1881637D01*
X1990092Y-1877065D01*
X1971296Y-1877065D01*
X1961898Y-1881637D01*
X1952500Y-1891035D01*
X1947674Y-1900433D01*
X1943102Y-1914657D01*
X1943102Y-1938025D01*
X1947674Y-1951995D01*
X1952500Y-1961393D01*
X1961898Y-1970791D01*
X1971296Y-1975617D01*
X1990092Y-1975617D01*
X1999490Y-1970791D01*
X2008888Y-1961393D01*
X2013460Y-1951995D01*
X2013460Y-1938025D01*
X1990092Y-1938025D02*
G01*
X2013460Y-1938025D01*
X2044448Y-1895861D02*
G01*
X2053846Y-1891035D01*
X2067816Y-1877065D01*
X2067816Y-1975617D01*
X2155192Y-1877065D02*
G01*
X2108202Y-1877065D01*
X2103630Y-1919229D01*
X2108202Y-1914657D01*
X2122172Y-1909831D01*
X2136396Y-1909831D01*
X2150366Y-1914657D01*
X2159764Y-1924055D01*
X2164590Y-1938025D01*
X2164590Y-1947423D01*
X2159764Y-1961393D01*
X2150366Y-1970791D01*
X2136396Y-1975617D01*
X2122172Y-1975617D01*
X2108202Y-1970791D01*
X2103630Y-1966219D01*
X2098804Y-1956821D01*
X2013460Y-2141730D02*
G01*
X2008888Y-2132332D01*
X1999490Y-2122934D01*
X1990092Y-2118362D01*
X1971296Y-2118362D01*
X1961898Y-2122934D01*
X1952500Y-2132332D01*
X1947674Y-2141730D01*
X1943102Y-2155954D01*
X1943102Y-2179322D01*
X1947674Y-2193292D01*
X1952500Y-2202690D01*
X1961898Y-2212088D01*
X1971296Y-2216914D01*
X1990092Y-2216914D01*
X1999490Y-2212088D01*
X2008888Y-2202690D01*
X2013460Y-2193292D01*
X2013460Y-2179322D01*
X1990092Y-2179322D02*
G01*
X2013460Y-2179322D01*
X2044448Y-2137158D02*
G01*
X2053846Y-2132332D01*
X2067816Y-2118362D01*
X2067816Y-2216914D01*
X2155192Y-2132332D02*
G01*
X2150366Y-2122934D01*
X2136396Y-2118362D01*
X2126998Y-2118362D01*
X2113028Y-2122934D01*
X2103630Y-2137158D01*
X2098804Y-2160526D01*
X2098804Y-2184148D01*
X2103630Y-2202690D01*
X2113028Y-2212088D01*
X2126998Y-2216914D01*
X2131570Y-2216914D01*
X2145794Y-2212088D01*
X2155192Y-2202690D01*
X2159764Y-2188720D01*
X2159764Y-2184148D01*
X2155192Y-2169924D01*
X2145794Y-2160526D01*
X2131570Y-2155954D01*
X2126998Y-2155954D01*
X2113028Y-2160526D01*
X2103630Y-2169924D01*
X2098804Y-2184148D01*
X2013460Y-2395733D02*
G01*
X2008888Y-2386335D01*
X1999490Y-2376937D01*
X1990092Y-2372365D01*
X1971296Y-2372365D01*
X1961898Y-2376937D01*
X1952500Y-2386335D01*
X1947674Y-2395733D01*
X1943102Y-2409957D01*
X1943102Y-2433325D01*
X1947674Y-2447295D01*
X1952500Y-2456693D01*
X1961898Y-2466091D01*
X1971296Y-2470917D01*
X1990092Y-2470917D01*
X1999490Y-2466091D01*
X2008888Y-2456693D01*
X2013460Y-2447295D01*
X2013460Y-2433325D01*
X1990092Y-2433325D02*
G01*
X2013460Y-2433325D01*
X2044448Y-2391161D02*
G01*
X2053846Y-2386335D01*
X2067816Y-2372365D01*
X2067816Y-2470917D01*
X2164590Y-2372365D02*
G01*
X2117600Y-2470917D01*
X2098804Y-2372365D02*
G01*
X2164590Y-2372365D01*
X2000760Y-2649733D02*
G01*
X1996188Y-2640335D01*
X1986790Y-2630937D01*
X1977392Y-2626365D01*
X1958596Y-2626365D01*
X1949198Y-2630937D01*
X1939800Y-2640335D01*
X1934974Y-2649733D01*
X1930402Y-2663957D01*
X1930402Y-2687325D01*
X1934974Y-2701295D01*
X1939800Y-2710693D01*
X1949198Y-2720091D01*
X1958596Y-2724917D01*
X1977392Y-2724917D01*
X1986790Y-2720091D01*
X1996188Y-2710693D01*
X2000760Y-2701295D01*
X2000760Y-2687325D01*
X1977392Y-2687325D02*
G01*
X2000760Y-2687325D01*
X2031748Y-2645161D02*
G01*
X2041146Y-2640335D01*
X2055116Y-2626365D01*
X2055116Y-2724917D01*
X2109472Y-2626365D02*
G01*
X2095502Y-2630937D01*
X2090930Y-2640335D01*
X2090930Y-2649733D01*
X2095502Y-2659131D01*
X2104900Y-2663957D01*
X2123696Y-2668529D01*
X2137666Y-2673355D01*
X2147064Y-2682753D01*
X2151890Y-2692151D01*
X2151890Y-2706121D01*
X2147064Y-2715519D01*
X2142492Y-2720091D01*
X2128268Y-2724917D01*
X2109472Y-2724917D01*
X2095502Y-2720091D01*
X2090930Y-2715519D01*
X2086104Y-2706121D01*
X2086104Y-2692151D01*
X2090930Y-2682753D01*
X2100328Y-2673355D01*
X2114298Y-2668529D01*
X2133094Y-2663957D01*
X2142492Y-2659131D01*
X2147064Y-2649733D01*
X2147064Y-2640335D01*
X2142492Y-2630937D01*
X2128268Y-2626365D01*
X2109472Y-2626365D01*
X2000760Y-2916433D02*
G01*
X1996188Y-2907035D01*
X1986790Y-2897637D01*
X1977392Y-2893065D01*
X1958596Y-2893065D01*
X1949198Y-2897637D01*
X1939800Y-2907035D01*
X1934974Y-2916433D01*
X1930402Y-2930657D01*
X1930402Y-2954025D01*
X1934974Y-2967995D01*
X1939800Y-2977393D01*
X1949198Y-2986791D01*
X1958596Y-2991617D01*
X1977392Y-2991617D01*
X1986790Y-2986791D01*
X1996188Y-2977393D01*
X2000760Y-2967995D01*
X2000760Y-2954025D01*
X1977392Y-2954025D02*
G01*
X2000760Y-2954025D01*
X2055116Y-2893065D02*
G01*
X2041146Y-2897637D01*
X2036320Y-2907035D01*
X2036320Y-2916433D01*
X2041146Y-2925831D01*
X2050544Y-2930657D01*
X2069340Y-2935229D01*
X2083310Y-2940055D01*
X2092708Y-2949453D01*
X2097280Y-2958851D01*
X2097280Y-2972821D01*
X2092708Y-2982219D01*
X2088136Y-2986791D01*
X2073912Y-2991617D01*
X2055116Y-2991617D01*
X2041146Y-2986791D01*
X2036320Y-2982219D01*
X2031748Y-2972821D01*
X2031748Y-2958851D01*
X2036320Y-2949453D01*
X2045718Y-2940055D01*
X2059942Y-2935229D01*
X2078738Y-2930657D01*
X2088136Y-2925831D01*
X2092708Y-2916433D01*
X2092708Y-2907035D01*
X2088136Y-2897637D01*
X2073912Y-2893065D01*
X2055116Y-2893065D01*
X2000760Y-3157733D02*
G01*
X1996188Y-3148335D01*
X1986790Y-3138937D01*
X1977392Y-3134365D01*
X1958596Y-3134365D01*
X1949198Y-3138937D01*
X1939800Y-3148335D01*
X1934974Y-3157733D01*
X1930402Y-3171957D01*
X1930402Y-3195325D01*
X1934974Y-3209295D01*
X1939800Y-3218693D01*
X1949198Y-3228091D01*
X1958596Y-3232917D01*
X1977392Y-3232917D01*
X1986790Y-3228091D01*
X1996188Y-3218693D01*
X2000760Y-3209295D01*
X2000760Y-3195325D01*
X1977392Y-3195325D02*
G01*
X2000760Y-3195325D01*
X2041146Y-3134365D02*
G01*
X2092708Y-3134365D01*
X2064514Y-3171957D01*
X2078738Y-3171957D01*
X2088136Y-3176529D01*
X2092708Y-3181355D01*
X2097280Y-3195325D01*
X2097280Y-3204723D01*
X2092708Y-3218693D01*
X2083310Y-3228091D01*
X2069340Y-3232917D01*
X2055116Y-3232917D01*
X2041146Y-3228091D01*
X2036320Y-3223519D01*
X2031748Y-3214121D01*
X2000760Y-3437133D02*
G01*
X1996188Y-3427735D01*
X1986790Y-3418337D01*
X1977392Y-3413765D01*
X1958596Y-3413765D01*
X1949198Y-3418337D01*
X1939800Y-3427735D01*
X1934974Y-3437133D01*
X1930402Y-3451357D01*
X1930402Y-3474725D01*
X1934974Y-3488695D01*
X1939800Y-3498093D01*
X1949198Y-3507491D01*
X1958596Y-3512317D01*
X1977392Y-3512317D01*
X1986790Y-3507491D01*
X1996188Y-3498093D01*
X2000760Y-3488695D01*
X2000760Y-3474725D01*
X1977392Y-3474725D02*
G01*
X2000760Y-3474725D01*
X2078738Y-3413765D02*
G01*
X2031748Y-3479551D01*
X2102106Y-3479551D01*
X2078738Y-3413765D02*
G01*
X2078738Y-3512317D01*
X2189228Y-3427735D02*
G01*
X2184656Y-3418337D01*
X2170686Y-3413765D01*
X2161288Y-3413765D01*
X2147064Y-3418337D01*
X2137666Y-3432561D01*
X2133094Y-3455929D01*
X2133094Y-3479551D01*
X2137666Y-3498093D01*
X2147064Y-3507491D01*
X2161288Y-3512317D01*
X2165860Y-3512317D01*
X2180084Y-3507491D01*
X2189228Y-3498093D01*
X2194054Y-3484123D01*
X2194054Y-3479551D01*
X2189228Y-3465327D01*
X2180084Y-3455929D01*
X2165860Y-3451357D01*
X2161288Y-3451357D01*
X2147064Y-3455929D01*
X2137666Y-3465327D01*
X2133094Y-3479551D01*
X2000760Y-3691130D02*
G01*
X1996188Y-3681732D01*
X1986790Y-3672334D01*
X1977392Y-3667762D01*
X1958596Y-3667762D01*
X1949198Y-3672334D01*
X1939800Y-3681732D01*
X1934974Y-3691130D01*
X1930402Y-3705354D01*
X1930402Y-3728722D01*
X1934974Y-3742692D01*
X1939800Y-3752090D01*
X1949198Y-3761488D01*
X1958596Y-3766314D01*
X1977392Y-3766314D01*
X1986790Y-3761488D01*
X1996188Y-3752090D01*
X2000760Y-3742692D01*
X2000760Y-3728722D01*
X1977392Y-3728722D02*
G01*
X2000760Y-3728722D01*
X2092708Y-3700528D02*
G01*
X2088136Y-3714752D01*
X2078738Y-3724150D01*
X2064514Y-3728722D01*
X2059942Y-3728722D01*
X2045718Y-3724150D01*
X2036320Y-3714752D01*
X2031748Y-3700528D01*
X2031748Y-3695956D01*
X2036320Y-3681732D01*
X2045718Y-3672334D01*
X2059942Y-3667762D01*
X2064514Y-3667762D01*
X2078738Y-3672334D01*
X2088136Y-3681732D01*
X2092708Y-3700528D01*
X2092708Y-3724150D01*
X2088136Y-3747518D01*
X2078738Y-3761488D01*
X2064514Y-3766314D01*
X2055116Y-3766314D01*
X2041146Y-3761488D01*
X2036320Y-3752090D01*
X1988060Y-3932428D02*
G01*
X1983488Y-3923029D01*
X1974090Y-3913631D01*
X1964692Y-3909060D01*
X1945896Y-3909060D01*
X1936498Y-3913631D01*
X1927100Y-3923029D01*
X1922274Y-3932428D01*
X1917702Y-3946652D01*
X1917702Y-3970020D01*
X1922274Y-3983989D01*
X1927100Y-3993387D01*
X1936498Y-4002786D01*
X1945896Y-4007612D01*
X1964692Y-4007612D01*
X1974090Y-4002786D01*
X1983488Y-3993387D01*
X1988060Y-3983989D01*
X1988060Y-3970020D01*
X1964692Y-3970020D02*
G01*
X1988060Y-3970020D01*
X2019048Y-3927855D02*
G01*
X2028446Y-3923029D01*
X2042416Y-3909060D01*
X2042416Y-4007612D01*
X2101598Y-3909060D02*
G01*
X2087628Y-3913631D01*
X2078230Y-3927855D01*
X2073404Y-3951223D01*
X2073404Y-3965447D01*
X2078230Y-3988815D01*
X2087628Y-4002786D01*
X2101598Y-4007612D01*
X2110996Y-4007612D01*
X2124966Y-4002786D01*
X2134364Y-3988815D01*
X2139190Y-3965447D01*
X2139190Y-3951223D01*
X2134364Y-3927855D01*
X2124966Y-3913631D01*
X2110996Y-3909060D01*
X2101598Y-3909060D01*
X2000760Y-4186430D02*
G01*
X1996188Y-4177032D01*
X1986790Y-4167634D01*
X1977392Y-4163062D01*
X1958596Y-4163062D01*
X1949198Y-4167634D01*
X1939800Y-4177032D01*
X1934974Y-4186430D01*
X1930402Y-4200654D01*
X1930402Y-4224022D01*
X1934974Y-4237992D01*
X1939800Y-4247390D01*
X1949198Y-4256788D01*
X1958596Y-4261614D01*
X1977392Y-4261614D01*
X1986790Y-4256788D01*
X1996188Y-4247390D01*
X2000760Y-4237992D01*
X2000760Y-4224022D01*
X1977392Y-4224022D02*
G01*
X2000760Y-4224022D01*
X2031748Y-4181858D02*
G01*
X2041146Y-4177032D01*
X2055116Y-4163062D01*
X2055116Y-4261614D01*
X2086104Y-4181858D02*
G01*
X2095502Y-4177032D01*
X2109472Y-4163062D01*
X2109472Y-4261614D01*
X2000760Y-4440430D02*
G01*
X1996188Y-4431032D01*
X1986790Y-4421634D01*
X1977392Y-4417062D01*
X1958596Y-4417062D01*
X1949198Y-4421634D01*
X1939800Y-4431032D01*
X1934974Y-4440430D01*
X1930402Y-4454654D01*
X1930402Y-4478022D01*
X1934974Y-4491992D01*
X1939800Y-4501390D01*
X1949198Y-4510788D01*
X1958596Y-4515614D01*
X1977392Y-4515614D01*
X1986790Y-4510788D01*
X1996188Y-4501390D01*
X2000760Y-4491992D01*
X2000760Y-4478022D01*
X1977392Y-4478022D02*
G01*
X2000760Y-4478022D01*
X2031748Y-4435858D02*
G01*
X2041146Y-4431032D01*
X2055116Y-4417062D01*
X2055116Y-4515614D01*
X2090930Y-4440430D02*
G01*
X2090930Y-4435858D01*
X2095502Y-4426460D01*
X2100328Y-4421634D01*
X2109472Y-4417062D01*
X2128268Y-4417062D01*
X2137666Y-4421634D01*
X2142492Y-4426460D01*
X2147064Y-4435858D01*
X2147064Y-4445256D01*
X2142492Y-4454654D01*
X2133094Y-4468624D01*
X2086104Y-4515614D01*
X2151890Y-4515614D01*
X2000760Y-4694430D02*
G01*
X1996188Y-4685032D01*
X1986790Y-4675634D01*
X1977392Y-4671062D01*
X1958596Y-4671062D01*
X1949198Y-4675634D01*
X1939800Y-4685032D01*
X1934974Y-4694430D01*
X1930402Y-4708654D01*
X1930402Y-4732022D01*
X1934974Y-4745992D01*
X1939800Y-4755390D01*
X1949198Y-4764788D01*
X1958596Y-4769614D01*
X1977392Y-4769614D01*
X1986790Y-4764788D01*
X1996188Y-4755390D01*
X2000760Y-4745992D01*
X2000760Y-4732022D01*
X1977392Y-4732022D02*
G01*
X2000760Y-4732022D01*
X2031748Y-4689858D02*
G01*
X2041146Y-4685032D01*
X2055116Y-4671062D01*
X2055116Y-4769614D01*
X2095502Y-4671062D02*
G01*
X2147064Y-4671062D01*
X2118870Y-4708654D01*
X2133094Y-4708654D01*
X2142492Y-4713226D01*
X2147064Y-4718052D01*
X2151890Y-4732022D01*
X2151890Y-4741420D01*
X2147064Y-4755390D01*
X2137666Y-4764788D01*
X2123696Y-4769614D01*
X2109472Y-4769614D01*
X2095502Y-4764788D01*
X2090930Y-4760216D01*
X2086104Y-4750818D01*
X2000760Y-4948430D02*
G01*
X1996188Y-4939032D01*
X1986790Y-4929634D01*
X1977392Y-4925062D01*
X1958596Y-4925062D01*
X1949198Y-4929634D01*
X1939800Y-4939032D01*
X1934974Y-4948430D01*
X1930402Y-4962654D01*
X1930402Y-4986022D01*
X1934974Y-4999992D01*
X1939800Y-5009390D01*
X1949198Y-5018788D01*
X1958596Y-5023614D01*
X1977392Y-5023614D01*
X1986790Y-5018788D01*
X1996188Y-5009390D01*
X2000760Y-4999992D01*
X2000760Y-4986022D01*
X1977392Y-4986022D02*
G01*
X2000760Y-4986022D01*
X2031748Y-4943858D02*
G01*
X2041146Y-4939032D01*
X2055116Y-4925062D01*
X2055116Y-5023614D01*
X2133094Y-4925062D02*
G01*
X2086104Y-4990848D01*
X2156462Y-4990848D01*
X2133094Y-4925062D02*
G01*
X2133094Y-5023614D01*
X1986790Y-5166365D02*
G01*
X1939800Y-5166365D01*
X1934974Y-5208529D01*
X1939800Y-5203957D01*
X1953770Y-5199131D01*
X1967994Y-5199131D01*
X1981964Y-5203957D01*
X1991362Y-5213355D01*
X1996188Y-5227325D01*
X1996188Y-5236723D01*
X1991362Y-5250693D01*
X1981964Y-5260091D01*
X1967994Y-5264917D01*
X1953770Y-5264917D01*
X1939800Y-5260091D01*
X1934974Y-5255519D01*
X1930402Y-5246121D01*
X2026922Y-5199131D02*
G01*
X2055116Y-5264917D01*
X2083310Y-5199131D02*
G01*
X2055116Y-5264917D01*
X5188968Y-353065D02*
G01*
X5188968Y-451617D01*
X5156202Y-353065D02*
G01*
X5221988Y-353065D01*
X5252722Y-353065D02*
G01*
X5318508Y-451617D01*
X5318508Y-353065D02*
G01*
X5252722Y-451617D01*
X5349496Y-353065D02*
G01*
X5349496Y-451617D01*
X5349496Y-353065D02*
G01*
X5382262Y-353065D01*
X5396486Y-357637D01*
X5405630Y-367035D01*
X5410456Y-376433D01*
X5415028Y-390657D01*
X5415028Y-414025D01*
X5410456Y-427995D01*
X5405630Y-437393D01*
X5396486Y-446791D01*
X5382262Y-451617D01*
X5349496Y-451617D01*
X5530598Y-334269D02*
G01*
X5446016Y-484383D01*
X5631944Y-376433D02*
G01*
X5627118Y-367035D01*
X5617720Y-357637D01*
X5608322Y-353065D01*
X5589526Y-353065D01*
X5580382Y-357637D01*
X5570984Y-367035D01*
X5566158Y-376433D01*
X5561586Y-390657D01*
X5561586Y-414025D01*
X5566158Y-427995D01*
X5570984Y-437393D01*
X5580382Y-446791D01*
X5589526Y-451617D01*
X5608322Y-451617D01*
X5617720Y-446791D01*
X5627118Y-437393D01*
X5631944Y-427995D01*
X5631944Y-414025D01*
X5608322Y-414025D02*
G01*
X5631944Y-414025D01*
X5709668Y-353065D02*
G01*
X5662932Y-418851D01*
X5733290Y-418851D01*
X5709668Y-353065D02*
G01*
X5709668Y-451617D01*
X5773422Y-353065D02*
G01*
X5825238Y-353065D01*
X5797044Y-390657D01*
X5811014Y-390657D01*
X5820412Y-395229D01*
X5825238Y-400055D01*
X5829810Y-414025D01*
X5829810Y-423423D01*
X5825238Y-437393D01*
X5815840Y-446791D01*
X5801616Y-451617D01*
X5787646Y-451617D01*
X5773422Y-446791D01*
X5768850Y-442219D01*
X5764024Y-432821D01*
X5168902Y-594365D02*
G01*
X5168902Y-692917D01*
X5168902Y-594365D02*
G01*
X5211066Y-594365D01*
X5225290Y-598937D01*
X5229862Y-603763D01*
X5234688Y-613161D01*
X5234688Y-622559D01*
X5229862Y-631957D01*
X5225290Y-636529D01*
X5211066Y-641355D01*
X5168902Y-641355D01*
X5201668Y-641355D02*
G01*
X5234688Y-692917D01*
X5265422Y-594365D02*
G01*
X5331208Y-692917D01*
X5331208Y-594365D02*
G01*
X5265422Y-692917D01*
X5362196Y-594365D02*
G01*
X5362196Y-692917D01*
X5362196Y-594365D02*
G01*
X5394962Y-594365D01*
X5409186Y-598937D01*
X5418330Y-608335D01*
X5423156Y-617733D01*
X5427728Y-631957D01*
X5427728Y-655325D01*
X5423156Y-669295D01*
X5418330Y-678693D01*
X5409186Y-688091D01*
X5394962Y-692917D01*
X5362196Y-692917D01*
X5543298Y-575569D02*
G01*
X5458716Y-725683D01*
X5644644Y-617733D02*
G01*
X5639818Y-608335D01*
X5630420Y-598937D01*
X5621022Y-594365D01*
X5602226Y-594365D01*
X5593082Y-598937D01*
X5583684Y-608335D01*
X5578858Y-617733D01*
X5574286Y-631957D01*
X5574286Y-655325D01*
X5578858Y-669295D01*
X5583684Y-678693D01*
X5593082Y-688091D01*
X5602226Y-692917D01*
X5621022Y-692917D01*
X5630420Y-688091D01*
X5639818Y-678693D01*
X5644644Y-669295D01*
X5644644Y-655325D01*
X5621022Y-655325D02*
G01*
X5644644Y-655325D01*
X5722368Y-594365D02*
G01*
X5675632Y-660151D01*
X5745990Y-660151D01*
X5722368Y-594365D02*
G01*
X5722368Y-692917D01*
X5823714Y-594365D02*
G01*
X5776724Y-660151D01*
X5847082Y-660151D01*
X5823714Y-594365D02*
G01*
X5823714Y-692917D01*
X5239260Y-871733D02*
G01*
X5234688Y-862335D01*
X5225290Y-852937D01*
X5215892Y-848365D01*
X5197096Y-848365D01*
X5187698Y-852937D01*
X5178300Y-862335D01*
X5173474Y-871733D01*
X5168902Y-885957D01*
X5168902Y-909325D01*
X5173474Y-923295D01*
X5178300Y-932693D01*
X5187698Y-942091D01*
X5197096Y-946917D01*
X5215892Y-946917D01*
X5225290Y-942091D01*
X5234688Y-932693D01*
X5239260Y-923295D01*
X5239260Y-909325D01*
X5215892Y-909325D02*
G01*
X5239260Y-909325D01*
X5270248Y-867161D02*
G01*
X5279646Y-862335D01*
X5293616Y-848365D01*
X5293616Y-946917D01*
X5239260Y-1113033D02*
G01*
X5234688Y-1103635D01*
X5225290Y-1094237D01*
X5215892Y-1089665D01*
X5197096Y-1089665D01*
X5187698Y-1094237D01*
X5178300Y-1103635D01*
X5173474Y-1113033D01*
X5168902Y-1127257D01*
X5168902Y-1150625D01*
X5173474Y-1164595D01*
X5178300Y-1173993D01*
X5187698Y-1183391D01*
X5197096Y-1188217D01*
X5215892Y-1188217D01*
X5225290Y-1183391D01*
X5234688Y-1173993D01*
X5239260Y-1164595D01*
X5239260Y-1150625D01*
X5215892Y-1150625D02*
G01*
X5239260Y-1150625D01*
X5274820Y-1113033D02*
G01*
X5274820Y-1108461D01*
X5279646Y-1099063D01*
X5284218Y-1094237D01*
X5293616Y-1089665D01*
X5312412Y-1089665D01*
X5321810Y-1094237D01*
X5326636Y-1099063D01*
X5331208Y-1108461D01*
X5331208Y-1117859D01*
X5326636Y-1127257D01*
X5317238Y-1141227D01*
X5270248Y-1188217D01*
X5335780Y-1188217D01*
X5451350Y-1070869D02*
G01*
X5366768Y-1220983D01*
X5482338Y-1089665D02*
G01*
X5482338Y-1188217D01*
X5482338Y-1188217D02*
G01*
X5538472Y-1188217D01*
X5569460Y-1150625D02*
G01*
X5625848Y-1150625D01*
X5625848Y-1141227D01*
X5621022Y-1131829D01*
X5616450Y-1127257D01*
X5607052Y-1122431D01*
X5593082Y-1122431D01*
X5583684Y-1127257D01*
X5574286Y-1136655D01*
X5569460Y-1150625D01*
X5569460Y-1160023D01*
X5574286Y-1173993D01*
X5583684Y-1183391D01*
X5593082Y-1188217D01*
X5607052Y-1188217D01*
X5616450Y-1183391D01*
X5625848Y-1173993D01*
X5712970Y-1089665D02*
G01*
X5712970Y-1188217D01*
X5712970Y-1136655D02*
G01*
X5703572Y-1127257D01*
X5694174Y-1122431D01*
X5680204Y-1122431D01*
X5670806Y-1127257D01*
X5661408Y-1136655D01*
X5656836Y-1150625D01*
X5656836Y-1160023D01*
X5661408Y-1173993D01*
X5670806Y-1183391D01*
X5680204Y-1188217D01*
X5694174Y-1188217D01*
X5703572Y-1183391D01*
X5712970Y-1173993D01*
X5239260Y-1392433D02*
G01*
X5234688Y-1383035D01*
X5225290Y-1373637D01*
X5215892Y-1369065D01*
X5197096Y-1369065D01*
X5187698Y-1373637D01*
X5178300Y-1383035D01*
X5173474Y-1392433D01*
X5168902Y-1406657D01*
X5168902Y-1430025D01*
X5173474Y-1443995D01*
X5178300Y-1453393D01*
X5187698Y-1462791D01*
X5197096Y-1467617D01*
X5215892Y-1467617D01*
X5225290Y-1462791D01*
X5234688Y-1453393D01*
X5239260Y-1443995D01*
X5239260Y-1430025D01*
X5215892Y-1430025D02*
G01*
X5239260Y-1430025D01*
X5317238Y-1369065D02*
G01*
X5270248Y-1434851D01*
X5340606Y-1434851D01*
X5317238Y-1369065D02*
G01*
X5317238Y-1467617D01*
X5376166Y-1392433D02*
G01*
X5376166Y-1387861D01*
X5380992Y-1378463D01*
X5385564Y-1373637D01*
X5394962Y-1369065D01*
X5413758Y-1369065D01*
X5423156Y-1373637D01*
X5427728Y-1378463D01*
X5432554Y-1387861D01*
X5432554Y-1397259D01*
X5427728Y-1406657D01*
X5418330Y-1420627D01*
X5371594Y-1467617D01*
X5437126Y-1467617D01*
X5239260Y-1621033D02*
G01*
X5234688Y-1611635D01*
X5225290Y-1602237D01*
X5215892Y-1597665D01*
X5197096Y-1597665D01*
X5187698Y-1602237D01*
X5178300Y-1611635D01*
X5173474Y-1621033D01*
X5168902Y-1635257D01*
X5168902Y-1658625D01*
X5173474Y-1672595D01*
X5178300Y-1681993D01*
X5187698Y-1691391D01*
X5197096Y-1696217D01*
X5215892Y-1696217D01*
X5225290Y-1691391D01*
X5234688Y-1681993D01*
X5239260Y-1672595D01*
X5239260Y-1658625D01*
X5215892Y-1658625D02*
G01*
X5239260Y-1658625D01*
X5317238Y-1597665D02*
G01*
X5270248Y-1663451D01*
X5340606Y-1663451D01*
X5317238Y-1597665D02*
G01*
X5317238Y-1696217D01*
X5371594Y-1616461D02*
G01*
X5380992Y-1611635D01*
X5394962Y-1597665D01*
X5394962Y-1696217D01*
X5239260Y-1887733D02*
G01*
X5234688Y-1878335D01*
X5225290Y-1868937D01*
X5215892Y-1864365D01*
X5197096Y-1864365D01*
X5187698Y-1868937D01*
X5178300Y-1878335D01*
X5173474Y-1887733D01*
X5168902Y-1901957D01*
X5168902Y-1925325D01*
X5173474Y-1939295D01*
X5178300Y-1948693D01*
X5187698Y-1958091D01*
X5197096Y-1962917D01*
X5215892Y-1962917D01*
X5225290Y-1958091D01*
X5234688Y-1948693D01*
X5239260Y-1939295D01*
X5239260Y-1925325D01*
X5215892Y-1925325D02*
G01*
X5239260Y-1925325D01*
X5317238Y-1864365D02*
G01*
X5270248Y-1930151D01*
X5340606Y-1930151D01*
X5317238Y-1864365D02*
G01*
X5317238Y-1962917D01*
X5399788Y-1864365D02*
G01*
X5385564Y-1868937D01*
X5376166Y-1883161D01*
X5371594Y-1906529D01*
X5371594Y-1920753D01*
X5376166Y-1944121D01*
X5385564Y-1958091D01*
X5399788Y-1962917D01*
X5409186Y-1962917D01*
X5423156Y-1958091D01*
X5432554Y-1944121D01*
X5437126Y-1920753D01*
X5437126Y-1906529D01*
X5432554Y-1883161D01*
X5423156Y-1868937D01*
X5409186Y-1864365D01*
X5399788Y-1864365D01*
X5239260Y-2129033D02*
G01*
X5234688Y-2119635D01*
X5225290Y-2110237D01*
X5215892Y-2105665D01*
X5197096Y-2105665D01*
X5187698Y-2110237D01*
X5178300Y-2119635D01*
X5173474Y-2129033D01*
X5168902Y-2143257D01*
X5168902Y-2166625D01*
X5173474Y-2180595D01*
X5178300Y-2189993D01*
X5187698Y-2199391D01*
X5197096Y-2204217D01*
X5215892Y-2204217D01*
X5225290Y-2199391D01*
X5234688Y-2189993D01*
X5239260Y-2180595D01*
X5239260Y-2166625D01*
X5215892Y-2166625D02*
G01*
X5239260Y-2166625D01*
X5279646Y-2105665D02*
G01*
X5331208Y-2105665D01*
X5303014Y-2143257D01*
X5317238Y-2143257D01*
X5326636Y-2147829D01*
X5331208Y-2152655D01*
X5335780Y-2166625D01*
X5335780Y-2176023D01*
X5331208Y-2189993D01*
X5321810Y-2199391D01*
X5307840Y-2204217D01*
X5293616Y-2204217D01*
X5279646Y-2199391D01*
X5274820Y-2194819D01*
X5270248Y-2185421D01*
X5427728Y-2138431D02*
G01*
X5423156Y-2152655D01*
X5413758Y-2162053D01*
X5399788Y-2166625D01*
X5394962Y-2166625D01*
X5380992Y-2162053D01*
X5371594Y-2152655D01*
X5366768Y-2138431D01*
X5366768Y-2133859D01*
X5371594Y-2119635D01*
X5380992Y-2110237D01*
X5394962Y-2105665D01*
X5399788Y-2105665D01*
X5413758Y-2110237D01*
X5423156Y-2119635D01*
X5427728Y-2138431D01*
X5427728Y-2162053D01*
X5423156Y-2185421D01*
X5413758Y-2199391D01*
X5399788Y-2204217D01*
X5390390Y-2204217D01*
X5376166Y-2199391D01*
X5371594Y-2189993D01*
X5239260Y-2395733D02*
G01*
X5234688Y-2386335D01*
X5225290Y-2376937D01*
X5215892Y-2372365D01*
X5197096Y-2372365D01*
X5187698Y-2376937D01*
X5178300Y-2386335D01*
X5173474Y-2395733D01*
X5168902Y-2409957D01*
X5168902Y-2433325D01*
X5173474Y-2447295D01*
X5178300Y-2456693D01*
X5187698Y-2466091D01*
X5197096Y-2470917D01*
X5215892Y-2470917D01*
X5225290Y-2466091D01*
X5234688Y-2456693D01*
X5239260Y-2447295D01*
X5239260Y-2433325D01*
X5215892Y-2433325D02*
G01*
X5239260Y-2433325D01*
X5279646Y-2372365D02*
G01*
X5331208Y-2372365D01*
X5303014Y-2409957D01*
X5317238Y-2409957D01*
X5326636Y-2414529D01*
X5331208Y-2419355D01*
X5335780Y-2433325D01*
X5335780Y-2442723D01*
X5331208Y-2456693D01*
X5321810Y-2466091D01*
X5307840Y-2470917D01*
X5293616Y-2470917D01*
X5279646Y-2466091D01*
X5274820Y-2461519D01*
X5270248Y-2452121D01*
X5390390Y-2372365D02*
G01*
X5376166Y-2376937D01*
X5371594Y-2386335D01*
X5371594Y-2395733D01*
X5376166Y-2405131D01*
X5385564Y-2409957D01*
X5404360Y-2414529D01*
X5418330Y-2419355D01*
X5427728Y-2428753D01*
X5432554Y-2438151D01*
X5432554Y-2452121D01*
X5427728Y-2461519D01*
X5423156Y-2466091D01*
X5409186Y-2470917D01*
X5390390Y-2470917D01*
X5376166Y-2466091D01*
X5371594Y-2461519D01*
X5366768Y-2452121D01*
X5366768Y-2438151D01*
X5371594Y-2428753D01*
X5380992Y-2419355D01*
X5394962Y-2414529D01*
X5413758Y-2409957D01*
X5423156Y-2405131D01*
X5427728Y-2395733D01*
X5427728Y-2386335D01*
X5423156Y-2376937D01*
X5409186Y-2372365D01*
X5390390Y-2372365D01*
X5239260Y-2637033D02*
G01*
X5234688Y-2627635D01*
X5225290Y-2618237D01*
X5215892Y-2613665D01*
X5197096Y-2613665D01*
X5187698Y-2618237D01*
X5178300Y-2627635D01*
X5173474Y-2637033D01*
X5168902Y-2651257D01*
X5168902Y-2674625D01*
X5173474Y-2688595D01*
X5178300Y-2697993D01*
X5187698Y-2707391D01*
X5197096Y-2712217D01*
X5215892Y-2712217D01*
X5225290Y-2707391D01*
X5234688Y-2697993D01*
X5239260Y-2688595D01*
X5239260Y-2674625D01*
X5215892Y-2674625D02*
G01*
X5239260Y-2674625D01*
X5279646Y-2613665D02*
G01*
X5331208Y-2613665D01*
X5303014Y-2651257D01*
X5317238Y-2651257D01*
X5326636Y-2655829D01*
X5331208Y-2660655D01*
X5335780Y-2674625D01*
X5335780Y-2684023D01*
X5331208Y-2697993D01*
X5321810Y-2707391D01*
X5307840Y-2712217D01*
X5293616Y-2712217D01*
X5279646Y-2707391D01*
X5274820Y-2702819D01*
X5270248Y-2693421D01*
X5432554Y-2613665D02*
G01*
X5385564Y-2712217D01*
X5366768Y-2613665D02*
G01*
X5432554Y-2613665D01*
X5463542Y-2646431D02*
G01*
X5515104Y-2712217D01*
X5515104Y-2646431D02*
G01*
X5463542Y-2712217D01*
X5239260Y-2916433D02*
G01*
X5234688Y-2907035D01*
X5225290Y-2897637D01*
X5215892Y-2893065D01*
X5197096Y-2893065D01*
X5187698Y-2897637D01*
X5178300Y-2907035D01*
X5173474Y-2916433D01*
X5168902Y-2930657D01*
X5168902Y-2954025D01*
X5173474Y-2967995D01*
X5178300Y-2977393D01*
X5187698Y-2986791D01*
X5197096Y-2991617D01*
X5215892Y-2991617D01*
X5225290Y-2986791D01*
X5234688Y-2977393D01*
X5239260Y-2967995D01*
X5239260Y-2954025D01*
X5215892Y-2954025D02*
G01*
X5239260Y-2954025D01*
X5279646Y-2893065D02*
G01*
X5331208Y-2893065D01*
X5303014Y-2930657D01*
X5317238Y-2930657D01*
X5326636Y-2935229D01*
X5331208Y-2940055D01*
X5335780Y-2954025D01*
X5335780Y-2963423D01*
X5331208Y-2977393D01*
X5321810Y-2986791D01*
X5307840Y-2991617D01*
X5293616Y-2991617D01*
X5279646Y-2986791D01*
X5274820Y-2982219D01*
X5270248Y-2972821D01*
X5423156Y-2907035D02*
G01*
X5418584Y-2897637D01*
X5404360Y-2893065D01*
X5394962Y-2893065D01*
X5380992Y-2897637D01*
X5371594Y-2911861D01*
X5366768Y-2935229D01*
X5366768Y-2958851D01*
X5371594Y-2977393D01*
X5380992Y-2986791D01*
X5394962Y-2991617D01*
X5399788Y-2991617D01*
X5413758Y-2986791D01*
X5423156Y-2977393D01*
X5427728Y-2963423D01*
X5427728Y-2958851D01*
X5423156Y-2944627D01*
X5413758Y-2935229D01*
X5399788Y-2930657D01*
X5394962Y-2930657D01*
X5380992Y-2935229D01*
X5371594Y-2944627D01*
X5366768Y-2958851D01*
X5458716Y-2925831D02*
G01*
X5510278Y-2991617D01*
X5510278Y-2925831D02*
G01*
X5458716Y-2991617D01*
X5239260Y-3157733D02*
G01*
X5234688Y-3148335D01*
X5225290Y-3138937D01*
X5215892Y-3134365D01*
X5197096Y-3134365D01*
X5187698Y-3138937D01*
X5178300Y-3148335D01*
X5173474Y-3157733D01*
X5168902Y-3171957D01*
X5168902Y-3195325D01*
X5173474Y-3209295D01*
X5178300Y-3218693D01*
X5187698Y-3228091D01*
X5197096Y-3232917D01*
X5215892Y-3232917D01*
X5225290Y-3228091D01*
X5234688Y-3218693D01*
X5239260Y-3209295D01*
X5239260Y-3195325D01*
X5215892Y-3195325D02*
G01*
X5239260Y-3195325D01*
X5279646Y-3134365D02*
G01*
X5331208Y-3134365D01*
X5303014Y-3171957D01*
X5317238Y-3171957D01*
X5326636Y-3176529D01*
X5331208Y-3181355D01*
X5335780Y-3195325D01*
X5335780Y-3204723D01*
X5331208Y-3218693D01*
X5321810Y-3228091D01*
X5307840Y-3232917D01*
X5293616Y-3232917D01*
X5279646Y-3228091D01*
X5274820Y-3223519D01*
X5270248Y-3214121D01*
X5423156Y-3134365D02*
G01*
X5376166Y-3134365D01*
X5371594Y-3176529D01*
X5376166Y-3171957D01*
X5390390Y-3167131D01*
X5404360Y-3167131D01*
X5418584Y-3171957D01*
X5427728Y-3181355D01*
X5432554Y-3195325D01*
X5432554Y-3204723D01*
X5427728Y-3218693D01*
X5418584Y-3228091D01*
X5404360Y-3232917D01*
X5390390Y-3232917D01*
X5376166Y-3228091D01*
X5371594Y-3223519D01*
X5366768Y-3214121D01*
X5463542Y-3167131D02*
G01*
X5515104Y-3232917D01*
X5515104Y-3167131D02*
G01*
X5463542Y-3232917D01*
X5239260Y-3424433D02*
G01*
X5234688Y-3415035D01*
X5225290Y-3405637D01*
X5215892Y-3401065D01*
X5197096Y-3401065D01*
X5187698Y-3405637D01*
X5178300Y-3415035D01*
X5173474Y-3424433D01*
X5168902Y-3438657D01*
X5168902Y-3462025D01*
X5173474Y-3475995D01*
X5178300Y-3485393D01*
X5187698Y-3494791D01*
X5197096Y-3499617D01*
X5215892Y-3499617D01*
X5225290Y-3494791D01*
X5234688Y-3485393D01*
X5239260Y-3475995D01*
X5239260Y-3462025D01*
X5215892Y-3462025D02*
G01*
X5239260Y-3462025D01*
X5298442Y-3401065D02*
G01*
X5284218Y-3405637D01*
X5274820Y-3419861D01*
X5270248Y-3443229D01*
X5270248Y-3457453D01*
X5274820Y-3480821D01*
X5284218Y-3494791D01*
X5298442Y-3499617D01*
X5307840Y-3499617D01*
X5321810Y-3494791D01*
X5331208Y-3480821D01*
X5335780Y-3457453D01*
X5335780Y-3443229D01*
X5331208Y-3419861D01*
X5321810Y-3405637D01*
X5307840Y-3401065D01*
X5298442Y-3401065D01*
X5451350Y-3382269D02*
G01*
X5366768Y-3532383D01*
X5482338Y-3401065D02*
G01*
X5482338Y-3499617D01*
X5482338Y-3401065D02*
G01*
X5524502Y-3401065D01*
X5538472Y-3405637D01*
X5543298Y-3410463D01*
X5547870Y-3419861D01*
X5547870Y-3429259D01*
X5543298Y-3438657D01*
X5538472Y-3443229D01*
X5524502Y-3448055D01*
X5482338Y-3448055D02*
G01*
X5524502Y-3448055D01*
X5538472Y-3452627D01*
X5543298Y-3457453D01*
X5547870Y-3466851D01*
X5547870Y-3480821D01*
X5543298Y-3490219D01*
X5538472Y-3494791D01*
X5524502Y-3499617D01*
X5482338Y-3499617D01*
X5602226Y-3433831D02*
G01*
X5593082Y-3438657D01*
X5583684Y-3448055D01*
X5578858Y-3462025D01*
X5578858Y-3471423D01*
X5583684Y-3485393D01*
X5593082Y-3494791D01*
X5602226Y-3499617D01*
X5616450Y-3499617D01*
X5625848Y-3494791D01*
X5635246Y-3485393D01*
X5639818Y-3471423D01*
X5639818Y-3462025D01*
X5635246Y-3448055D01*
X5625848Y-3438657D01*
X5616450Y-3433831D01*
X5602226Y-3433831D01*
X5694174Y-3433831D02*
G01*
X5684776Y-3438657D01*
X5675632Y-3448055D01*
X5670806Y-3462025D01*
X5670806Y-3471423D01*
X5675632Y-3485393D01*
X5684776Y-3494791D01*
X5694174Y-3499617D01*
X5708398Y-3499617D01*
X5717796Y-3494791D01*
X5727194Y-3485393D01*
X5731766Y-3471423D01*
X5731766Y-3462025D01*
X5727194Y-3448055D01*
X5717796Y-3438657D01*
X5708398Y-3433831D01*
X5694174Y-3433831D01*
X5776724Y-3401065D02*
G01*
X5776724Y-3480821D01*
X5781550Y-3494791D01*
X5790948Y-3499617D01*
X5800346Y-3499617D01*
X5762754Y-3433831D02*
G01*
X5795520Y-3433831D01*
X5239260Y-3678433D02*
G01*
X5234688Y-3669035D01*
X5225290Y-3659637D01*
X5215892Y-3655065D01*
X5197096Y-3655065D01*
X5187698Y-3659637D01*
X5178300Y-3669035D01*
X5173474Y-3678433D01*
X5168902Y-3692657D01*
X5168902Y-3716025D01*
X5173474Y-3729995D01*
X5178300Y-3739393D01*
X5187698Y-3748791D01*
X5197096Y-3753617D01*
X5215892Y-3753617D01*
X5225290Y-3748791D01*
X5234688Y-3739393D01*
X5239260Y-3729995D01*
X5239260Y-3716025D01*
X5215892Y-3716025D02*
G01*
X5239260Y-3716025D01*
X5317238Y-3655065D02*
G01*
X5270248Y-3720851D01*
X5340606Y-3720851D01*
X5317238Y-3655065D02*
G01*
X5317238Y-3753617D01*
X5427728Y-3655065D02*
G01*
X5380992Y-3655065D01*
X5376166Y-3697229D01*
X5380992Y-3692657D01*
X5394962Y-3687831D01*
X5409186Y-3687831D01*
X5423156Y-3692657D01*
X5432554Y-3702055D01*
X5437126Y-3716025D01*
X5437126Y-3725423D01*
X5432554Y-3739393D01*
X5423156Y-3748791D01*
X5409186Y-3753617D01*
X5394962Y-3753617D01*
X5380992Y-3748791D01*
X5376166Y-3744219D01*
X5371594Y-3734821D01*
X5251960Y-3932433D02*
G01*
X5247388Y-3923035D01*
X5237990Y-3913637D01*
X5228592Y-3909065D01*
X5209796Y-3909065D01*
X5200398Y-3913637D01*
X5191000Y-3923035D01*
X5186174Y-3932433D01*
X5181602Y-3946657D01*
X5181602Y-3970025D01*
X5186174Y-3983995D01*
X5191000Y-3993393D01*
X5200398Y-4002791D01*
X5209796Y-4007617D01*
X5228592Y-4007617D01*
X5237990Y-4002791D01*
X5247388Y-3993393D01*
X5251960Y-3983995D01*
X5251960Y-3970025D01*
X5228592Y-3970025D02*
G01*
X5251960Y-3970025D01*
X5329938Y-3909065D02*
G01*
X5282948Y-3974851D01*
X5353306Y-3974851D01*
X5329938Y-3909065D02*
G01*
X5329938Y-4007617D01*
X5407662Y-3909065D02*
G01*
X5393692Y-3913637D01*
X5388866Y-3923035D01*
X5388866Y-3932433D01*
X5393692Y-3941831D01*
X5403090Y-3946657D01*
X5421886Y-3951229D01*
X5435856Y-3956055D01*
X5445254Y-3965453D01*
X5449826Y-3974851D01*
X5449826Y-3988821D01*
X5445254Y-3998219D01*
X5440428Y-4002791D01*
X5426458Y-4007617D01*
X5407662Y-4007617D01*
X5393692Y-4002791D01*
X5388866Y-3998219D01*
X5384294Y-3988821D01*
X5384294Y-3974851D01*
X5388866Y-3965453D01*
X5398264Y-3956055D01*
X5412488Y-3951229D01*
X5431030Y-3946657D01*
X5440428Y-3941831D01*
X5445254Y-3932433D01*
X5445254Y-3923035D01*
X5440428Y-3913637D01*
X5426458Y-3909065D01*
X5407662Y-3909065D01*
X5251960Y-4173733D02*
G01*
X5247388Y-4164335D01*
X5237990Y-4154937D01*
X5228592Y-4150365D01*
X5209796Y-4150365D01*
X5200398Y-4154937D01*
X5191000Y-4164335D01*
X5186174Y-4173733D01*
X5181602Y-4187957D01*
X5181602Y-4211325D01*
X5186174Y-4225295D01*
X5191000Y-4234693D01*
X5200398Y-4244091D01*
X5209796Y-4248917D01*
X5228592Y-4248917D01*
X5237990Y-4244091D01*
X5247388Y-4234693D01*
X5251960Y-4225295D01*
X5251960Y-4211325D01*
X5228592Y-4211325D02*
G01*
X5251960Y-4211325D01*
X5329938Y-4150365D02*
G01*
X5282948Y-4216151D01*
X5353306Y-4216151D01*
X5329938Y-4150365D02*
G01*
X5329938Y-4248917D01*
X5449826Y-4150365D02*
G01*
X5403090Y-4248917D01*
X5384294Y-4150365D02*
G01*
X5449826Y-4150365D01*
X5251960Y-4427733D02*
G01*
X5247388Y-4418335D01*
X5237990Y-4408937D01*
X5228592Y-4404365D01*
X5209796Y-4404365D01*
X5200398Y-4408937D01*
X5191000Y-4418335D01*
X5186174Y-4427733D01*
X5181602Y-4441957D01*
X5181602Y-4465325D01*
X5186174Y-4479295D01*
X5191000Y-4488693D01*
X5200398Y-4498091D01*
X5209796Y-4502917D01*
X5228592Y-4502917D01*
X5237990Y-4498091D01*
X5247388Y-4488693D01*
X5251960Y-4479295D01*
X5251960Y-4465325D01*
X5228592Y-4465325D02*
G01*
X5251960Y-4465325D01*
X5287520Y-4427733D02*
G01*
X5287520Y-4423161D01*
X5292346Y-4413763D01*
X5296918Y-4408937D01*
X5306316Y-4404365D01*
X5325112Y-4404365D01*
X5334510Y-4408937D01*
X5339336Y-4413763D01*
X5343908Y-4423161D01*
X5343908Y-4432559D01*
X5339336Y-4441957D01*
X5329938Y-4455927D01*
X5282948Y-4502917D01*
X5348480Y-4502917D01*
X5379468Y-4423161D02*
G01*
X5388866Y-4418335D01*
X5403090Y-4404365D01*
X5403090Y-4502917D01*
X5251960Y-4681733D02*
G01*
X5247388Y-4672335D01*
X5237990Y-4662937D01*
X5228592Y-4658365D01*
X5209796Y-4658365D01*
X5200398Y-4662937D01*
X5191000Y-4672335D01*
X5186174Y-4681733D01*
X5181602Y-4695957D01*
X5181602Y-4719325D01*
X5186174Y-4733295D01*
X5191000Y-4742693D01*
X5200398Y-4752091D01*
X5209796Y-4756917D01*
X5228592Y-4756917D01*
X5237990Y-4752091D01*
X5247388Y-4742693D01*
X5251960Y-4733295D01*
X5251960Y-4719325D01*
X5228592Y-4719325D02*
G01*
X5251960Y-4719325D01*
X5287520Y-4681733D02*
G01*
X5287520Y-4677161D01*
X5292346Y-4667763D01*
X5296918Y-4662937D01*
X5306316Y-4658365D01*
X5325112Y-4658365D01*
X5334510Y-4662937D01*
X5339336Y-4667763D01*
X5343908Y-4677161D01*
X5343908Y-4686559D01*
X5339336Y-4695957D01*
X5329938Y-4709927D01*
X5282948Y-4756917D01*
X5348480Y-4756917D01*
X5407662Y-4658365D02*
G01*
X5393692Y-4662937D01*
X5384294Y-4677161D01*
X5379468Y-4700529D01*
X5379468Y-4714753D01*
X5384294Y-4738121D01*
X5393692Y-4752091D01*
X5407662Y-4756917D01*
X5417060Y-4756917D01*
X5431030Y-4752091D01*
X5440428Y-4738121D01*
X5445254Y-4714753D01*
X5445254Y-4700529D01*
X5440428Y-4677161D01*
X5431030Y-4662937D01*
X5417060Y-4658365D01*
X5407662Y-4658365D01*
X5251960Y-4935733D02*
G01*
X5247388Y-4926335D01*
X5237990Y-4916937D01*
X5228592Y-4912365D01*
X5209796Y-4912365D01*
X5200398Y-4916937D01*
X5191000Y-4926335D01*
X5186174Y-4935733D01*
X5181602Y-4949957D01*
X5181602Y-4973325D01*
X5186174Y-4987295D01*
X5191000Y-4996693D01*
X5200398Y-5006091D01*
X5209796Y-5010917D01*
X5228592Y-5010917D01*
X5237990Y-5006091D01*
X5247388Y-4996693D01*
X5251960Y-4987295D01*
X5251960Y-4973325D01*
X5228592Y-4973325D02*
G01*
X5251960Y-4973325D01*
X5282948Y-4931161D02*
G01*
X5292346Y-4926335D01*
X5306316Y-4912365D01*
X5306316Y-5010917D01*
X5398264Y-4945131D02*
G01*
X5393692Y-4959355D01*
X5384294Y-4968753D01*
X5370070Y-4973325D01*
X5365498Y-4973325D01*
X5351528Y-4968753D01*
X5342130Y-4959355D01*
X5337304Y-4945131D01*
X5337304Y-4940559D01*
X5342130Y-4926335D01*
X5351528Y-4916937D01*
X5365498Y-4912365D01*
X5370070Y-4912365D01*
X5384294Y-4916937D01*
X5393692Y-4926335D01*
X5398264Y-4945131D01*
X5398264Y-4968753D01*
X5393692Y-4992121D01*
X5384294Y-5006091D01*
X5370070Y-5010917D01*
X5360672Y-5010917D01*
X5346702Y-5006091D01*
X5342130Y-4996693D01*
X5251960Y-5189733D02*
G01*
X5247388Y-5180335D01*
X5237990Y-5170937D01*
X5228592Y-5166365D01*
X5209796Y-5166365D01*
X5200398Y-5170937D01*
X5191000Y-5180335D01*
X5186174Y-5189733D01*
X5181602Y-5203957D01*
X5181602Y-5227325D01*
X5186174Y-5241295D01*
X5191000Y-5250693D01*
X5200398Y-5260091D01*
X5209796Y-5264917D01*
X5228592Y-5264917D01*
X5237990Y-5260091D01*
X5247388Y-5250693D01*
X5251960Y-5241295D01*
X5251960Y-5227325D01*
X5228592Y-5227325D02*
G01*
X5251960Y-5227325D01*
X5282948Y-5199131D02*
G01*
X5282948Y-5264917D01*
X5282948Y-5217927D02*
G01*
X5296918Y-5203957D01*
X5306316Y-5199131D01*
X5320540Y-5199131D01*
X5329938Y-5203957D01*
X5334510Y-5217927D01*
X5334510Y-5264917D01*
X5421886Y-5166365D02*
G01*
X5421886Y-5264917D01*
X5421886Y-5213355D02*
G01*
X5412488Y-5203957D01*
X5403090Y-5199131D01*
X5388866Y-5199131D01*
X5379468Y-5203957D01*
X5370070Y-5213355D01*
X5365498Y-5227325D01*
X5365498Y-5236723D01*
X5370070Y-5250693D01*
X5379468Y-5260091D01*
X5388866Y-5264917D01*
X5403090Y-5264917D01*
X5412488Y-5260091D01*
X5421886Y-5250693D01*
X3175761Y-924054D02*
G01*
X3168904Y-910592D01*
X3155188Y-896876D01*
X3141472Y-890018D01*
X3114293Y-890018D01*
X3100577Y-896876D01*
X3087115Y-910592D01*
X3080258Y-924054D01*
X3073400Y-944628D01*
X3073400Y-978664D01*
X3080258Y-999238D01*
X3087115Y-1012700D01*
X3100577Y-1026416D01*
X3114293Y-1033274D01*
X3141472Y-1033274D01*
X3155188Y-1026416D01*
X3168904Y-1012700D01*
X3175761Y-999238D01*
X3175761Y-978664D01*
X3141472Y-978664D02*
G01*
X3175761Y-978664D01*
X3254756Y-937770D02*
G01*
X3241040Y-944628D01*
X3227577Y-958344D01*
X3220720Y-978664D01*
X3220720Y-992380D01*
X3227577Y-1012700D01*
X3241040Y-1026416D01*
X3254756Y-1033274D01*
X3275329Y-1033274D01*
X3288791Y-1026416D01*
X3302508Y-1012700D01*
X3309365Y-992380D01*
X3309365Y-978664D01*
X3302508Y-958344D01*
X3288791Y-944628D01*
X3275329Y-937770D01*
X3254756Y-937770D01*
X3388359Y-937770D02*
G01*
X3374643Y-944628D01*
X3361181Y-958344D01*
X3354324Y-978664D01*
X3354324Y-992380D01*
X3361181Y-1012700D01*
X3374643Y-1026416D01*
X3388359Y-1033274D01*
X3408934Y-1033274D01*
X3422395Y-1026416D01*
X3436111Y-1012700D01*
X3442970Y-992380D01*
X3442970Y-978664D01*
X3436111Y-958344D01*
X3422395Y-944628D01*
X3408934Y-937770D01*
X3388359Y-937770D01*
X3487927Y-937770D02*
G01*
X3487927Y-1005842D01*
X3494786Y-1026416D01*
X3508502Y-1033274D01*
X3528822Y-1033274D01*
X3542538Y-1026416D01*
X3562858Y-1005842D01*
X3562858Y-937770D02*
G01*
X3562858Y-1033274D01*
X3607815Y-937770D02*
G01*
X3607815Y-1005842D01*
X3614674Y-1026416D01*
X3628390Y-1033274D01*
X3648963Y-1033274D01*
X3662425Y-1026416D01*
X3683000Y-1005842D01*
X3683000Y-937770D02*
G01*
X3683000Y-1033274D01*
X3880611Y-890018D02*
G01*
X3880611Y-1033274D01*
X3832859Y-890018D02*
G01*
X3928363Y-890018D01*
X3973322Y-978664D02*
G01*
X4055109Y-978664D01*
X4055109Y-964948D01*
X4048506Y-951486D01*
X4041647Y-944628D01*
X4027931Y-937770D01*
X4007611Y-937770D01*
X3993895Y-944628D01*
X3980179Y-958344D01*
X3973322Y-978664D01*
X3973322Y-992380D01*
X3980179Y-1012700D01*
X3993895Y-1026416D01*
X4007611Y-1033274D01*
X4027931Y-1033274D01*
X4041647Y-1026416D01*
X4055109Y-1012700D01*
X4182109Y-958344D02*
G01*
X4168393Y-944628D01*
X4154677Y-937770D01*
X4134358Y-937770D01*
X4120641Y-944628D01*
X4106925Y-958344D01*
X4100322Y-978664D01*
X4100322Y-992380D01*
X4106925Y-1012700D01*
X4120641Y-1026416D01*
X4134358Y-1033274D01*
X4154677Y-1033274D01*
X4168393Y-1026416D01*
X4182109Y-1012700D01*
X4227068Y-890018D02*
G01*
X4227068Y-1033274D01*
X4227068Y-964948D02*
G01*
X4247388Y-944628D01*
X4261104Y-937770D01*
X4281677Y-937770D01*
X4295140Y-944628D01*
X4301997Y-964948D01*
X4301997Y-1033274D01*
X4140202Y-5039365D02*
G01*
X4140202Y-5109723D01*
X4144774Y-5123693D01*
X4154172Y-5133091D01*
X4168396Y-5137917D01*
X4177794Y-5137917D01*
X4191764Y-5133091D01*
X4201162Y-5123693D01*
X4205988Y-5109723D01*
X4205988Y-5039365D01*
X4274314Y-5039365D02*
G01*
X4236722Y-5137917D01*
X4274314Y-5039365D02*
G01*
X4311906Y-5137917D01*
X4250946Y-5105151D02*
G01*
X4297936Y-5105151D01*
X4342894Y-5039365D02*
G01*
X4342894Y-5137917D01*
X4342894Y-5039365D02*
G01*
X4385058Y-5039365D01*
X4399028Y-5043937D01*
X4403854Y-5048763D01*
X4408426Y-5058161D01*
X4408426Y-5067559D01*
X4403854Y-5076957D01*
X4399028Y-5081529D01*
X4385058Y-5086355D01*
X4342894Y-5086355D01*
X4375660Y-5086355D02*
G01*
X4408426Y-5137917D01*
X4472434Y-5039365D02*
G01*
X4472434Y-5137917D01*
X4439414Y-5039365D02*
G01*
X4505200Y-5039365D01*
X2923796Y-5039365D02*
G01*
X2914398Y-5043937D01*
X2905000Y-5053335D01*
X2900174Y-5062733D01*
X2895602Y-5076957D01*
X2895602Y-5100325D01*
X2900174Y-5114295D01*
X2905000Y-5123693D01*
X2914398Y-5133091D01*
X2923796Y-5137917D01*
X2942592Y-5137917D01*
X2951990Y-5133091D01*
X2961388Y-5123693D01*
X2965960Y-5114295D01*
X2970532Y-5100325D01*
X2970532Y-5076957D01*
X2965960Y-5062733D01*
X2961388Y-5053335D01*
X2951990Y-5043937D01*
X2942592Y-5039365D01*
X2923796Y-5039365D01*
X3034540Y-5039365D02*
G01*
X3034540Y-5137917D01*
X3001520Y-5039365D02*
G01*
X3067306Y-5039365D01*
X3168652Y-5062733D02*
G01*
X3163826Y-5053335D01*
X3154428Y-5043937D01*
X3145284Y-5039365D01*
X3126488Y-5039365D01*
X3117090Y-5043937D01*
X3107692Y-5053335D01*
X3102866Y-5062733D01*
X3098294Y-5076957D01*
X3098294Y-5100325D01*
X3102866Y-5114295D01*
X3107692Y-5123693D01*
X3117090Y-5133091D01*
X3126488Y-5137917D01*
X3145284Y-5137917D01*
X3154428Y-5133091D01*
X3163826Y-5123693D01*
X3168652Y-5114295D01*
X3168652Y-5100325D01*
X3145284Y-5100325D02*
G01*
X3168652Y-5100325D01*
D13*
X1575099Y-6121400D02*
G01*
X1575099Y-6108700D01*
X1295400Y-6108700D02*
G01*
X1575099Y-6108700D01*
X1295400Y-6134100D02*
G01*
X1295400Y-6108700D01*
X1575099Y-6140800D02*
G01*
X1575099Y-6121400D01*
X1295400Y-6121400D01*
X1295400Y-6140800D01*
X1575099Y-6140800D02*
G01*
X1575099Y-6660799D01*
X1575099Y-6660799D02*
G01*
X1295100Y-6660799D01*
X1295100Y-6140800D02*
G01*
X1295100Y-6660799D01*
X1575099Y-6140800D02*
G01*
X1295100Y-6140800D01*
X1575099Y-6236726D02*
G01*
X1295100Y-6236726D01*
X4229100Y-5879800D02*
G01*
X4216400Y-5879800D01*
X4216400Y-6159500D02*
G01*
X4216400Y-5879800D01*
X4241800Y-6159500D02*
G01*
X4216400Y-6159500D01*
X4248500Y-5879800D02*
G01*
X4229100Y-5879800D01*
X4229100Y-6159500D01*
X4248500Y-6159500D01*
X4248500Y-5879800D02*
G01*
X4768499Y-5879800D01*
X4768499Y-5879800D02*
G01*
X4768499Y-6159799D01*
X4248500Y-6159799D02*
G01*
X4768499Y-6159799D01*
X4248500Y-5879800D02*
G01*
X4248500Y-6159799D01*
X4344426Y-5879800D02*
G01*
X4344426Y-6159799D01*
X5854700Y-2794000D02*
G01*
X5854700Y-2286000D01*
X6108700Y-2286000D01*
X6108700Y-2794000D01*
X5854700Y-2794000D01*
X4733112Y-10949180D02*
G01*
X4733112Y-10729219D01*
X4925131Y-10729219D01*
X4925131Y-10949180D01*
X5233024Y-10949101D02*
G01*
X5233024Y-10729102D01*
X5425000Y-10729102D01*
X5425000Y-10949101D01*
X4579998Y-10179100D02*
G01*
X5579999Y-10179100D01*
X5579999Y-10179100D02*
G01*
X5579999Y-10949099D01*
X4579998Y-10179100D02*
G01*
X4579998Y-10949099D01*
X4579998Y-10949099D02*
G01*
X5579999Y-10949099D01*
X4579998Y-10359044D02*
G01*
X5579999Y-10359044D01*
X5588000Y-10312400D02*
G01*
X5650798Y-10312400D01*
X5650798Y-10416461D01*
X5588000Y-10416461D01*
X3221812Y-10936480D02*
G01*
X3221812Y-10716519D01*
X3413831Y-10716519D01*
X3413831Y-10936480D01*
X3721724Y-10936401D02*
G01*
X3721724Y-10716402D01*
X3913700Y-10716402D01*
X3913700Y-10936401D01*
X3068698Y-10166400D02*
G01*
X4068699Y-10166400D01*
X4068699Y-10166400D02*
G01*
X4068699Y-10936399D01*
X3068698Y-10166400D02*
G01*
X3068698Y-10936399D01*
X3068698Y-10936399D02*
G01*
X4068699Y-10936399D01*
X3068698Y-10346344D02*
G01*
X4068699Y-10346344D01*
X4076700Y-10299700D02*
G01*
X4139498Y-10299700D01*
X4139498Y-10403761D01*
X4076700Y-10403761D01*
X6106698Y-4330700D02*
G01*
X5856701Y-4330700D01*
X5856701Y-4051701D02*
G01*
X5856701Y-4863698D01*
X6106698Y-4051701D02*
G01*
X5856701Y-4051701D01*
X6106698Y-4863698D02*
G01*
X6106698Y-4051701D01*
X5856701Y-4863698D02*
G01*
X6106698Y-4863698D01*
X495000Y-7015299D02*
G01*
X843099Y-7015299D01*
X883800Y-4818001D02*
G01*
X1503799Y-4817998D01*
X883800Y-5087998D02*
G01*
X1503799Y-5088001D01*
X1503799Y-5087998D02*
G01*
X1503799Y-4817998D01*
X883800Y-5088001D02*
G01*
X883800Y-4818001D01*
D14*
X2552100Y-6524315D02*
G01*
X2552100Y-6029401D01*
X2552100Y-7229398D02*
G01*
X2552100Y-6734525D01*
X2552100Y-7229396D02*
G01*
X2450312Y-7229398D01*
X2552100Y-6029403D02*
G01*
X2450312Y-6029401D01*
X3498138Y-7055104D02*
G01*
X3498138Y-6660642D01*
X3396310Y-6559295D02*
G01*
X3561359Y-6398513D01*
X2078126Y-6449400D02*
G01*
X2078126Y-6256680D01*
X2941726Y-6256680D01*
X2941726Y-6556679D01*
X2944139Y-6559095D01*
X3345738Y-6559095D01*
X3396538Y-6559095D01*
D13*
X3831409Y-7409398D02*
G01*
X1911398Y-7409398D01*
X3831396Y-5849396D02*
G01*
X1911385Y-5849396D01*
X3831399Y-7409400D02*
G01*
X3831399Y-5849399D01*
X3491229Y-6204712D02*
G01*
X3491229Y-6427470D01*
X1911385Y-5849396D02*
G01*
X1911385Y-6599930D01*
X1911385Y-6658869D02*
G01*
X1911385Y-7409398D01*
X2403805Y-6529400D02*
G01*
X2703804Y-6529400D01*
X2703804Y-6729399D01*
X2403805Y-6729399D01*
X2403805Y-6529400D01*
D15*
X5667291Y-7652400D02*
G01*
X1292301Y-7652400D01*
X1292301Y-9797397D01*
X5667291Y-9797397D01*
X5667291Y-7652400D01*
X1292801Y-7677899D02*
G01*
X1422801Y-7677899D01*
X1292801Y-7993400D02*
G01*
X1605800Y-7993900D01*
X1605800Y-7962900D01*
X1292801Y-9455896D02*
G01*
X1605800Y-9455896D01*
X1605800Y-9771895D01*
X1292801Y-9771895D01*
X2322720Y-7936313D02*
G01*
X2322720Y-7952468D01*
X3338819Y-7799661D02*
G01*
X3338819Y-8734808D01*
X3331062Y-8742565D01*
X2330577Y-8742565D01*
X2322822Y-8734808D01*
X2322822Y-7799661D01*
X2487820Y-7770566D01*
X3173818Y-7770566D01*
X3338819Y-7799661D01*
X2395961Y-9666719D02*
G01*
X2350963Y-9666719D01*
X2350963Y-9491718D01*
X2395961Y-9491718D01*
X2395961Y-9694217D02*
G01*
X2395961Y-9464217D01*
X2405961Y-9454217D02*
G01*
X2765960Y-9454217D01*
X2532821Y-8742565D02*
G01*
X2532821Y-9205564D01*
X2448821Y-9205564D01*
X2448821Y-8742565D01*
X2702821Y-8742565D02*
G01*
X2702821Y-9205564D01*
X2618821Y-9205564D01*
X2618821Y-8742565D01*
X2688932Y-9464217D02*
G01*
X2688932Y-9694217D01*
X2765960Y-9704217D02*
G01*
X2405961Y-9704217D01*
X2775960Y-9464217D02*
G01*
X2775960Y-9694217D01*
X2775960Y-9491718D02*
G01*
X2820962Y-9491718D01*
X2820962Y-9666719D01*
X2775960Y-9666719D01*
X2776059Y-9515365D02*
G01*
X2776059Y-9505911D01*
X2872821Y-8742565D02*
G01*
X2872821Y-9205564D01*
X2788820Y-9205564D01*
X2788820Y-8742565D01*
X3042820Y-8742565D02*
G01*
X3042820Y-9205564D01*
X2958820Y-9205564D01*
X2958820Y-8742565D01*
X3212820Y-8742565D02*
G01*
X3212820Y-9205564D01*
X3128820Y-9205564D01*
X3128820Y-8742565D01*
X3338819Y-7878566D02*
G01*
X2322822Y-7878566D01*
X3494534Y-8594478D02*
G01*
X3494534Y-9564476D01*
X3644534Y-9714476D02*
G01*
X4614532Y-9714476D01*
X3777775Y-8194128D02*
G01*
X3777775Y-7704129D01*
X3782773Y-7699128D02*
G01*
X4772771Y-7699128D01*
X3881434Y-7830990D02*
G01*
X3883850Y-7834129D01*
X3882654Y-7836628D01*
X3880210Y-7836105D01*
X3882654Y-7836628D02*
G01*
X3883370Y-7833507D01*
X3883850Y-7884129D02*
G01*
X4091696Y-7884129D01*
X4091696Y-7834129D02*
G01*
X3883850Y-7834129D01*
X4614532Y-8444478D02*
G01*
X3644534Y-8444478D01*
X4633691Y-7699029D02*
G01*
X4629203Y-7699029D01*
X4642025Y-7699029D02*
G01*
X4638629Y-7699029D01*
X4764531Y-9564476D02*
G01*
X4764531Y-8594478D01*
X4772771Y-8199127D02*
G01*
X3782773Y-8199127D01*
X4777773Y-7704129D02*
G01*
X4777773Y-8194128D01*
X5112661Y-7805930D02*
G01*
X5192661Y-7805930D01*
X5112661Y-7933928D02*
G01*
X5112661Y-7773929D01*
X5192661Y-7773929D01*
X5192661Y-7933928D01*
X5112661Y-7933928D01*
X5192661Y-7901929D02*
G01*
X5112661Y-7901929D01*
X5669790Y-7993900D02*
G01*
X5353791Y-7993900D01*
X5353791Y-7677899D01*
X5665292Y-7677899D01*
X5665292Y-9771895D02*
G01*
X5353791Y-9771895D01*
X5353791Y-9455896D01*
X5665292Y-9455896D01*
D13*
X4570308Y382183D02*
G01*
X2770294Y382183D01*
X2770294Y-299697D01*
X4196816Y-221764D02*
G01*
X4196816Y266694D01*
X3911600Y266694D01*
X3911600Y50794D01*
X3657600Y50794D01*
X3657600Y266694D01*
X3403600Y266694D01*
X3403600Y50794D01*
X3175000Y50794D01*
X3175000Y266694D01*
X2946400Y266694D01*
X2946400Y-101605D01*
X4572005Y-299697D02*
G01*
X4572005Y380994D01*
X4400016Y-221764D02*
G01*
X4400016Y266694D01*
X4176488Y266694D01*
X2770294Y-221764D02*
G01*
X4572005Y-221764D01*
X2286002Y-266705D02*
G01*
X5080002Y-266705D01*
X5080002Y-5346705D01*
X2286002Y-5346705D01*
X2286002Y-266705D01*
X2667002Y-4838705D02*
G01*
X3429002Y-4838705D01*
X3429002Y-5346705D01*
X2667002Y-5346705D01*
X2667002Y-4838705D01*
X3937002Y-4838705D02*
G01*
X4699002Y-4838705D01*
X4699002Y-5346705D01*
X3937002Y-5346705D01*
X3937002Y-4838705D01*
X2768602Y380994D02*
G01*
X4572002Y380994D01*
X4572002Y-2171705D01*
X2768602Y-2171705D01*
X2768602Y380994D01*
X3987802Y-279405D02*
G01*
X4559302Y-279405D01*
X4559302Y-635005D01*
X3987802Y-635005D01*
X3987802Y-279405D01*
G75*
G01*
X493248Y-7014573D02*
G03*
X495000Y-7015300I1753J1752D01*
G75*
G01*
X843100Y-7015300D02*
G03*
X888134Y-6952818I-170000J170000D01*
G75*
G01*
X893100Y-6745300D02*
G03*
X452725Y-6746131I-220000J-100000D01*
G75*
G01*
X443100Y-6935300D02*
G03*
X493248Y-7014573I230002J89998D01*
D15*
G75*
G01*
X2405962Y-9454218D02*
G03*
X2395962Y-9464218I0J-10000D01*
G75*
G01*
X2395962Y-9694217D02*
G03*
X2405962Y-9704217I9992J-8D01*
G75*
G01*
X2775961Y-9464218D02*
G03*
X2765961Y-9454218I-10008J-7D01*
G75*
G01*
X2765961Y-9704217D02*
G03*
X2775961Y-9694217I0J10000D01*
G75*
G01*
X3644534Y-8444479D02*
G03*
X3494535Y-8594479I1J-150000D01*
G75*
G01*
X3629317Y-8795916D02*
G03*
X3625908Y-8782500I-8686J4934D01*
G75*
G01*
X3832555Y-8575853D02*
G03*
X3625908Y-8782500I-127286J-79361D01*
G75*
G01*
X3625908Y-9376456D02*
G03*
X3629317Y-9363037I-5296J8488D01*
G75*
G01*
X3629317Y-8795916D02*
G03*
X3629317Y-9363039I500218J-283562D01*
G75*
G01*
X3494535Y-9564477D02*
G03*
X3644534Y-9714476I150000J1D01*
G75*
G01*
X3782774Y-7699131D02*
G03*
X3777775Y-7704130I0J-4999D01*
G75*
G01*
X3777775Y-8194129D02*
G03*
X3782774Y-8199128I5004J5D01*
G75*
G01*
X3625908Y-9376456D02*
G03*
X3832558Y-9583102I79369J-127280D01*
G75*
G01*
X3845974Y-9579694D02*
G03*
X3832555Y-9583102I-4935J-8688D01*
G75*
G01*
X3832555Y-8575853D02*
G03*
X3845974Y-8579261I8490J5304D01*
G75*
G01*
X4413095Y-8579261D02*
G03*
X3845974Y-8579259I-283563J-500216D01*
G75*
G01*
X3881432Y-7887269D02*
G03*
X3880211Y-7882153I106351J28103D01*
G75*
G01*
X3845974Y-9579694D02*
G03*
X4413095Y-9579694I283561J500217D01*
G75*
G01*
X4426511Y-9583102D02*
G03*
X4413095Y-9579694I-8487J-5298D01*
G75*
G01*
X4413095Y-8579261D02*
G03*
X4426511Y-8575853I4932J8696D01*
G75*
G01*
X4633161Y-8782500D02*
G03*
X4426514Y-8575853I-79365J127283D01*
G75*
G01*
X4764532Y-8594479D02*
G03*
X4614532Y-8444479I-149999J1D01*
G75*
G01*
X4629752Y-9363037D02*
G03*
X4629752Y-8795916I-500215J283561D01*
G75*
G01*
X4633161Y-8782500D02*
G03*
X4629752Y-8795916I5304J-8489D01*
G75*
G01*
X4426511Y-9583102D02*
G03*
X4633161Y-9376456I127285J79362D01*
G75*
G01*
X4629752Y-9363037D02*
G03*
X4633161Y-9376456I8699J-4933D01*
G75*
G01*
X4614532Y-9714476D02*
G03*
X4764532Y-9564477I1J149999D01*
G75*
G01*
X4777773Y-7704130D02*
G03*
X4772772Y-7699131I-4996J3D01*
G75*
G01*
X4772772Y-8199128D02*
G03*
X4777770Y-8194129I-3J5002D01*
G75*
G01*
X2112465Y-8731641D02*
G03*
X2112465Y-8732060I-399999J-210D01*
G75*
G01*
X2115698Y-7899400D02*
G03*
X2115698Y-7899791I-159899J-196D01*
G75*
G01*
X2452616Y-8651357D02*
G03*
X2452614Y-8651763I-37500J31D01*
G75*
G01*
X4654532Y-9079476D02*
G03*
X4654532Y-9080028I-525000J-276D01*
G75*
G01*
X5163693Y-9550397D02*
G03*
X5163693Y-9550786I-159899J-195D01*
G75*
G01*
X5650723Y-8781420D02*
G03*
X5650723Y-8781837I-399999J-208D01*
D13*
G75*
G01
X2071319Y-7309409D02*
G03X2071319Y-7309409I-50013J0D01*
G75*
G01
X4429382Y-457205D02*
G03X4429382Y-457205I-136779J0D01*
G75*
G01
X4328518Y-469905D02*
G03X4328518Y-469905I-35916J0D01*
M02*
