G04 Layer: TopLayer*
G04 EasyEDA v6.5.51, 2026-01-08 00:26:36*
G04 20534f1d5e454c7f8422adcd5164db7c,ce41bef9852f4de9b562203a7e9bab9e,10*
G04 Gerber Generator version 0.2*
G04 Scale: 100 percent, Rotated: No, Reflected: No *
G04 Dimensions in millimeters *
G04 leading zeros omitted , absolute positions ,4 integer and 5 decimal *
%FSLAX45Y45*%
%MOMM*%

%ADD10C,1.5000*%
%ADD11C,0.6000*%
%ADD12C,1.8000*%
%ADD13R,1.8000X1.8000*%
%ADD14C,2.2000*%
%ADD15C,1.5748*%
%ADD16R,1.5748X1.5748*%
%ADD17C,1.4000*%
%ADD18C,2.7940*%
%ADD19C,0.0107*%
%ADD20R,2.5400X2.5400*%
%ADD21C,2.5400*%
%ADD22R,1.5240X1.5240*%

%LPD*%
G36*
X277368Y-11162792D02*
G01*
X273456Y-11162030D01*
X270205Y-11159794D01*
X267970Y-11156543D01*
X267208Y-11152632D01*
X267208Y-36068D01*
X267970Y-32156D01*
X270205Y-28905D01*
X273456Y-26670D01*
X277368Y-25908D01*
X6326632Y-25908D01*
X6330543Y-26670D01*
X6333794Y-28905D01*
X6336030Y-32156D01*
X6336792Y-36068D01*
X6336792Y-11152632D01*
X6336030Y-11156543D01*
X6333794Y-11159794D01*
X6330543Y-11162030D01*
X6326632Y-11162792D01*
G37*

%LPC*%
G36*
X4822088Y-10714736D02*
G01*
X4837887Y-10714736D01*
X4853584Y-10712907D01*
X4868976Y-10709300D01*
X4883810Y-10703864D01*
X4897932Y-10696803D01*
X4911140Y-10688116D01*
X4923231Y-10677956D01*
X4934102Y-10666425D01*
X4943551Y-10653776D01*
X4951425Y-10640110D01*
X4957673Y-10625582D01*
X4962245Y-10610443D01*
X4964988Y-10594898D01*
X4965903Y-10579100D01*
X4964988Y-10563301D01*
X4962245Y-10547756D01*
X4957673Y-10532618D01*
X4951425Y-10518089D01*
X4943551Y-10504424D01*
X4934102Y-10491774D01*
X4923231Y-10480243D01*
X4911140Y-10470083D01*
X4897932Y-10461396D01*
X4883810Y-10454335D01*
X4868976Y-10448899D01*
X4853584Y-10445292D01*
X4837887Y-10443464D01*
X4822088Y-10443464D01*
X4806391Y-10445292D01*
X4791049Y-10448899D01*
X4776165Y-10454335D01*
X4762042Y-10461396D01*
X4748834Y-10470083D01*
X4736744Y-10480243D01*
X4725924Y-10491774D01*
X4716475Y-10504424D01*
X4708550Y-10518089D01*
X4702302Y-10532618D01*
X4697780Y-10547756D01*
X4695037Y-10563301D01*
X4694123Y-10579100D01*
X4695037Y-10594898D01*
X4697780Y-10610443D01*
X4702302Y-10625582D01*
X4708550Y-10640110D01*
X4716475Y-10653776D01*
X4725924Y-10666425D01*
X4736744Y-10677956D01*
X4748834Y-10688116D01*
X4762042Y-10696803D01*
X4776165Y-10703864D01*
X4791049Y-10709300D01*
X4806391Y-10712907D01*
G37*
G36*
X3310788Y-10702036D02*
G01*
X3326587Y-10702036D01*
X3342284Y-10700207D01*
X3357676Y-10696600D01*
X3372510Y-10691164D01*
X3386632Y-10684103D01*
X3399840Y-10675416D01*
X3411931Y-10665256D01*
X3422802Y-10653725D01*
X3432251Y-10641076D01*
X3440125Y-10627410D01*
X3446373Y-10612882D01*
X3450945Y-10597743D01*
X3453688Y-10582198D01*
X3454603Y-10566400D01*
X3453688Y-10550601D01*
X3450945Y-10535056D01*
X3446373Y-10519918D01*
X3440125Y-10505389D01*
X3432251Y-10491724D01*
X3422802Y-10479074D01*
X3411931Y-10467543D01*
X3399840Y-10457383D01*
X3386632Y-10448696D01*
X3372510Y-10441635D01*
X3357676Y-10436199D01*
X3342284Y-10432592D01*
X3326587Y-10430764D01*
X3310788Y-10430764D01*
X3295091Y-10432592D01*
X3279749Y-10436199D01*
X3264865Y-10441635D01*
X3250742Y-10448696D01*
X3237534Y-10457383D01*
X3225444Y-10467543D01*
X3214624Y-10479074D01*
X3205175Y-10491724D01*
X3197250Y-10505389D01*
X3191002Y-10519918D01*
X3186480Y-10535056D01*
X3183737Y-10550601D01*
X3182823Y-10566400D01*
X3183737Y-10582198D01*
X3186480Y-10597743D01*
X3191002Y-10612882D01*
X3197250Y-10627410D01*
X3205175Y-10641076D01*
X3214624Y-10653725D01*
X3225444Y-10665256D01*
X3237534Y-10675416D01*
X3250742Y-10684103D01*
X3264865Y-10691164D01*
X3279749Y-10696600D01*
X3295091Y-10700207D01*
G37*
G36*
X5268671Y-10700105D02*
G01*
X5268671Y-10640466D01*
X5208778Y-10640466D01*
X5216448Y-10653776D01*
X5225897Y-10666425D01*
X5236768Y-10677956D01*
X5248859Y-10688116D01*
X5262067Y-10696803D01*
G37*
G36*
X5391353Y-10700105D02*
G01*
X5397957Y-10696803D01*
X5411165Y-10688116D01*
X5423255Y-10677956D01*
X5434076Y-10666425D01*
X5443524Y-10653776D01*
X5451246Y-10640466D01*
X5391353Y-10640466D01*
G37*
G36*
X3880053Y-10687405D02*
G01*
X3886657Y-10684103D01*
X3899865Y-10675416D01*
X3911955Y-10665256D01*
X3922776Y-10653725D01*
X3932224Y-10641076D01*
X3939946Y-10627766D01*
X3880053Y-10627766D01*
G37*
G36*
X3757371Y-10687405D02*
G01*
X3757371Y-10627766D01*
X3697478Y-10627766D01*
X3705148Y-10641076D01*
X3714597Y-10653725D01*
X3725468Y-10665256D01*
X3737559Y-10675416D01*
X3750767Y-10684103D01*
G37*
G36*
X5208778Y-10517733D02*
G01*
X5268671Y-10517733D01*
X5268671Y-10458094D01*
X5262067Y-10461396D01*
X5248859Y-10470083D01*
X5236768Y-10480243D01*
X5225897Y-10491774D01*
X5216448Y-10504424D01*
G37*
G36*
X5391353Y-10517733D02*
G01*
X5451246Y-10517733D01*
X5443524Y-10504424D01*
X5434076Y-10491774D01*
X5423255Y-10480243D01*
X5411165Y-10470083D01*
X5397957Y-10461396D01*
X5391353Y-10458094D01*
G37*
G36*
X3880053Y-10505033D02*
G01*
X3939946Y-10505033D01*
X3932224Y-10491724D01*
X3922776Y-10479074D01*
X3911955Y-10467543D01*
X3899865Y-10457383D01*
X3886657Y-10448696D01*
X3880053Y-10445394D01*
G37*
G36*
X3697478Y-10505033D02*
G01*
X3757371Y-10505033D01*
X3757371Y-10445394D01*
X3750767Y-10448696D01*
X3737559Y-10457383D01*
X3725468Y-10467543D01*
X3714597Y-10479074D01*
X3705148Y-10491724D01*
G37*
G36*
X1517650Y-9749840D02*
G01*
X1531416Y-9741916D01*
X1544980Y-9731908D01*
X1557375Y-9720529D01*
X1568450Y-9707829D01*
X1578051Y-9693960D01*
X1583588Y-9683750D01*
X1517650Y-9683750D01*
G37*
G36*
X5581650Y-9749840D02*
G01*
X5595416Y-9741916D01*
X5608980Y-9731908D01*
X5621375Y-9720529D01*
X5632450Y-9707829D01*
X5642051Y-9693960D01*
X5647588Y-9683750D01*
X5581650Y-9683750D01*
G37*
G36*
X5441950Y-9749637D02*
G01*
X5441950Y-9683750D01*
X5375960Y-9683750D01*
X5377332Y-9686645D01*
X5386171Y-9701022D01*
X5396484Y-9714331D01*
X5408269Y-9726371D01*
X5421274Y-9737090D01*
X5435346Y-9746284D01*
G37*
G36*
X1377950Y-9749637D02*
G01*
X1377950Y-9683750D01*
X1311960Y-9683750D01*
X1313332Y-9686645D01*
X1322171Y-9701022D01*
X1332484Y-9714331D01*
X1344269Y-9726371D01*
X1357274Y-9737090D01*
X1371346Y-9746284D01*
G37*
G36*
X5375960Y-9544050D02*
G01*
X5441950Y-9544050D01*
X5441950Y-9478162D01*
X5435346Y-9481515D01*
X5421274Y-9490710D01*
X5408269Y-9501428D01*
X5396484Y-9513468D01*
X5386171Y-9526778D01*
X5377332Y-9541154D01*
G37*
G36*
X1311960Y-9544050D02*
G01*
X1377950Y-9544050D01*
X1377950Y-9478162D01*
X1371346Y-9481515D01*
X1357274Y-9490710D01*
X1344269Y-9501428D01*
X1332484Y-9513468D01*
X1322171Y-9526778D01*
X1313332Y-9541154D01*
G37*
G36*
X1517650Y-9544050D02*
G01*
X1583588Y-9544050D01*
X1578051Y-9533839D01*
X1568450Y-9519970D01*
X1557375Y-9507270D01*
X1544980Y-9495891D01*
X1531416Y-9485884D01*
X1517650Y-9477959D01*
G37*
G36*
X5581650Y-9544050D02*
G01*
X5647588Y-9544050D01*
X5642051Y-9533839D01*
X5632450Y-9519970D01*
X5621375Y-9507270D01*
X5608980Y-9495891D01*
X5595416Y-9485884D01*
X5581650Y-9477959D01*
G37*
G36*
X1321358Y-7988808D02*
G01*
X1574241Y-7988808D01*
X1580540Y-7988096D01*
X1586026Y-7986166D01*
X1590903Y-7983118D01*
X1595018Y-7979003D01*
X1598066Y-7974126D01*
X1599996Y-7968640D01*
X1600708Y-7962341D01*
X1600708Y-7709458D01*
X1599996Y-7703159D01*
X1598066Y-7697673D01*
X1595018Y-7692796D01*
X1590903Y-7688681D01*
X1586026Y-7685633D01*
X1580540Y-7683703D01*
X1574241Y-7682992D01*
X1321358Y-7682992D01*
X1315059Y-7683703D01*
X1309573Y-7685633D01*
X1304696Y-7688681D01*
X1300581Y-7692796D01*
X1297533Y-7697673D01*
X1295603Y-7703159D01*
X1294892Y-7709458D01*
X1294892Y-7962341D01*
X1295603Y-7968640D01*
X1297533Y-7974126D01*
X1300581Y-7979003D01*
X1304696Y-7983118D01*
X1309573Y-7986166D01*
X1315059Y-7988096D01*
G37*
G36*
X5516016Y-7988757D02*
G01*
X5532780Y-7987334D01*
X5549341Y-7984134D01*
X5565394Y-7979105D01*
X5580837Y-7972298D01*
X5595416Y-7963916D01*
X5608980Y-7953908D01*
X5621375Y-7942529D01*
X5632450Y-7929829D01*
X5642051Y-7915960D01*
X5650077Y-7901127D01*
X5656427Y-7885531D01*
X5660999Y-7869326D01*
X5663742Y-7852714D01*
X5664708Y-7835900D01*
X5663742Y-7819085D01*
X5660999Y-7802473D01*
X5656427Y-7786268D01*
X5650077Y-7770672D01*
X5642051Y-7755839D01*
X5632450Y-7741970D01*
X5621375Y-7729270D01*
X5608980Y-7717891D01*
X5595416Y-7707884D01*
X5580837Y-7699502D01*
X5565394Y-7692694D01*
X5549341Y-7687665D01*
X5532780Y-7684465D01*
X5516016Y-7683042D01*
X5499150Y-7683550D01*
X5482488Y-7685836D01*
X5466181Y-7690002D01*
X5450382Y-7695895D01*
X5435346Y-7703515D01*
X5421274Y-7712709D01*
X5408269Y-7723428D01*
X5396484Y-7735468D01*
X5386171Y-7748778D01*
X5377332Y-7763154D01*
X5370169Y-7778343D01*
X5364683Y-7794294D01*
X5360974Y-7810753D01*
X5359146Y-7827467D01*
X5359146Y-7844332D01*
X5360974Y-7861046D01*
X5364683Y-7877505D01*
X5370169Y-7893456D01*
X5377332Y-7908645D01*
X5386171Y-7923022D01*
X5396484Y-7936331D01*
X5408269Y-7948371D01*
X5421274Y-7959090D01*
X5435346Y-7968284D01*
X5450382Y-7975904D01*
X5466181Y-7981797D01*
X5482488Y-7985963D01*
X5499150Y-7988249D01*
G37*
G36*
X2275687Y-7394956D02*
G01*
X2293264Y-7393533D01*
X2310587Y-7390282D01*
X2327452Y-7385151D01*
X2343708Y-7378344D01*
X2359152Y-7369759D01*
X2373579Y-7359650D01*
X2386838Y-7348016D01*
X2398776Y-7335062D01*
X2409291Y-7320940D01*
X2418232Y-7305751D01*
X2425547Y-7289698D01*
X2431084Y-7272985D01*
X2434793Y-7255764D01*
X2436672Y-7238187D01*
X2436672Y-7220610D01*
X2434793Y-7203084D01*
X2431084Y-7185812D01*
X2425547Y-7169099D01*
X2418232Y-7153046D01*
X2409291Y-7137857D01*
X2398776Y-7123734D01*
X2386838Y-7110780D01*
X2373579Y-7099147D01*
X2359152Y-7089038D01*
X2343708Y-7080503D01*
X2327452Y-7073646D01*
X2310587Y-7068515D01*
X2293264Y-7065264D01*
X2275687Y-7063841D01*
X2258110Y-7064349D01*
X2240635Y-7066686D01*
X2223516Y-7070852D01*
X2206904Y-7076846D01*
X2191054Y-7084568D01*
X2176119Y-7093915D01*
X2162251Y-7104786D01*
X2159355Y-7107631D01*
X2155901Y-7109815D01*
X2151888Y-7110475D01*
X2147925Y-7109510D01*
X1555800Y-6830822D01*
X1553006Y-6828891D01*
X1551025Y-6826148D01*
X1550060Y-6822897D01*
X1548942Y-6814108D01*
X1545336Y-6799986D01*
X1539951Y-6786473D01*
X1532940Y-6773722D01*
X1524406Y-6761937D01*
X1514449Y-6751320D01*
X1503222Y-6742074D01*
X1490929Y-6734251D01*
X1477772Y-6728053D01*
X1463903Y-6723583D01*
X1449628Y-6720840D01*
X1435100Y-6719925D01*
X1420571Y-6720840D01*
X1406296Y-6723583D01*
X1392428Y-6728053D01*
X1379270Y-6734251D01*
X1366977Y-6742074D01*
X1355750Y-6751320D01*
X1345793Y-6761937D01*
X1337259Y-6773722D01*
X1335633Y-6776618D01*
X1333449Y-6779412D01*
X1330401Y-6781241D01*
X1326946Y-6781901D01*
X1053338Y-6787032D01*
X1049426Y-6786321D01*
X1046073Y-6784136D01*
X1043787Y-6780784D01*
X1043025Y-6776872D01*
X1043025Y-6755892D01*
X1042314Y-6749542D01*
X1040384Y-6744106D01*
X1037285Y-6739178D01*
X1033221Y-6735114D01*
X1028293Y-6732016D01*
X1022858Y-6730085D01*
X1016508Y-6729374D01*
X837692Y-6729374D01*
X831342Y-6730085D01*
X825906Y-6732016D01*
X820978Y-6735114D01*
X816914Y-6739178D01*
X813816Y-6744106D01*
X811885Y-6749542D01*
X811174Y-6755892D01*
X811174Y-6934708D01*
X811885Y-6941058D01*
X813816Y-6946493D01*
X816914Y-6951421D01*
X820978Y-6955485D01*
X825906Y-6958584D01*
X831342Y-6960514D01*
X837692Y-6961225D01*
X1016508Y-6961225D01*
X1022858Y-6960514D01*
X1028293Y-6958584D01*
X1033221Y-6955485D01*
X1037285Y-6951421D01*
X1040384Y-6946493D01*
X1042314Y-6941058D01*
X1043025Y-6934708D01*
X1043025Y-6909003D01*
X1043787Y-6905193D01*
X1045921Y-6901891D01*
X1049172Y-6899706D01*
X1052982Y-6898843D01*
X1328826Y-6893712D01*
X1332026Y-6894169D01*
X1334922Y-6895592D01*
X1337259Y-6897878D01*
X1345793Y-6909663D01*
X1355750Y-6920280D01*
X1366977Y-6929577D01*
X1379270Y-6937349D01*
X1392428Y-6943547D01*
X1406296Y-6948068D01*
X1420571Y-6950760D01*
X1435100Y-6951675D01*
X1449628Y-6950760D01*
X1463903Y-6948068D01*
X1477772Y-6943547D01*
X1490929Y-6937349D01*
X1498396Y-6932625D01*
X1501546Y-6931304D01*
X1504899Y-6931101D01*
X1508201Y-6932015D01*
X2100376Y-7210755D01*
X2103577Y-7213092D01*
X2105609Y-7216546D01*
X2106168Y-7220458D01*
X2105710Y-7229398D01*
X2106625Y-7246975D01*
X2109470Y-7264400D01*
X2114092Y-7281418D01*
X2120493Y-7297826D01*
X2128621Y-7313472D01*
X2138375Y-7328153D01*
X2149602Y-7341717D01*
X2162251Y-7354011D01*
X2176119Y-7364882D01*
X2191054Y-7374229D01*
X2206904Y-7381951D01*
X2223516Y-7387945D01*
X2240635Y-7392111D01*
X2258110Y-7394448D01*
G37*
G36*
X3495700Y-7394905D02*
G01*
X3513277Y-7393482D01*
X3530600Y-7390231D01*
X3547465Y-7385100D01*
X3563721Y-7378293D01*
X3579114Y-7369708D01*
X3593541Y-7359599D01*
X3606800Y-7347966D01*
X3618788Y-7335012D01*
X3629304Y-7320889D01*
X3638245Y-7305700D01*
X3645509Y-7289647D01*
X3651046Y-7272934D01*
X3654755Y-7255713D01*
X3656634Y-7238136D01*
X3656634Y-7220559D01*
X3654755Y-7203033D01*
X3651046Y-7185761D01*
X3645509Y-7169048D01*
X3638245Y-7152995D01*
X3629304Y-7137806D01*
X3618788Y-7123684D01*
X3606800Y-7110730D01*
X3593541Y-7099096D01*
X3579114Y-7088987D01*
X3563721Y-7080453D01*
X3547465Y-7073595D01*
X3530600Y-7068464D01*
X3513277Y-7065213D01*
X3495700Y-7063790D01*
X3478072Y-7064298D01*
X3460597Y-7066635D01*
X3443478Y-7070801D01*
X3426917Y-7076795D01*
X3411067Y-7084517D01*
X3396132Y-7093864D01*
X3382264Y-7104735D01*
X3369614Y-7117029D01*
X3358387Y-7130592D01*
X3348634Y-7145274D01*
X3340506Y-7160920D01*
X3334054Y-7177328D01*
X3329432Y-7194346D01*
X3326637Y-7211771D01*
X3325723Y-7229348D01*
X3326637Y-7246924D01*
X3329432Y-7264349D01*
X3334054Y-7281367D01*
X3340506Y-7297775D01*
X3348634Y-7313422D01*
X3358387Y-7328103D01*
X3369614Y-7341666D01*
X3382264Y-7353960D01*
X3396132Y-7364831D01*
X3411067Y-7374178D01*
X3426917Y-7381900D01*
X3443478Y-7387894D01*
X3460597Y-7392060D01*
X3478072Y-7394397D01*
G37*
G36*
X673100Y-6961174D02*
G01*
X687628Y-6960260D01*
X701903Y-6957568D01*
X715772Y-6953046D01*
X728929Y-6946849D01*
X741222Y-6939076D01*
X752449Y-6929780D01*
X762406Y-6919163D01*
X770940Y-6907377D01*
X777951Y-6894626D01*
X783336Y-6881114D01*
X786942Y-6866991D01*
X788771Y-6852564D01*
X788771Y-6838035D01*
X786942Y-6823608D01*
X783336Y-6809486D01*
X777951Y-6795973D01*
X770940Y-6783222D01*
X762406Y-6771436D01*
X752449Y-6760819D01*
X741222Y-6751523D01*
X728929Y-6743750D01*
X715772Y-6737553D01*
X701903Y-6733031D01*
X687628Y-6730339D01*
X673100Y-6729425D01*
X658571Y-6730339D01*
X644296Y-6733031D01*
X630428Y-6737553D01*
X617270Y-6743750D01*
X604977Y-6751523D01*
X593750Y-6760819D01*
X583793Y-6771436D01*
X575259Y-6783222D01*
X568248Y-6795973D01*
X562864Y-6809486D01*
X559257Y-6823608D01*
X557428Y-6838035D01*
X557428Y-6852564D01*
X559257Y-6866991D01*
X562864Y-6881114D01*
X568248Y-6894626D01*
X575259Y-6907377D01*
X583793Y-6919163D01*
X593750Y-6929780D01*
X604977Y-6939076D01*
X617270Y-6946849D01*
X630428Y-6953046D01*
X644296Y-6957568D01*
X658571Y-6960260D01*
G37*
G36*
X367741Y-6948982D02*
G01*
X367741Y-6896658D01*
X315366Y-6896658D01*
X321259Y-6907377D01*
X329793Y-6919163D01*
X339750Y-6929780D01*
X350977Y-6939076D01*
X363270Y-6946849D01*
G37*
G36*
X470458Y-6948982D02*
G01*
X474929Y-6946849D01*
X487222Y-6939076D01*
X498449Y-6929780D01*
X508406Y-6919163D01*
X516940Y-6907377D01*
X522833Y-6896658D01*
X470458Y-6896658D01*
G37*
G36*
X2075688Y-6794957D02*
G01*
X2093264Y-6793534D01*
X2110587Y-6790283D01*
X2127453Y-6785152D01*
X2143709Y-6778345D01*
X2159152Y-6769760D01*
X2173579Y-6759651D01*
X2186838Y-6748018D01*
X2198776Y-6735064D01*
X2209292Y-6720941D01*
X2218232Y-6705752D01*
X2225497Y-6689699D01*
X2231034Y-6672986D01*
X2234793Y-6655765D01*
X2236673Y-6638188D01*
X2236673Y-6620611D01*
X2234793Y-6603085D01*
X2231034Y-6585813D01*
X2225497Y-6569100D01*
X2218232Y-6553047D01*
X2209292Y-6537858D01*
X2198776Y-6523735D01*
X2186838Y-6510781D01*
X2173579Y-6499148D01*
X2159152Y-6489039D01*
X2143709Y-6480505D01*
X2127453Y-6473647D01*
X2110587Y-6468516D01*
X2093264Y-6465265D01*
X2075688Y-6463842D01*
X2058111Y-6464350D01*
X2040636Y-6466687D01*
X2023516Y-6470853D01*
X2006904Y-6476847D01*
X1991055Y-6484569D01*
X1976120Y-6493916D01*
X1962251Y-6504787D01*
X1949602Y-6517081D01*
X1938375Y-6530644D01*
X1928622Y-6545326D01*
X1920493Y-6560972D01*
X1914093Y-6577380D01*
X1909470Y-6594398D01*
X1906625Y-6611823D01*
X1905711Y-6629400D01*
X1906625Y-6646976D01*
X1909470Y-6664401D01*
X1914093Y-6681419D01*
X1920493Y-6697827D01*
X1928622Y-6713474D01*
X1938375Y-6728155D01*
X1949602Y-6741718D01*
X1962251Y-6754012D01*
X1976120Y-6764883D01*
X1991055Y-6774230D01*
X2006904Y-6781952D01*
X2023516Y-6787946D01*
X2040636Y-6792112D01*
X2058111Y-6794449D01*
G37*
G36*
X470458Y-6793941D02*
G01*
X522833Y-6793941D01*
X516940Y-6783222D01*
X508406Y-6771436D01*
X498449Y-6760819D01*
X487222Y-6751523D01*
X474929Y-6743750D01*
X470458Y-6741617D01*
G37*
G36*
X315366Y-6793941D02*
G01*
X367741Y-6793941D01*
X367741Y-6741617D01*
X363270Y-6743750D01*
X350977Y-6751523D01*
X339750Y-6760819D01*
X329793Y-6771436D01*
X321259Y-6783222D01*
G37*
G36*
X3495700Y-6195009D02*
G01*
X3513277Y-6193586D01*
X3530600Y-6190335D01*
X3547465Y-6185204D01*
X3563721Y-6178397D01*
X3579114Y-6169812D01*
X3593541Y-6159703D01*
X3606800Y-6148070D01*
X3618788Y-6135116D01*
X3629304Y-6120993D01*
X3638245Y-6105804D01*
X3645509Y-6089751D01*
X3651046Y-6073038D01*
X3654806Y-6055817D01*
X3656634Y-6038240D01*
X3656634Y-6020663D01*
X3654806Y-6003137D01*
X3651046Y-5985865D01*
X3645509Y-5969152D01*
X3638245Y-5953099D01*
X3629304Y-5937910D01*
X3618788Y-5923788D01*
X3606800Y-5910834D01*
X3593541Y-5899200D01*
X3579114Y-5889091D01*
X3563721Y-5880557D01*
X3547465Y-5873699D01*
X3530600Y-5868568D01*
X3513277Y-5865317D01*
X3495700Y-5863894D01*
X3478072Y-5864402D01*
X3460597Y-5866739D01*
X3443478Y-5870905D01*
X3426917Y-5876899D01*
X3411067Y-5884621D01*
X3396132Y-5893968D01*
X3382264Y-5904839D01*
X3369614Y-5917133D01*
X3358387Y-5930696D01*
X3348634Y-5945378D01*
X3340506Y-5961024D01*
X3334105Y-5977432D01*
X3329432Y-5994450D01*
X3326637Y-6011875D01*
X3325723Y-6029452D01*
X3326637Y-6047028D01*
X3329432Y-6064453D01*
X3334105Y-6081471D01*
X3340506Y-6097879D01*
X3348634Y-6113526D01*
X3358387Y-6128207D01*
X3369614Y-6141770D01*
X3382264Y-6154064D01*
X3396132Y-6164935D01*
X3411067Y-6174282D01*
X3426917Y-6182004D01*
X3443478Y-6187998D01*
X3460597Y-6192164D01*
X3478072Y-6194501D01*
G37*
G36*
X2275687Y-6194958D02*
G01*
X2293264Y-6193536D01*
X2310587Y-6190284D01*
X2327452Y-6185154D01*
X2343708Y-6178346D01*
X2359152Y-6169761D01*
X2373579Y-6159652D01*
X2386838Y-6148019D01*
X2398776Y-6135065D01*
X2409291Y-6120942D01*
X2418232Y-6105753D01*
X2425547Y-6089700D01*
X2431084Y-6072987D01*
X2434793Y-6055766D01*
X2436672Y-6038189D01*
X2436672Y-6020612D01*
X2434793Y-6003086D01*
X2431084Y-5985814D01*
X2425547Y-5969101D01*
X2418232Y-5953048D01*
X2409291Y-5937859D01*
X2398776Y-5923737D01*
X2386838Y-5910783D01*
X2373579Y-5899150D01*
X2359152Y-5889040D01*
X2343708Y-5880506D01*
X2327452Y-5873648D01*
X2310587Y-5868517D01*
X2293264Y-5865266D01*
X2275687Y-5863844D01*
X2258110Y-5864352D01*
X2240635Y-5866688D01*
X2223516Y-5870854D01*
X2206904Y-5876848D01*
X2191054Y-5884570D01*
X2176119Y-5893917D01*
X2162251Y-5904788D01*
X2149602Y-5917082D01*
X2138375Y-5930646D01*
X2128621Y-5945327D01*
X2120493Y-5960973D01*
X2114092Y-5977382D01*
X2109470Y-5994400D01*
X2106625Y-6011824D01*
X2105710Y-6029401D01*
X2106625Y-6046978D01*
X2109470Y-6064402D01*
X2114092Y-6081420D01*
X2120493Y-6097828D01*
X2128621Y-6113475D01*
X2138375Y-6128156D01*
X2149602Y-6141720D01*
X2162251Y-6154013D01*
X2176119Y-6164884D01*
X2191054Y-6174232D01*
X2206904Y-6181953D01*
X2223516Y-6187948D01*
X2240635Y-6192113D01*
X2258110Y-6194450D01*
G37*
G36*
X4066235Y-6135471D02*
G01*
X4080764Y-6135471D01*
X4095191Y-6133642D01*
X4109313Y-6130036D01*
X4122826Y-6124651D01*
X4135577Y-6117640D01*
X4147362Y-6109106D01*
X4157979Y-6099149D01*
X4167225Y-6087922D01*
X4175048Y-6075629D01*
X4181246Y-6062472D01*
X4185716Y-6048603D01*
X4188460Y-6034328D01*
X4189374Y-6019800D01*
X4188460Y-6005271D01*
X4185716Y-5990996D01*
X4181246Y-5977128D01*
X4175048Y-5963970D01*
X4167225Y-5951677D01*
X4157979Y-5940450D01*
X4147362Y-5930493D01*
X4135577Y-5921959D01*
X4122826Y-5914948D01*
X4109313Y-5909564D01*
X4095191Y-5905957D01*
X4080764Y-5904128D01*
X4066235Y-5904128D01*
X4051757Y-5905957D01*
X4037685Y-5909564D01*
X4024172Y-5914948D01*
X4011422Y-5921959D01*
X3999636Y-5930493D01*
X3989019Y-5940450D01*
X3979722Y-5951677D01*
X3971950Y-5963970D01*
X3965752Y-5977128D01*
X3961231Y-5990996D01*
X3958539Y-6005271D01*
X3957624Y-6019800D01*
X3958539Y-6034328D01*
X3961231Y-6048603D01*
X3965752Y-6062472D01*
X3971950Y-6075629D01*
X3979722Y-6087922D01*
X3989019Y-6099149D01*
X3999636Y-6109106D01*
X4011422Y-6117640D01*
X4024172Y-6124651D01*
X4037685Y-6130036D01*
X4051757Y-6133642D01*
G37*
G36*
X4892141Y-6123533D02*
G01*
X4892141Y-6071158D01*
X4839868Y-6071158D01*
X4841951Y-6075629D01*
X4849774Y-6087922D01*
X4859020Y-6099149D01*
X4869637Y-6109106D01*
X4881422Y-6117640D01*
G37*
G36*
X4994859Y-6123533D02*
G01*
X5005578Y-6117640D01*
X5017363Y-6109106D01*
X5027980Y-6099149D01*
X5037277Y-6087922D01*
X5045049Y-6075629D01*
X5047183Y-6071158D01*
X4994859Y-6071158D01*
G37*
G36*
X1435100Y-6081674D02*
G01*
X1449628Y-6080760D01*
X1463903Y-6078016D01*
X1477772Y-6073546D01*
X1490929Y-6067348D01*
X1503222Y-6059525D01*
X1514449Y-6050280D01*
X1524406Y-6039662D01*
X1532940Y-6027877D01*
X1539951Y-6015126D01*
X1545336Y-6001613D01*
X1548942Y-5987491D01*
X1550771Y-5973064D01*
X1550771Y-5958535D01*
X1548942Y-5944057D01*
X1545336Y-5929985D01*
X1539951Y-5916472D01*
X1532940Y-5903722D01*
X1524406Y-5891936D01*
X1514449Y-5881319D01*
X1503222Y-5872022D01*
X1490929Y-5864250D01*
X1477772Y-5858052D01*
X1463903Y-5853531D01*
X1449628Y-5850839D01*
X1435100Y-5849924D01*
X1420571Y-5850839D01*
X1406296Y-5853531D01*
X1392428Y-5858052D01*
X1379270Y-5864250D01*
X1366977Y-5872022D01*
X1355750Y-5881319D01*
X1345793Y-5891936D01*
X1337259Y-5903722D01*
X1330248Y-5916472D01*
X1324864Y-5929985D01*
X1321257Y-5944057D01*
X1319428Y-5958535D01*
X1319428Y-5973064D01*
X1321257Y-5987491D01*
X1324864Y-6001613D01*
X1330248Y-6015126D01*
X1337259Y-6027877D01*
X1345793Y-6039662D01*
X1355750Y-6050280D01*
X1366977Y-6059525D01*
X1379270Y-6067348D01*
X1392428Y-6073546D01*
X1406296Y-6078016D01*
X1420571Y-6080760D01*
G37*
G36*
X4839868Y-5968441D02*
G01*
X4892141Y-5968441D01*
X4892141Y-5916066D01*
X4881422Y-5921959D01*
X4869637Y-5930493D01*
X4859020Y-5940450D01*
X4849774Y-5951677D01*
X4841951Y-5963970D01*
G37*
G36*
X4994859Y-5968441D02*
G01*
X5047183Y-5968441D01*
X5045049Y-5963970D01*
X5037277Y-5951677D01*
X5027980Y-5940450D01*
X5017363Y-5930493D01*
X5005578Y-5921959D01*
X4994859Y-5916066D01*
G37*
G36*
X4877358Y-5321808D02*
G01*
X4908550Y-5321808D01*
X4908550Y-5264150D01*
X4850892Y-5264150D01*
X4850892Y-5295341D01*
X4851603Y-5301640D01*
X4853533Y-5307126D01*
X4856581Y-5312003D01*
X4860696Y-5316118D01*
X4865573Y-5319166D01*
X4871059Y-5321096D01*
G37*
G36*
X4997450Y-5321808D02*
G01*
X5028641Y-5321808D01*
X5034940Y-5321096D01*
X5040426Y-5319166D01*
X5045303Y-5316118D01*
X5049418Y-5312003D01*
X5052466Y-5307126D01*
X5054396Y-5301640D01*
X5055108Y-5295341D01*
X5055108Y-5264150D01*
X4997450Y-5264150D01*
G37*
G36*
X2337358Y-5321808D02*
G01*
X2488641Y-5321808D01*
X2494940Y-5321096D01*
X2500426Y-5319166D01*
X2505303Y-5316118D01*
X2509418Y-5312003D01*
X2512466Y-5307126D01*
X2514396Y-5301640D01*
X2515108Y-5295341D01*
X2515108Y-5144058D01*
X2514396Y-5137759D01*
X2512466Y-5132273D01*
X2509418Y-5127396D01*
X2505303Y-5123281D01*
X2500426Y-5120233D01*
X2494940Y-5118303D01*
X2488641Y-5117592D01*
X2337358Y-5117592D01*
X2331059Y-5118303D01*
X2325573Y-5120233D01*
X2320696Y-5123281D01*
X2316581Y-5127396D01*
X2313533Y-5132273D01*
X2311603Y-5137759D01*
X2310892Y-5144058D01*
X2310892Y-5295341D01*
X2311603Y-5301640D01*
X2313533Y-5307126D01*
X2316581Y-5312003D01*
X2320696Y-5316118D01*
X2325573Y-5319166D01*
X2331059Y-5321096D01*
G37*
G36*
X4997450Y-5175250D02*
G01*
X5055108Y-5175250D01*
X5055108Y-5144058D01*
X5054396Y-5137759D01*
X5052466Y-5132273D01*
X5049418Y-5127396D01*
X5045303Y-5123281D01*
X5040426Y-5120233D01*
X5034940Y-5118303D01*
X5028641Y-5117592D01*
X4997450Y-5117592D01*
G37*
G36*
X4850892Y-5175250D02*
G01*
X4908550Y-5175250D01*
X4908550Y-5117592D01*
X4877358Y-5117592D01*
X4871059Y-5118303D01*
X4865573Y-5120233D01*
X4860696Y-5123281D01*
X4856581Y-5127396D01*
X4853533Y-5132273D01*
X4851603Y-5137759D01*
X4850892Y-5144058D01*
G37*
G36*
X2337358Y-5067808D02*
G01*
X2488641Y-5067808D01*
X2494940Y-5067096D01*
X2500426Y-5065166D01*
X2505303Y-5062118D01*
X2509418Y-5058003D01*
X2512466Y-5053126D01*
X2514396Y-5047640D01*
X2515108Y-5041341D01*
X2515108Y-4890058D01*
X2514396Y-4883759D01*
X2512466Y-4878273D01*
X2509418Y-4873396D01*
X2505303Y-4869281D01*
X2500426Y-4866233D01*
X2494940Y-4864303D01*
X2488641Y-4863592D01*
X2337358Y-4863592D01*
X2331059Y-4864303D01*
X2325573Y-4866233D01*
X2320696Y-4869281D01*
X2316581Y-4873396D01*
X2313533Y-4878273D01*
X2311603Y-4883759D01*
X2310892Y-4890058D01*
X2310892Y-5041341D01*
X2311603Y-5047640D01*
X2313533Y-5053126D01*
X2316581Y-5058003D01*
X2320696Y-5062118D01*
X2325573Y-5065166D01*
X2331059Y-5067096D01*
G37*
G36*
X4877358Y-5067808D02*
G01*
X5028641Y-5067808D01*
X5034940Y-5067096D01*
X5040426Y-5065166D01*
X5045303Y-5062118D01*
X5049418Y-5058003D01*
X5052466Y-5053126D01*
X5054396Y-5047640D01*
X5055108Y-5041341D01*
X5055108Y-4890058D01*
X5054396Y-4883759D01*
X5052466Y-4878273D01*
X5049418Y-4873396D01*
X5045303Y-4869281D01*
X5040426Y-4866233D01*
X5034940Y-4864303D01*
X5028641Y-4863592D01*
X4877358Y-4863592D01*
X4871059Y-4864303D01*
X4865573Y-4866233D01*
X4860696Y-4869281D01*
X4856581Y-4873396D01*
X4853533Y-4878273D01*
X4851603Y-4883759D01*
X4850892Y-4890058D01*
X4850892Y-5041341D01*
X4851603Y-5047640D01*
X4853533Y-5053126D01*
X4856581Y-5058003D01*
X4860696Y-5062118D01*
X4865573Y-5065166D01*
X4871059Y-5067096D01*
G37*
G36*
X1697228Y-5048656D02*
G01*
X1710334Y-5048656D01*
X1723288Y-5046878D01*
X1735886Y-5043373D01*
X1747875Y-5038140D01*
X1759051Y-5031333D01*
X1769211Y-5023053D01*
X1778152Y-5013502D01*
X1785721Y-5002834D01*
X1791716Y-4991201D01*
X1796084Y-4978857D01*
X1798777Y-4966055D01*
X1799640Y-4953000D01*
X1798777Y-4939944D01*
X1796084Y-4927142D01*
X1791716Y-4914798D01*
X1785721Y-4903165D01*
X1778152Y-4892497D01*
X1769211Y-4882946D01*
X1759051Y-4874666D01*
X1747875Y-4867859D01*
X1735886Y-4862677D01*
X1723288Y-4859121D01*
X1710334Y-4857343D01*
X1697228Y-4857343D01*
X1684274Y-4859121D01*
X1671675Y-4862677D01*
X1659686Y-4867859D01*
X1648460Y-4874666D01*
X1638350Y-4882946D01*
X1629410Y-4892497D01*
X1621840Y-4903165D01*
X1615846Y-4914798D01*
X1611426Y-4927142D01*
X1608785Y-4939944D01*
X1607870Y-4953000D01*
X1608785Y-4966055D01*
X1611426Y-4978857D01*
X1615846Y-4991201D01*
X1621840Y-5002834D01*
X1629410Y-5013502D01*
X1638350Y-5023053D01*
X1648460Y-5031333D01*
X1659686Y-5038140D01*
X1671675Y-5043373D01*
X1684274Y-5046878D01*
G37*
G36*
X677265Y-5048656D02*
G01*
X690372Y-5048656D01*
X703326Y-5046878D01*
X715924Y-5043373D01*
X727913Y-5038140D01*
X739140Y-5031333D01*
X749249Y-5023053D01*
X758190Y-5013502D01*
X765759Y-5002834D01*
X771753Y-4991201D01*
X776173Y-4978857D01*
X778814Y-4966055D01*
X779729Y-4953000D01*
X778814Y-4939944D01*
X776173Y-4927142D01*
X771753Y-4914798D01*
X765759Y-4903165D01*
X758190Y-4892497D01*
X749249Y-4882946D01*
X739140Y-4874666D01*
X727913Y-4867859D01*
X715924Y-4862677D01*
X703326Y-4859121D01*
X690372Y-4857343D01*
X677265Y-4857343D01*
X664311Y-4859121D01*
X651713Y-4862677D01*
X639724Y-4867859D01*
X628548Y-4874666D01*
X618388Y-4882946D01*
X609447Y-4892497D01*
X601878Y-4903165D01*
X595884Y-4914798D01*
X591515Y-4927142D01*
X588822Y-4939944D01*
X587959Y-4953000D01*
X588822Y-4966055D01*
X591515Y-4978857D01*
X595884Y-4991201D01*
X601878Y-5002834D01*
X609447Y-5013502D01*
X618388Y-5023053D01*
X628548Y-5031333D01*
X639724Y-5038140D01*
X651713Y-5043373D01*
X664311Y-5046878D01*
G37*
G36*
X4877358Y-4813808D02*
G01*
X5028641Y-4813808D01*
X5034940Y-4813096D01*
X5040426Y-4811166D01*
X5045303Y-4808118D01*
X5049418Y-4804003D01*
X5052466Y-4799126D01*
X5054396Y-4793640D01*
X5055108Y-4787341D01*
X5055108Y-4636058D01*
X5054396Y-4629759D01*
X5052466Y-4624273D01*
X5049418Y-4619396D01*
X5045303Y-4615281D01*
X5040426Y-4612233D01*
X5034940Y-4610303D01*
X5028641Y-4609592D01*
X4877358Y-4609592D01*
X4871059Y-4610303D01*
X4865573Y-4612233D01*
X4860696Y-4615281D01*
X4856581Y-4619396D01*
X4853533Y-4624273D01*
X4851603Y-4629759D01*
X4850892Y-4636058D01*
X4850892Y-4787341D01*
X4851603Y-4793640D01*
X4853533Y-4799126D01*
X4856581Y-4804003D01*
X4860696Y-4808118D01*
X4865573Y-4811166D01*
X4871059Y-4813096D01*
G37*
G36*
X2337358Y-4813808D02*
G01*
X2488641Y-4813808D01*
X2494940Y-4813096D01*
X2500426Y-4811166D01*
X2505303Y-4808118D01*
X2509418Y-4804003D01*
X2512466Y-4799126D01*
X2514396Y-4793640D01*
X2515108Y-4787341D01*
X2515108Y-4636058D01*
X2514396Y-4629759D01*
X2512466Y-4624273D01*
X2509418Y-4619396D01*
X2505303Y-4615281D01*
X2500426Y-4612233D01*
X2494940Y-4610303D01*
X2488641Y-4609592D01*
X2337358Y-4609592D01*
X2331059Y-4610303D01*
X2325573Y-4612233D01*
X2320696Y-4615281D01*
X2316581Y-4619396D01*
X2313533Y-4624273D01*
X2311603Y-4629759D01*
X2310892Y-4636058D01*
X2310892Y-4787341D01*
X2311603Y-4793640D01*
X2313533Y-4799126D01*
X2316581Y-4804003D01*
X2320696Y-4808118D01*
X2325573Y-4811166D01*
X2331059Y-4813096D01*
G37*
G36*
X6027420Y-4805578D02*
G01*
X6034024Y-4802327D01*
X6045403Y-4794707D01*
X6055664Y-4785664D01*
X6064707Y-4775403D01*
X6072327Y-4764024D01*
X6075578Y-4757420D01*
X6027420Y-4757420D01*
G37*
G36*
X5935980Y-4805578D02*
G01*
X5935980Y-4757420D01*
X5887821Y-4757420D01*
X5891072Y-4764024D01*
X5898692Y-4775403D01*
X5907735Y-4785664D01*
X5917996Y-4794707D01*
X5929376Y-4802327D01*
G37*
G36*
X5887821Y-4665980D02*
G01*
X5935980Y-4665980D01*
X5935980Y-4617821D01*
X5929376Y-4621072D01*
X5917996Y-4628692D01*
X5907735Y-4637735D01*
X5898692Y-4647996D01*
X5891072Y-4659376D01*
G37*
G36*
X6027420Y-4665980D02*
G01*
X6075578Y-4665980D01*
X6072327Y-4659376D01*
X6064707Y-4647996D01*
X6055664Y-4637735D01*
X6045403Y-4628692D01*
X6034024Y-4621072D01*
X6027420Y-4617821D01*
G37*
G36*
X5981700Y-4562348D02*
G01*
X5995365Y-4561433D01*
X6008776Y-4558741D01*
X6021730Y-4554372D01*
X6034024Y-4548327D01*
X6045403Y-4540707D01*
X6055664Y-4531664D01*
X6064707Y-4521403D01*
X6072327Y-4510024D01*
X6078372Y-4497730D01*
X6082741Y-4484776D01*
X6085433Y-4471365D01*
X6086348Y-4457700D01*
X6085433Y-4444034D01*
X6082741Y-4430623D01*
X6078372Y-4417669D01*
X6072327Y-4405376D01*
X6064707Y-4393996D01*
X6055664Y-4383735D01*
X6045403Y-4374692D01*
X6034024Y-4367072D01*
X6021730Y-4361027D01*
X6008776Y-4356658D01*
X5995365Y-4353966D01*
X5981700Y-4353052D01*
X5968034Y-4353966D01*
X5954623Y-4356658D01*
X5941669Y-4361027D01*
X5929376Y-4367072D01*
X5917996Y-4374692D01*
X5907735Y-4383735D01*
X5898692Y-4393996D01*
X5891072Y-4405376D01*
X5885027Y-4417669D01*
X5880658Y-4430623D01*
X5877966Y-4444034D01*
X5877052Y-4457700D01*
X5877966Y-4471365D01*
X5880658Y-4484776D01*
X5885027Y-4497730D01*
X5891072Y-4510024D01*
X5898692Y-4521403D01*
X5907735Y-4531664D01*
X5917996Y-4540707D01*
X5929376Y-4548327D01*
X5941669Y-4554372D01*
X5954623Y-4558741D01*
X5968034Y-4561433D01*
G37*
G36*
X4877358Y-4559808D02*
G01*
X5028641Y-4559808D01*
X5034940Y-4559096D01*
X5040426Y-4557166D01*
X5045303Y-4554118D01*
X5049418Y-4550003D01*
X5052466Y-4545126D01*
X5054396Y-4539640D01*
X5055108Y-4533341D01*
X5055108Y-4382058D01*
X5054396Y-4375759D01*
X5052466Y-4370273D01*
X5049418Y-4365396D01*
X5045303Y-4361281D01*
X5040426Y-4358233D01*
X5034940Y-4356303D01*
X5028641Y-4355592D01*
X4877358Y-4355592D01*
X4871059Y-4356303D01*
X4865573Y-4358233D01*
X4860696Y-4361281D01*
X4856581Y-4365396D01*
X4853533Y-4370273D01*
X4851603Y-4375759D01*
X4850892Y-4382058D01*
X4850892Y-4533341D01*
X4851603Y-4539640D01*
X4853533Y-4545126D01*
X4856581Y-4550003D01*
X4860696Y-4554118D01*
X4865573Y-4557166D01*
X4871059Y-4559096D01*
G37*
G36*
X2337358Y-4559808D02*
G01*
X2488641Y-4559808D01*
X2494940Y-4559096D01*
X2500426Y-4557166D01*
X2505303Y-4554118D01*
X2509418Y-4550003D01*
X2512466Y-4545126D01*
X2514396Y-4539640D01*
X2515108Y-4533341D01*
X2515108Y-4382058D01*
X2514396Y-4375759D01*
X2512466Y-4370273D01*
X2509418Y-4365396D01*
X2505303Y-4361281D01*
X2500426Y-4358233D01*
X2494940Y-4356303D01*
X2488641Y-4355592D01*
X2337358Y-4355592D01*
X2331059Y-4356303D01*
X2325573Y-4358233D01*
X2320696Y-4361281D01*
X2316581Y-4365396D01*
X2313533Y-4370273D01*
X2311603Y-4375759D01*
X2310892Y-4382058D01*
X2310892Y-4533341D01*
X2311603Y-4539640D01*
X2313533Y-4545126D01*
X2316581Y-4550003D01*
X2320696Y-4554118D01*
X2325573Y-4557166D01*
X2331059Y-4559096D01*
G37*
G36*
X5903518Y-4308348D02*
G01*
X6059881Y-4308348D01*
X6066180Y-4307636D01*
X6071666Y-4305706D01*
X6076543Y-4302658D01*
X6080658Y-4298543D01*
X6083706Y-4293666D01*
X6085636Y-4288180D01*
X6086348Y-4281881D01*
X6086348Y-4125518D01*
X6085636Y-4119219D01*
X6083706Y-4113733D01*
X6080658Y-4108856D01*
X6076543Y-4104741D01*
X6071666Y-4101693D01*
X6066180Y-4099763D01*
X6059881Y-4099051D01*
X5903518Y-4099051D01*
X5897219Y-4099763D01*
X5891733Y-4101693D01*
X5886856Y-4104741D01*
X5882741Y-4108856D01*
X5879693Y-4113733D01*
X5877763Y-4119219D01*
X5877052Y-4125518D01*
X5877052Y-4281881D01*
X5877763Y-4288180D01*
X5879693Y-4293666D01*
X5882741Y-4298543D01*
X5886856Y-4302658D01*
X5891733Y-4305706D01*
X5897219Y-4307636D01*
G37*
G36*
X4877358Y-4305808D02*
G01*
X5028641Y-4305808D01*
X5034940Y-4305096D01*
X5040426Y-4303166D01*
X5045303Y-4300118D01*
X5049418Y-4296003D01*
X5052466Y-4291126D01*
X5054396Y-4285640D01*
X5055108Y-4279341D01*
X5055108Y-4128058D01*
X5054396Y-4121759D01*
X5052466Y-4116273D01*
X5049418Y-4111396D01*
X5045303Y-4107281D01*
X5040426Y-4104233D01*
X5034940Y-4102303D01*
X5028641Y-4101592D01*
X4877358Y-4101592D01*
X4871059Y-4102303D01*
X4865573Y-4104233D01*
X4860696Y-4107281D01*
X4856581Y-4111396D01*
X4853533Y-4116273D01*
X4851603Y-4121759D01*
X4850892Y-4128058D01*
X4850892Y-4279341D01*
X4851603Y-4285640D01*
X4853533Y-4291126D01*
X4856581Y-4296003D01*
X4860696Y-4300118D01*
X4865573Y-4303166D01*
X4871059Y-4305096D01*
G37*
G36*
X2337358Y-4305808D02*
G01*
X2488641Y-4305808D01*
X2494940Y-4305096D01*
X2500426Y-4303166D01*
X2505303Y-4300118D01*
X2509418Y-4296003D01*
X2512466Y-4291126D01*
X2514396Y-4285640D01*
X2515108Y-4279341D01*
X2515108Y-4128058D01*
X2514396Y-4121759D01*
X2512466Y-4116273D01*
X2509418Y-4111396D01*
X2505303Y-4107281D01*
X2500426Y-4104233D01*
X2494940Y-4102303D01*
X2488641Y-4101592D01*
X2337358Y-4101592D01*
X2331059Y-4102303D01*
X2325573Y-4104233D01*
X2320696Y-4107281D01*
X2316581Y-4111396D01*
X2313533Y-4116273D01*
X2311603Y-4121759D01*
X2310892Y-4128058D01*
X2310892Y-4279341D01*
X2311603Y-4285640D01*
X2313533Y-4291126D01*
X2316581Y-4296003D01*
X2320696Y-4300118D01*
X2325573Y-4303166D01*
X2331059Y-4305096D01*
G37*
G36*
X4877358Y-4051808D02*
G01*
X5028641Y-4051808D01*
X5034940Y-4051096D01*
X5040426Y-4049166D01*
X5045303Y-4046118D01*
X5049418Y-4042003D01*
X5052466Y-4037126D01*
X5054396Y-4031640D01*
X5055108Y-4025341D01*
X5055108Y-3874058D01*
X5054396Y-3867759D01*
X5052466Y-3862273D01*
X5049418Y-3857396D01*
X5045303Y-3853281D01*
X5040426Y-3850233D01*
X5034940Y-3848303D01*
X5028641Y-3847592D01*
X4877358Y-3847592D01*
X4871059Y-3848303D01*
X4865573Y-3850233D01*
X4860696Y-3853281D01*
X4856581Y-3857396D01*
X4853533Y-3862273D01*
X4851603Y-3867759D01*
X4850892Y-3874058D01*
X4850892Y-4025341D01*
X4851603Y-4031640D01*
X4853533Y-4037126D01*
X4856581Y-4042003D01*
X4860696Y-4046118D01*
X4865573Y-4049166D01*
X4871059Y-4051096D01*
G37*
G36*
X2337358Y-4051808D02*
G01*
X2488641Y-4051808D01*
X2494940Y-4051096D01*
X2500426Y-4049166D01*
X2505303Y-4046118D01*
X2509418Y-4042003D01*
X2512466Y-4037126D01*
X2514396Y-4031640D01*
X2515108Y-4025341D01*
X2515108Y-3874058D01*
X2514396Y-3867759D01*
X2512466Y-3862273D01*
X2509418Y-3857396D01*
X2505303Y-3853281D01*
X2500426Y-3850233D01*
X2494940Y-3848303D01*
X2488641Y-3847592D01*
X2337358Y-3847592D01*
X2331059Y-3848303D01*
X2325573Y-3850233D01*
X2320696Y-3853281D01*
X2316581Y-3857396D01*
X2313533Y-3862273D01*
X2311603Y-3867759D01*
X2310892Y-3874058D01*
X2310892Y-4025341D01*
X2311603Y-4031640D01*
X2313533Y-4037126D01*
X2316581Y-4042003D01*
X2320696Y-4046118D01*
X2325573Y-4049166D01*
X2331059Y-4051096D01*
G37*
G36*
X2337358Y-3797808D02*
G01*
X2488641Y-3797808D01*
X2494940Y-3797096D01*
X2500426Y-3795166D01*
X2505303Y-3792118D01*
X2509418Y-3788003D01*
X2512466Y-3783126D01*
X2514396Y-3777640D01*
X2515108Y-3771341D01*
X2515108Y-3620058D01*
X2514396Y-3613759D01*
X2512466Y-3608273D01*
X2509418Y-3603396D01*
X2505303Y-3599281D01*
X2500426Y-3596233D01*
X2494940Y-3594303D01*
X2488641Y-3593592D01*
X2337358Y-3593592D01*
X2331059Y-3594303D01*
X2325573Y-3596233D01*
X2320696Y-3599281D01*
X2316581Y-3603396D01*
X2313533Y-3608273D01*
X2311603Y-3613759D01*
X2310892Y-3620058D01*
X2310892Y-3771341D01*
X2311603Y-3777640D01*
X2313533Y-3783126D01*
X2316581Y-3788003D01*
X2320696Y-3792118D01*
X2325573Y-3795166D01*
X2331059Y-3797096D01*
G37*
G36*
X4877358Y-3797808D02*
G01*
X5028641Y-3797808D01*
X5034940Y-3797096D01*
X5040426Y-3795166D01*
X5045303Y-3792118D01*
X5049418Y-3788003D01*
X5052466Y-3783126D01*
X5054396Y-3777640D01*
X5055108Y-3771341D01*
X5055108Y-3620058D01*
X5054396Y-3613759D01*
X5052466Y-3608273D01*
X5049418Y-3603396D01*
X5045303Y-3599281D01*
X5040426Y-3596233D01*
X5034940Y-3594303D01*
X5028641Y-3593592D01*
X4877358Y-3593592D01*
X4871059Y-3594303D01*
X4865573Y-3596233D01*
X4860696Y-3599281D01*
X4856581Y-3603396D01*
X4853533Y-3608273D01*
X4851603Y-3613759D01*
X4850892Y-3620058D01*
X4850892Y-3771341D01*
X4851603Y-3777640D01*
X4853533Y-3783126D01*
X4856581Y-3788003D01*
X4860696Y-3792118D01*
X4865573Y-3795166D01*
X4871059Y-3797096D01*
G37*
G36*
X4877358Y-3543808D02*
G01*
X5028641Y-3543808D01*
X5034940Y-3543096D01*
X5040426Y-3541166D01*
X5045303Y-3538118D01*
X5049418Y-3534003D01*
X5052466Y-3529126D01*
X5054396Y-3523640D01*
X5055108Y-3517341D01*
X5055108Y-3366058D01*
X5054396Y-3359759D01*
X5052466Y-3354273D01*
X5049418Y-3349396D01*
X5045303Y-3345281D01*
X5040426Y-3342233D01*
X5034940Y-3340303D01*
X5028641Y-3339592D01*
X4877358Y-3339592D01*
X4871059Y-3340303D01*
X4865573Y-3342233D01*
X4860696Y-3345281D01*
X4856581Y-3349396D01*
X4853533Y-3354273D01*
X4851603Y-3359759D01*
X4850892Y-3366058D01*
X4850892Y-3517341D01*
X4851603Y-3523640D01*
X4853533Y-3529126D01*
X4856581Y-3534003D01*
X4860696Y-3538118D01*
X4865573Y-3541166D01*
X4871059Y-3543096D01*
G37*
G36*
X2337358Y-3543808D02*
G01*
X2488641Y-3543808D01*
X2494940Y-3543096D01*
X2500426Y-3541166D01*
X2505303Y-3538118D01*
X2509418Y-3534003D01*
X2512466Y-3529126D01*
X2514396Y-3523640D01*
X2515108Y-3517341D01*
X2515108Y-3366058D01*
X2514396Y-3359759D01*
X2512466Y-3354273D01*
X2509418Y-3349396D01*
X2505303Y-3345281D01*
X2500426Y-3342233D01*
X2494940Y-3340303D01*
X2488641Y-3339592D01*
X2337358Y-3339592D01*
X2331059Y-3340303D01*
X2325573Y-3342233D01*
X2320696Y-3345281D01*
X2316581Y-3349396D01*
X2313533Y-3354273D01*
X2311603Y-3359759D01*
X2310892Y-3366058D01*
X2310892Y-3517341D01*
X2311603Y-3523640D01*
X2313533Y-3529126D01*
X2316581Y-3534003D01*
X2320696Y-3538118D01*
X2325573Y-3541166D01*
X2331059Y-3543096D01*
G37*
G36*
X2337358Y-3289808D02*
G01*
X2488641Y-3289808D01*
X2494940Y-3289096D01*
X2500426Y-3287166D01*
X2505303Y-3284118D01*
X2509418Y-3280003D01*
X2512466Y-3275126D01*
X2514396Y-3269640D01*
X2515108Y-3263341D01*
X2515108Y-3112058D01*
X2514396Y-3105759D01*
X2512466Y-3100273D01*
X2509418Y-3095396D01*
X2505303Y-3091281D01*
X2500426Y-3088233D01*
X2494940Y-3086303D01*
X2488641Y-3085592D01*
X2337358Y-3085592D01*
X2331059Y-3086303D01*
X2325573Y-3088233D01*
X2320696Y-3091281D01*
X2316581Y-3095396D01*
X2313533Y-3100273D01*
X2311603Y-3105759D01*
X2310892Y-3112058D01*
X2310892Y-3263341D01*
X2311603Y-3269640D01*
X2313533Y-3275126D01*
X2316581Y-3280003D01*
X2320696Y-3284118D01*
X2325573Y-3287166D01*
X2331059Y-3289096D01*
G37*
G36*
X4877358Y-3289808D02*
G01*
X5028641Y-3289808D01*
X5034940Y-3289096D01*
X5040426Y-3287166D01*
X5045303Y-3284118D01*
X5049418Y-3280003D01*
X5052466Y-3275126D01*
X5054396Y-3269640D01*
X5055108Y-3263341D01*
X5055108Y-3112058D01*
X5054396Y-3105759D01*
X5052466Y-3100273D01*
X5049418Y-3095396D01*
X5045303Y-3091281D01*
X5040426Y-3088233D01*
X5034940Y-3086303D01*
X5028641Y-3085592D01*
X4877358Y-3085592D01*
X4871059Y-3086303D01*
X4865573Y-3088233D01*
X4860696Y-3091281D01*
X4856581Y-3095396D01*
X4853533Y-3100273D01*
X4851603Y-3105759D01*
X4850892Y-3112058D01*
X4850892Y-3263341D01*
X4851603Y-3269640D01*
X4853533Y-3275126D01*
X4856581Y-3280003D01*
X4860696Y-3284118D01*
X4865573Y-3287166D01*
X4871059Y-3289096D01*
G37*
G36*
X2337358Y-3035808D02*
G01*
X2488641Y-3035808D01*
X2494940Y-3035096D01*
X2500426Y-3033166D01*
X2505303Y-3030118D01*
X2509418Y-3026003D01*
X2512466Y-3021126D01*
X2514396Y-3015640D01*
X2515108Y-3009341D01*
X2515108Y-2858058D01*
X2514396Y-2851759D01*
X2512466Y-2846273D01*
X2509418Y-2841396D01*
X2505303Y-2837281D01*
X2500426Y-2834233D01*
X2494940Y-2832303D01*
X2488641Y-2831592D01*
X2337358Y-2831592D01*
X2331059Y-2832303D01*
X2325573Y-2834233D01*
X2320696Y-2837281D01*
X2316581Y-2841396D01*
X2313533Y-2846273D01*
X2311603Y-2851759D01*
X2310892Y-2858058D01*
X2310892Y-3009341D01*
X2311603Y-3015640D01*
X2313533Y-3021126D01*
X2316581Y-3026003D01*
X2320696Y-3030118D01*
X2325573Y-3033166D01*
X2331059Y-3035096D01*
G37*
G36*
X4877358Y-3035808D02*
G01*
X5028641Y-3035808D01*
X5034940Y-3035096D01*
X5040426Y-3033166D01*
X5045303Y-3030118D01*
X5049418Y-3026003D01*
X5052466Y-3021126D01*
X5054396Y-3015640D01*
X5055108Y-3009341D01*
X5055108Y-2858058D01*
X5054396Y-2851759D01*
X5052466Y-2846273D01*
X5049418Y-2841396D01*
X5045303Y-2837281D01*
X5040426Y-2834233D01*
X5034940Y-2832303D01*
X5028641Y-2831592D01*
X4877358Y-2831592D01*
X4871059Y-2832303D01*
X4865573Y-2834233D01*
X4860696Y-2837281D01*
X4856581Y-2841396D01*
X4853533Y-2846273D01*
X4851603Y-2851759D01*
X4850892Y-2858058D01*
X4850892Y-3009341D01*
X4851603Y-3015640D01*
X4853533Y-3021126D01*
X4856581Y-3026003D01*
X4860696Y-3030118D01*
X4865573Y-3033166D01*
X4871059Y-3035096D01*
G37*
G36*
X5892292Y-2782925D02*
G01*
X5930341Y-2782925D01*
X5930341Y-2718358D01*
X5865774Y-2718358D01*
X5865774Y-2756408D01*
X5866485Y-2762758D01*
X5868416Y-2768193D01*
X5871514Y-2773121D01*
X5875578Y-2777185D01*
X5880506Y-2780284D01*
X5885942Y-2782214D01*
G37*
G36*
X6033058Y-2782925D02*
G01*
X6071108Y-2782925D01*
X6077458Y-2782214D01*
X6082893Y-2780284D01*
X6087821Y-2777185D01*
X6091885Y-2773121D01*
X6094984Y-2768193D01*
X6096914Y-2762758D01*
X6097625Y-2756408D01*
X6097625Y-2718358D01*
X6033058Y-2718358D01*
G37*
G36*
X2337358Y-2781808D02*
G01*
X2488641Y-2781808D01*
X2494940Y-2781096D01*
X2500426Y-2779166D01*
X2505303Y-2776118D01*
X2509418Y-2772003D01*
X2512466Y-2767126D01*
X2514396Y-2761640D01*
X2515108Y-2755341D01*
X2515108Y-2604058D01*
X2514396Y-2597759D01*
X2512466Y-2592273D01*
X2509418Y-2587396D01*
X2505303Y-2583281D01*
X2500426Y-2580233D01*
X2494940Y-2578303D01*
X2488641Y-2577592D01*
X2337358Y-2577592D01*
X2331059Y-2578303D01*
X2325573Y-2580233D01*
X2320696Y-2583281D01*
X2316581Y-2587396D01*
X2313533Y-2592273D01*
X2311603Y-2597759D01*
X2310892Y-2604058D01*
X2310892Y-2755341D01*
X2311603Y-2761640D01*
X2313533Y-2767126D01*
X2316581Y-2772003D01*
X2320696Y-2776118D01*
X2325573Y-2779166D01*
X2331059Y-2781096D01*
G37*
G36*
X4877358Y-2781808D02*
G01*
X5028641Y-2781808D01*
X5034940Y-2781096D01*
X5040426Y-2779166D01*
X5045303Y-2776118D01*
X5049418Y-2772003D01*
X5052466Y-2767126D01*
X5054396Y-2761640D01*
X5055108Y-2755341D01*
X5055108Y-2604058D01*
X5054396Y-2597759D01*
X5052466Y-2592273D01*
X5049418Y-2587396D01*
X5045303Y-2583281D01*
X5040426Y-2580233D01*
X5034940Y-2578303D01*
X5028641Y-2577592D01*
X4877358Y-2577592D01*
X4871059Y-2578303D01*
X4865573Y-2580233D01*
X4860696Y-2583281D01*
X4856581Y-2587396D01*
X4853533Y-2592273D01*
X4851603Y-2597759D01*
X4850892Y-2604058D01*
X4850892Y-2755341D01*
X4851603Y-2761640D01*
X4853533Y-2767126D01*
X4856581Y-2772003D01*
X4860696Y-2776118D01*
X4865573Y-2779166D01*
X4871059Y-2781096D01*
G37*
G36*
X6033058Y-2615641D02*
G01*
X6097625Y-2615641D01*
X6097625Y-2577592D01*
X6096914Y-2571242D01*
X6094984Y-2565806D01*
X6091885Y-2560878D01*
X6087821Y-2556814D01*
X6082893Y-2553716D01*
X6077458Y-2551785D01*
X6071108Y-2551074D01*
X6033058Y-2551074D01*
G37*
G36*
X5865774Y-2615641D02*
G01*
X5930341Y-2615641D01*
X5930341Y-2551074D01*
X5892292Y-2551074D01*
X5885942Y-2551785D01*
X5880506Y-2553716D01*
X5875578Y-2556814D01*
X5871514Y-2560878D01*
X5868416Y-2565806D01*
X5866485Y-2571242D01*
X5865774Y-2577592D01*
G37*
G36*
X5981700Y-2528874D02*
G01*
X5996228Y-2527960D01*
X6010503Y-2525268D01*
X6024372Y-2520746D01*
X6037529Y-2514549D01*
X6049822Y-2506776D01*
X6061049Y-2497480D01*
X6071006Y-2486863D01*
X6079540Y-2475077D01*
X6086551Y-2462326D01*
X6091936Y-2448814D01*
X6095542Y-2434691D01*
X6097371Y-2420264D01*
X6097371Y-2405735D01*
X6095542Y-2391308D01*
X6091936Y-2377186D01*
X6086551Y-2363673D01*
X6079540Y-2350922D01*
X6071006Y-2339136D01*
X6061049Y-2328519D01*
X6049822Y-2319223D01*
X6037529Y-2311450D01*
X6024372Y-2305253D01*
X6010503Y-2300732D01*
X5996228Y-2298039D01*
X5981700Y-2297125D01*
X5967171Y-2298039D01*
X5952896Y-2300732D01*
X5939028Y-2305253D01*
X5925870Y-2311450D01*
X5913577Y-2319223D01*
X5902350Y-2328519D01*
X5892393Y-2339136D01*
X5883859Y-2350922D01*
X5876848Y-2363673D01*
X5871464Y-2377186D01*
X5867857Y-2391308D01*
X5866028Y-2405735D01*
X5866028Y-2420264D01*
X5867857Y-2434691D01*
X5871464Y-2448814D01*
X5876848Y-2462326D01*
X5883859Y-2475077D01*
X5892393Y-2486863D01*
X5902350Y-2497480D01*
X5913577Y-2506776D01*
X5925870Y-2514549D01*
X5939028Y-2520746D01*
X5952896Y-2525268D01*
X5967171Y-2527960D01*
G37*
G36*
X2337358Y-2527808D02*
G01*
X2488641Y-2527808D01*
X2494940Y-2527096D01*
X2500426Y-2525166D01*
X2505303Y-2522118D01*
X2509418Y-2518003D01*
X2512466Y-2513126D01*
X2514396Y-2507640D01*
X2515108Y-2501341D01*
X2515108Y-2350058D01*
X2514396Y-2343759D01*
X2512466Y-2338273D01*
X2509418Y-2333396D01*
X2505303Y-2329281D01*
X2500426Y-2326233D01*
X2494940Y-2324303D01*
X2488641Y-2323592D01*
X2337358Y-2323592D01*
X2331059Y-2324303D01*
X2325573Y-2326233D01*
X2320696Y-2329281D01*
X2316581Y-2333396D01*
X2313533Y-2338273D01*
X2311603Y-2343759D01*
X2310892Y-2350058D01*
X2310892Y-2501341D01*
X2311603Y-2507640D01*
X2313533Y-2513126D01*
X2316581Y-2518003D01*
X2320696Y-2522118D01*
X2325573Y-2525166D01*
X2331059Y-2527096D01*
G37*
G36*
X4877358Y-2527808D02*
G01*
X5028641Y-2527808D01*
X5034940Y-2527096D01*
X5040426Y-2525166D01*
X5045303Y-2522118D01*
X5049418Y-2518003D01*
X5052466Y-2513126D01*
X5054396Y-2507640D01*
X5055108Y-2501341D01*
X5055108Y-2350058D01*
X5054396Y-2343759D01*
X5052466Y-2338273D01*
X5049418Y-2333396D01*
X5045303Y-2329281D01*
X5040426Y-2326233D01*
X5034940Y-2324303D01*
X5028641Y-2323592D01*
X4877358Y-2323592D01*
X4871059Y-2324303D01*
X4865573Y-2326233D01*
X4860696Y-2329281D01*
X4856581Y-2333396D01*
X4853533Y-2338273D01*
X4851603Y-2343759D01*
X4850892Y-2350058D01*
X4850892Y-2501341D01*
X4851603Y-2507640D01*
X4853533Y-2513126D01*
X4856581Y-2518003D01*
X4860696Y-2522118D01*
X4865573Y-2525166D01*
X4871059Y-2527096D01*
G37*
G36*
X2337358Y-2273808D02*
G01*
X2488641Y-2273808D01*
X2494940Y-2273096D01*
X2500426Y-2271166D01*
X2505303Y-2268118D01*
X2509418Y-2264003D01*
X2512466Y-2259126D01*
X2514396Y-2253640D01*
X2515108Y-2247341D01*
X2515108Y-2096058D01*
X2514396Y-2089759D01*
X2512466Y-2084273D01*
X2509418Y-2079396D01*
X2505303Y-2075281D01*
X2500426Y-2072233D01*
X2494940Y-2070303D01*
X2488641Y-2069592D01*
X2337358Y-2069592D01*
X2331059Y-2070303D01*
X2325573Y-2072233D01*
X2320696Y-2075281D01*
X2316581Y-2079396D01*
X2313533Y-2084273D01*
X2311603Y-2089759D01*
X2310892Y-2096058D01*
X2310892Y-2247341D01*
X2311603Y-2253640D01*
X2313533Y-2259126D01*
X2316581Y-2264003D01*
X2320696Y-2268118D01*
X2325573Y-2271166D01*
X2331059Y-2273096D01*
G37*
G36*
X4877358Y-2273808D02*
G01*
X5028641Y-2273808D01*
X5034940Y-2273096D01*
X5040426Y-2271166D01*
X5045303Y-2268118D01*
X5049418Y-2264003D01*
X5052466Y-2259126D01*
X5054396Y-2253640D01*
X5055108Y-2247341D01*
X5055108Y-2096058D01*
X5054396Y-2089759D01*
X5052466Y-2084273D01*
X5049418Y-2079396D01*
X5045303Y-2075281D01*
X5040426Y-2072233D01*
X5034940Y-2070303D01*
X5028641Y-2069592D01*
X4877358Y-2069592D01*
X4871059Y-2070303D01*
X4865573Y-2072233D01*
X4860696Y-2075281D01*
X4856581Y-2079396D01*
X4853533Y-2084273D01*
X4851603Y-2089759D01*
X4850892Y-2096058D01*
X4850892Y-2247341D01*
X4851603Y-2253640D01*
X4853533Y-2259126D01*
X4856581Y-2264003D01*
X4860696Y-2268118D01*
X4865573Y-2271166D01*
X4871059Y-2273096D01*
G37*
G36*
X4877358Y-2019807D02*
G01*
X5028641Y-2019807D01*
X5034940Y-2019096D01*
X5040426Y-2017166D01*
X5045303Y-2014118D01*
X5049418Y-2010003D01*
X5052466Y-2005126D01*
X5054396Y-1999640D01*
X5055108Y-1993341D01*
X5055108Y-1842058D01*
X5054396Y-1835759D01*
X5052466Y-1830273D01*
X5049418Y-1825396D01*
X5045303Y-1821281D01*
X5040426Y-1818233D01*
X5034940Y-1816303D01*
X5028641Y-1815592D01*
X4877358Y-1815592D01*
X4871059Y-1816303D01*
X4865573Y-1818233D01*
X4860696Y-1821281D01*
X4856581Y-1825396D01*
X4853533Y-1830273D01*
X4851603Y-1835759D01*
X4850892Y-1842058D01*
X4850892Y-1993341D01*
X4851603Y-1999640D01*
X4853533Y-2005126D01*
X4856581Y-2010003D01*
X4860696Y-2014118D01*
X4865573Y-2017166D01*
X4871059Y-2019096D01*
G37*
G36*
X2337358Y-2019807D02*
G01*
X2488641Y-2019807D01*
X2494940Y-2019096D01*
X2500426Y-2017166D01*
X2505303Y-2014118D01*
X2509418Y-2010003D01*
X2512466Y-2005126D01*
X2514396Y-1999640D01*
X2515108Y-1993341D01*
X2515108Y-1842058D01*
X2514396Y-1835759D01*
X2512466Y-1830273D01*
X2509418Y-1825396D01*
X2505303Y-1821281D01*
X2500426Y-1818233D01*
X2494940Y-1816303D01*
X2488641Y-1815592D01*
X2337358Y-1815592D01*
X2331059Y-1816303D01*
X2325573Y-1818233D01*
X2320696Y-1821281D01*
X2316581Y-1825396D01*
X2313533Y-1830273D01*
X2311603Y-1835759D01*
X2310892Y-1842058D01*
X2310892Y-1993341D01*
X2311603Y-1999640D01*
X2313533Y-2005126D01*
X2316581Y-2010003D01*
X2320696Y-2014118D01*
X2325573Y-2017166D01*
X2331059Y-2019096D01*
G37*
G36*
X2337358Y-1765807D02*
G01*
X2488641Y-1765807D01*
X2494940Y-1765096D01*
X2500426Y-1763166D01*
X2505303Y-1760118D01*
X2509418Y-1756003D01*
X2512466Y-1751126D01*
X2514396Y-1745640D01*
X2515108Y-1739341D01*
X2515108Y-1588058D01*
X2514396Y-1581759D01*
X2512466Y-1576273D01*
X2509418Y-1571396D01*
X2505303Y-1567281D01*
X2500426Y-1564233D01*
X2494940Y-1562303D01*
X2488641Y-1561592D01*
X2337358Y-1561592D01*
X2331059Y-1562303D01*
X2325573Y-1564233D01*
X2320696Y-1567281D01*
X2316581Y-1571396D01*
X2313533Y-1576273D01*
X2311603Y-1581759D01*
X2310892Y-1588058D01*
X2310892Y-1739341D01*
X2311603Y-1745640D01*
X2313533Y-1751126D01*
X2316581Y-1756003D01*
X2320696Y-1760118D01*
X2325573Y-1763166D01*
X2331059Y-1765096D01*
G37*
G36*
X4877358Y-1765807D02*
G01*
X5028641Y-1765807D01*
X5034940Y-1765096D01*
X5040426Y-1763166D01*
X5045303Y-1760118D01*
X5049418Y-1756003D01*
X5052466Y-1751126D01*
X5054396Y-1745640D01*
X5055108Y-1739341D01*
X5055108Y-1588058D01*
X5054396Y-1581759D01*
X5052466Y-1576273D01*
X5049418Y-1571396D01*
X5045303Y-1567281D01*
X5040426Y-1564233D01*
X5034940Y-1562303D01*
X5028641Y-1561592D01*
X4877358Y-1561592D01*
X4871059Y-1562303D01*
X4865573Y-1564233D01*
X4860696Y-1567281D01*
X4856581Y-1571396D01*
X4853533Y-1576273D01*
X4851603Y-1581759D01*
X4850892Y-1588058D01*
X4850892Y-1739341D01*
X4851603Y-1745640D01*
X4853533Y-1751126D01*
X4856581Y-1756003D01*
X4860696Y-1760118D01*
X4865573Y-1763166D01*
X4871059Y-1765096D01*
G37*
G36*
X2337358Y-1511808D02*
G01*
X2488641Y-1511808D01*
X2494940Y-1511096D01*
X2500426Y-1509166D01*
X2505303Y-1506118D01*
X2509418Y-1502003D01*
X2512466Y-1497126D01*
X2514396Y-1491640D01*
X2515108Y-1485341D01*
X2515108Y-1334058D01*
X2514396Y-1327759D01*
X2512466Y-1322273D01*
X2509418Y-1317396D01*
X2505303Y-1313281D01*
X2500426Y-1310233D01*
X2494940Y-1308303D01*
X2488641Y-1307592D01*
X2337358Y-1307592D01*
X2331059Y-1308303D01*
X2325573Y-1310233D01*
X2320696Y-1313281D01*
X2316581Y-1317396D01*
X2313533Y-1322273D01*
X2311603Y-1327759D01*
X2310892Y-1334058D01*
X2310892Y-1485341D01*
X2311603Y-1491640D01*
X2313533Y-1497126D01*
X2316581Y-1502003D01*
X2320696Y-1506118D01*
X2325573Y-1509166D01*
X2331059Y-1511096D01*
G37*
G36*
X4877358Y-1511808D02*
G01*
X5028641Y-1511808D01*
X5034940Y-1511096D01*
X5040426Y-1509166D01*
X5045303Y-1506118D01*
X5049418Y-1502003D01*
X5052466Y-1497126D01*
X5054396Y-1491640D01*
X5055108Y-1485341D01*
X5055108Y-1334058D01*
X5054396Y-1327759D01*
X5052466Y-1322273D01*
X5049418Y-1317396D01*
X5045303Y-1313281D01*
X5040426Y-1310233D01*
X5034940Y-1308303D01*
X5028641Y-1307592D01*
X4877358Y-1307592D01*
X4871059Y-1308303D01*
X4865573Y-1310233D01*
X4860696Y-1313281D01*
X4856581Y-1317396D01*
X4853533Y-1322273D01*
X4851603Y-1327759D01*
X4850892Y-1334058D01*
X4850892Y-1485341D01*
X4851603Y-1491640D01*
X4853533Y-1497126D01*
X4856581Y-1502003D01*
X4860696Y-1506118D01*
X4865573Y-1509166D01*
X4871059Y-1511096D01*
G37*
G36*
X2337358Y-1257808D02*
G01*
X2488641Y-1257808D01*
X2494940Y-1257096D01*
X2500426Y-1255166D01*
X2505303Y-1252118D01*
X2509418Y-1248003D01*
X2512466Y-1243126D01*
X2514396Y-1237640D01*
X2515108Y-1231341D01*
X2515108Y-1080058D01*
X2514396Y-1073759D01*
X2512466Y-1068273D01*
X2509418Y-1063396D01*
X2505303Y-1059281D01*
X2500426Y-1056233D01*
X2494940Y-1054303D01*
X2488641Y-1053592D01*
X2337358Y-1053592D01*
X2331059Y-1054303D01*
X2325573Y-1056233D01*
X2320696Y-1059281D01*
X2316581Y-1063396D01*
X2313533Y-1068273D01*
X2311603Y-1073759D01*
X2310892Y-1080058D01*
X2310892Y-1231341D01*
X2311603Y-1237640D01*
X2313533Y-1243126D01*
X2316581Y-1248003D01*
X2320696Y-1252118D01*
X2325573Y-1255166D01*
X2331059Y-1257096D01*
G37*
G36*
X4877358Y-1257808D02*
G01*
X5028641Y-1257808D01*
X5034940Y-1257096D01*
X5040426Y-1255166D01*
X5045303Y-1252118D01*
X5049418Y-1248003D01*
X5052466Y-1243126D01*
X5054396Y-1237640D01*
X5055108Y-1231341D01*
X5055108Y-1080058D01*
X5054396Y-1073759D01*
X5052466Y-1068273D01*
X5049418Y-1063396D01*
X5045303Y-1059281D01*
X5040426Y-1056233D01*
X5034940Y-1054303D01*
X5028641Y-1053592D01*
X4877358Y-1053592D01*
X4871059Y-1054303D01*
X4865573Y-1056233D01*
X4860696Y-1059281D01*
X4856581Y-1063396D01*
X4853533Y-1068273D01*
X4851603Y-1073759D01*
X4850892Y-1080058D01*
X4850892Y-1231341D01*
X4851603Y-1237640D01*
X4853533Y-1243126D01*
X4856581Y-1248003D01*
X4860696Y-1252118D01*
X4865573Y-1255166D01*
X4871059Y-1257096D01*
G37*
G36*
X2337358Y-1003808D02*
G01*
X2488641Y-1003808D01*
X2494940Y-1003096D01*
X2500426Y-1001166D01*
X2505303Y-998118D01*
X2509418Y-994003D01*
X2512466Y-989126D01*
X2514396Y-983640D01*
X2515108Y-977341D01*
X2515108Y-826058D01*
X2514396Y-819759D01*
X2512466Y-814273D01*
X2509418Y-809396D01*
X2505303Y-805281D01*
X2500426Y-802233D01*
X2494940Y-800303D01*
X2488641Y-799592D01*
X2337358Y-799592D01*
X2331059Y-800303D01*
X2325573Y-802233D01*
X2320696Y-805281D01*
X2316581Y-809396D01*
X2313533Y-814273D01*
X2311603Y-819759D01*
X2310892Y-826058D01*
X2310892Y-977341D01*
X2311603Y-983640D01*
X2313533Y-989126D01*
X2316581Y-994003D01*
X2320696Y-998118D01*
X2325573Y-1001166D01*
X2331059Y-1003096D01*
G37*
G36*
X4877358Y-1003808D02*
G01*
X5028641Y-1003808D01*
X5034940Y-1003096D01*
X5040426Y-1001166D01*
X5045303Y-998118D01*
X5049418Y-994003D01*
X5052466Y-989126D01*
X5054396Y-983640D01*
X5055108Y-977341D01*
X5055108Y-826058D01*
X5054396Y-819759D01*
X5052466Y-814273D01*
X5049418Y-809396D01*
X5045303Y-805281D01*
X5040426Y-802233D01*
X5034940Y-800303D01*
X5028641Y-799592D01*
X4877358Y-799592D01*
X4871059Y-800303D01*
X4865573Y-802233D01*
X4860696Y-805281D01*
X4856581Y-809396D01*
X4853533Y-814273D01*
X4851603Y-819759D01*
X4850892Y-826058D01*
X4850892Y-977341D01*
X4851603Y-983640D01*
X4853533Y-989126D01*
X4856581Y-994003D01*
X4860696Y-998118D01*
X4865573Y-1001166D01*
X4871059Y-1003096D01*
G37*
G36*
X2337358Y-749808D02*
G01*
X2488641Y-749808D01*
X2494940Y-749096D01*
X2500426Y-747166D01*
X2505303Y-744118D01*
X2509418Y-740003D01*
X2512466Y-735126D01*
X2514396Y-729640D01*
X2515108Y-723341D01*
X2515108Y-572058D01*
X2514396Y-565759D01*
X2512466Y-560273D01*
X2509418Y-555396D01*
X2505303Y-551281D01*
X2500426Y-548233D01*
X2494940Y-546303D01*
X2488641Y-545592D01*
X2337358Y-545592D01*
X2331059Y-546303D01*
X2325573Y-548233D01*
X2320696Y-551281D01*
X2316581Y-555396D01*
X2313533Y-560273D01*
X2311603Y-565759D01*
X2310892Y-572058D01*
X2310892Y-723341D01*
X2311603Y-729640D01*
X2313533Y-735126D01*
X2316581Y-740003D01*
X2320696Y-744118D01*
X2325573Y-747166D01*
X2331059Y-749096D01*
G37*
G36*
X4877358Y-749808D02*
G01*
X5028641Y-749808D01*
X5034940Y-749096D01*
X5040426Y-747166D01*
X5045303Y-744118D01*
X5049418Y-740003D01*
X5052466Y-735126D01*
X5054396Y-729640D01*
X5055108Y-723341D01*
X5055108Y-572058D01*
X5054396Y-565759D01*
X5052466Y-560273D01*
X5049418Y-555396D01*
X5045303Y-551281D01*
X5040426Y-548233D01*
X5034940Y-546303D01*
X5028641Y-545592D01*
X4877358Y-545592D01*
X4871059Y-546303D01*
X4865573Y-548233D01*
X4860696Y-551281D01*
X4856581Y-555396D01*
X4853533Y-560273D01*
X4851603Y-565759D01*
X4850892Y-572058D01*
X4850892Y-723341D01*
X4851603Y-729640D01*
X4853533Y-735126D01*
X4856581Y-740003D01*
X4860696Y-744118D01*
X4865573Y-747166D01*
X4871059Y-749096D01*
G37*
G36*
X4877358Y-495808D02*
G01*
X5028641Y-495808D01*
X5034940Y-495096D01*
X5040426Y-493166D01*
X5045303Y-490118D01*
X5049418Y-486003D01*
X5052466Y-481126D01*
X5054396Y-475640D01*
X5055108Y-469341D01*
X5055108Y-318058D01*
X5054396Y-311759D01*
X5052466Y-306273D01*
X5049418Y-301396D01*
X5045303Y-297281D01*
X5040426Y-294233D01*
X5034940Y-292303D01*
X5028641Y-291592D01*
X4877358Y-291592D01*
X4871059Y-292303D01*
X4865573Y-294233D01*
X4860696Y-297281D01*
X4856581Y-301396D01*
X4853533Y-306273D01*
X4851603Y-311759D01*
X4850892Y-318058D01*
X4850892Y-469341D01*
X4851603Y-475640D01*
X4853533Y-481126D01*
X4856581Y-486003D01*
X4860696Y-490118D01*
X4865573Y-493166D01*
X4871059Y-495096D01*
G37*
G36*
X2337358Y-495808D02*
G01*
X2488641Y-495808D01*
X2494940Y-495096D01*
X2500426Y-493166D01*
X2505303Y-490118D01*
X2509418Y-486003D01*
X2512466Y-481126D01*
X2514396Y-475640D01*
X2515108Y-469341D01*
X2515108Y-318058D01*
X2514396Y-311759D01*
X2512466Y-306273D01*
X2509418Y-301396D01*
X2505303Y-297281D01*
X2500426Y-294233D01*
X2494940Y-292303D01*
X2488641Y-291592D01*
X2337358Y-291592D01*
X2331059Y-292303D01*
X2325573Y-294233D01*
X2320696Y-297281D01*
X2316581Y-301396D01*
X2313533Y-306273D01*
X2311603Y-311759D01*
X2310892Y-318058D01*
X2310892Y-469341D01*
X2311603Y-475640D01*
X2313533Y-481126D01*
X2316581Y-486003D01*
X2320696Y-490118D01*
X2325573Y-493166D01*
X2331059Y-495096D01*
G37*

%LPD*%
D10*
X5511800Y-9613900D02*
G01*
X5334000Y-9918700D01*
X5329999Y-10579100D01*
D11*
X1447800Y-9613900D02*
G01*
X762000Y-9169400D01*
X774700Y-7378700D01*
X419100Y-6845300D02*
G01*
X774700Y-7378700D01*
X4943500Y-6019800D02*
G01*
X5334000Y-6096000D01*
X5842000Y-6604000D01*
X5842000Y-9144000D01*
X5511800Y-9613900D01*
X4953002Y-5219705D02*
G01*
X4943500Y-6019800D01*
X5981700Y-4711700D02*
G01*
X5969000Y-4991100D01*
X5765800Y-5219700D01*
X4953002Y-5219705D01*
X5981700Y-2667000D02*
G01*
X5651500Y-2882900D01*
X5664200Y-4559300D01*
X5981700Y-4711700D01*
X1435100Y-6835800D02*
G01*
X2271293Y-7229398D01*
X927100Y-6845300D02*
G01*
X1435100Y-6835800D01*
D10*
X3818699Y-10566400D02*
G01*
X4076700Y-10160000D01*
X4826000Y-10172700D01*
X5329999Y-10579100D01*
X1447800Y-9613900D02*
G01*
X1778000Y-9893300D01*
X3517900Y-9906000D01*
X3818699Y-10566400D01*
D12*
G01*
X1435100Y-6835800D03*
G01*
X1435100Y-5965799D03*
G01*
X4943500Y-6019800D03*
G01*
X4073499Y-6019800D03*
G01*
X5981700Y-2413000D03*
D13*
G01*
X5981700Y-2667000D03*
D14*
G01*
X4830000Y-10579100D03*
G01*
X5329999Y-10579100D03*
G01*
X3318700Y-10566400D03*
G01*
X3818699Y-10566400D03*
D15*
G01*
X5981700Y-4711700D03*
G01*
X5981700Y-4457700D03*
D16*
G01*
X5981700Y-4203700D03*
D13*
G01*
X927100Y-6845300D03*
D12*
G01*
X673100Y-6845300D03*
G01*
X419100Y-6845300D03*
D17*
G01*
X683793Y-4953000D03*
G01*
X1703806Y-4953000D03*
D18*
G01*
X3491306Y-7229347D03*
G01*
X2071293Y-6629400D03*
G01*
X2271293Y-6029401D03*
G01*
X2271293Y-7229398D03*
G01*
X3491306Y-6029452D03*
D20*
G01*
X1447800Y-7835900D03*
D21*
G01*
X1447800Y-9613900D03*
G01*
X5511800Y-9613900D03*
G01*
X5511800Y-7835900D03*
D22*
G01*
X2413002Y-393705D03*
G01*
X2413002Y-647705D03*
G01*
X2413002Y-901705D03*
G01*
X2413002Y-1155705D03*
G01*
X2413002Y-1409705D03*
G01*
X2413002Y-1663705D03*
G01*
X2413002Y-1917705D03*
G01*
X2413002Y-2171705D03*
G01*
X2413002Y-2425705D03*
G01*
X2413002Y-2679705D03*
G01*
X2413002Y-2933705D03*
G01*
X2413002Y-3187705D03*
G01*
X2413002Y-3441705D03*
G01*
X2413002Y-3695705D03*
G01*
X2413002Y-3949705D03*
G01*
X2413002Y-4203705D03*
G01*
X2413002Y-4457705D03*
G01*
X2413002Y-4711705D03*
G01*
X2413002Y-4965705D03*
G01*
X2413002Y-5219705D03*
G01*
X4953002Y-5219705D03*
G01*
X4953002Y-4965705D03*
G01*
X4953002Y-4711705D03*
G01*
X4953002Y-4457705D03*
G01*
X4953002Y-4203705D03*
G01*
X4953002Y-3949705D03*
G01*
X4953002Y-3695705D03*
G01*
X4953002Y-3441705D03*
G01*
X4953002Y-3187705D03*
G01*
X4953002Y-2933705D03*
G01*
X4953002Y-2679705D03*
G01*
X4953002Y-2425705D03*
G01*
X4953002Y-2171705D03*
G01*
X4953002Y-1917705D03*
G01*
X4953002Y-1663705D03*
G01*
X4953002Y-1409705D03*
G01*
X4953002Y-1155705D03*
G01*
X4953002Y-901705D03*
G01*
X4953002Y-647705D03*
G01*
X4953002Y-393705D03*
M02*
