G04 Layer: BottomSolderMaskLayer*
G04 EasyEDA v6.5.51, 2026-01-08 00:26:36*
G04 20534f1d5e454c7f8422adcd5164db7c,ce41bef9852f4de9b562203a7e9bab9e,10*
G04 Gerber Generator version 0.2*
G04 Scale: 100 percent, Rotated: No, Reflected: No *
G04 Dimensions in millimeters *
G04 leading zeros omitted , absolute positions ,4 integer and 5 decimal *
%FSLAX45Y45*%
%MOMM*%

%AMMACRO1*4,1,8,-0.921,-0.9507,-0.9507,-0.9207,-0.9507,0.921,-0.921,0.9507,0.9207,0.9507,0.9507,0.921,0.9507,-0.9207,0.9207,-0.9507,-0.921,-0.9507,0*%
%AMMACRO2*4,1,8,-0.8085,-0.8382,-0.8382,-0.8082,-0.8382,0.8085,-0.8085,0.8382,0.8082,0.8382,0.8382,0.8085,0.8382,-0.8082,0.8082,-0.8382,-0.8085,-0.8382,0*%
%AMMACRO3*4,1,8,-1.2911,-1.3208,-1.3208,-1.2908,-1.3208,1.2911,-1.2911,1.3208,1.2908,1.3208,1.3208,1.2911,1.3208,-1.2908,1.2908,-1.3208,-1.2911,-1.3208,0*%
%AMMACRO4*4,1,8,-0.7831,-0.8128,-0.8128,-0.7828,-0.8128,0.7831,-0.7831,0.8128,0.7828,0.8128,0.8128,0.7831,0.8128,-0.7828,0.7828,-0.8128,-0.7831,-0.8128,0*%
%ADD10C,1.9016*%
%ADD11MACRO1*%
%ADD12C,2.3000*%
%ADD13C,1.6764*%
%ADD14MACRO2*%
%ADD15C,1.5016*%
%ADD16C,0.0162*%
%ADD17C,2.8956*%
%ADD18MACRO3*%
%ADD19C,2.6416*%
%ADD20MACRO4*%

%LPD*%
D10*
G01*
X1435100Y-6835800D03*
G01*
X1435100Y-5965799D03*
G01*
X4943500Y-6019800D03*
G01*
X4073499Y-6019800D03*
G01*
X5981700Y-2413000D03*
D11*
G01*
X5981700Y-2667000D03*
D12*
G01*
X4830000Y-10579100D03*
G01*
X5329999Y-10579100D03*
G01*
X3318700Y-10566400D03*
G01*
X3818699Y-10566400D03*
D13*
G01*
X5981700Y-4711700D03*
G01*
X5981700Y-4457700D03*
D14*
G01*
X5981700Y-4203700D03*
D11*
G01*
X927100Y-6845300D03*
D10*
G01*
X673100Y-6845300D03*
G01*
X419100Y-6845300D03*
D15*
G01*
X683793Y-4953000D03*
G01*
X1703806Y-4953000D03*
D17*
G01*
X3491306Y-7229347D03*
G01*
X2071293Y-6629400D03*
G01*
X2271293Y-6029401D03*
G01*
X2271293Y-7229398D03*
G01*
X3491306Y-6029452D03*
D18*
G01*
X1447800Y-7835900D03*
D19*
G01*
X1447800Y-9613900D03*
G01*
X5511800Y-9613900D03*
G01*
X5511800Y-7835900D03*
D20*
G01*
X2413000Y-393700D03*
G01*
X2413000Y-647700D03*
G01*
X2413000Y-901700D03*
G01*
X2413000Y-1155700D03*
G01*
X2413000Y-1409700D03*
G01*
X2413000Y-1663700D03*
G01*
X2413000Y-1917700D03*
G01*
X2413000Y-2171700D03*
G01*
X2413000Y-2425700D03*
G01*
X2413000Y-2679700D03*
G01*
X2413000Y-2933700D03*
G01*
X2413000Y-3187700D03*
G01*
X2413000Y-3441700D03*
G01*
X2413000Y-3695700D03*
G01*
X2413000Y-3949700D03*
G01*
X2413000Y-4203700D03*
G01*
X2413000Y-4457700D03*
G01*
X2413000Y-4711700D03*
G01*
X2413000Y-4965700D03*
G01*
X2413000Y-5219700D03*
G01*
X4953000Y-5219700D03*
G01*
X4953000Y-4965700D03*
G01*
X4953000Y-4711700D03*
G01*
X4953000Y-4457700D03*
G01*
X4953000Y-4203700D03*
G01*
X4953000Y-3949700D03*
G01*
X4953000Y-3695700D03*
G01*
X4953000Y-3441700D03*
G01*
X4953000Y-3187700D03*
G01*
X4953000Y-2933700D03*
G01*
X4953000Y-2679700D03*
G01*
X4953000Y-2425700D03*
G01*
X4953000Y-2171700D03*
G01*
X4953000Y-1917700D03*
G01*
X4953000Y-1663700D03*
G01*
X4953000Y-1409700D03*
G01*
X4953000Y-1155700D03*
G01*
X4953000Y-901700D03*
G01*
X4953000Y-647700D03*
G01*
X4953000Y-393700D03*
M02*
